<svg xmlns="http://www.w3.org/2000/svg" xmlns:xlink="http://www.w3.org/1999/xlink" xml:space="preserve" version="1.1" style="shape-rendering:geometricPrecision;text-rendering:geometricPrecision;image-rendering:optimizeQuality;" viewBox="0 0 333.33 416.66249999999997" x="0px" y="0px" fill-rule="evenodd" clip-rule="evenodd"><defs><style type="text/css">
   
    .fil0 {fill:black;fill-rule:nonzero}
   
  </style></defs><g><path class="fil0" d="M49.13 166.65c-2.76,0 -5,-2.24 -5,-5 0,-2.76 2.24,-5 5,-5l66.06 0 0 -34.91c0,-4.92 2.02,-9.41 5.29,-12.68 3.27,-3.26 7.76,-5.28 12.67,-5.28 4.92,0 9.41,2.02 12.68,5.29 3.26,3.27 5.28,7.76 5.28,12.67l0 34.91 31.11 0 0 -34.91c0,-4.92 2.02,-9.41 5.29,-12.68 3.27,-3.26 7.76,-5.28 12.67,-5.28 4.92,0 9.41,2.02 12.68,5.29 3.26,3.27 5.28,7.76 5.28,12.67l0 34.91 66.06 0c2.76,0 5,2.24 5,5 0,2.76 -2.24,5 -5,5l-71.13 0 -20.85 0 0 14.53 0 21.28 0 21.29 0 18.78c1.74,-1.11 3.66,-2.08 5.71,-2.89 4.58,-1.8 9.91,-2.81 15.46,-2.83 5.5,-0.02 10.83,0.96 15.46,2.74 2.97,1.14 5.67,2.62 7.97,4.38 2.28,-1.78 4.95,-3.28 7.9,-4.44 4.58,-1.8 9.91,-2.81 15.46,-2.83 5.5,-0.02 10.83,0.96 15.46,2.74 4.87,1.87 9.01,4.65 11.85,8.09 1.76,2.12 1.46,5.27 -0.67,7.03 -2.12,1.76 -5.27,1.46 -7.03,-0.67 -1.77,-2.14 -4.46,-3.91 -7.71,-5.16 -3.5,-1.34 -7.61,-2.09 -11.91,-2.07 -4.25,0.01 -8.34,0.79 -11.83,2.16 -3.16,1.24 -5.77,2.95 -7.47,4.99 -0.24,0.32 -0.52,0.62 -0.84,0.89 -2.12,1.76 -5.27,1.46 -7.03,-0.67 -1.76,-2.13 -4.46,-3.91 -7.71,-5.15 -3.5,-1.34 -7.61,-2.09 -11.91,-2.07 -4.25,0.01 -8.33,0.79 -11.83,2.16 -3.16,1.24 -5.77,2.95 -7.47,4.99 -0.24,0.32 -0.52,0.62 -0.84,0.89 -2.12,1.76 -5.27,1.46 -7.03,-0.67 -1.77,-2.14 -4.47,-3.91 -7.72,-5.15 -3.5,-1.34 -7.61,-2.09 -11.91,-2.07 -4.25,0.01 -8.34,0.79 -11.83,2.16 -3.15,1.24 -5.76,2.95 -7.47,4.99 -0.24,0.32 -0.52,0.62 -0.84,0.89 -2.12,1.76 -5.27,1.46 -7.03,-0.67 -1.76,-2.13 -4.46,-3.91 -7.71,-5.15 -3.5,-1.34 -7.61,-2.09 -11.91,-2.07 -4.25,0.01 -8.34,0.79 -11.83,2.16 -3.16,1.24 -5.77,2.96 -7.47,5 -0.24,0.32 -0.52,0.62 -0.84,0.89 -2.12,1.76 -5.27,1.46 -7.03,-0.67 -1.77,-2.14 -4.46,-3.91 -7.71,-5.16 -3.5,-1.34 -7.61,-2.09 -11.91,-2.07 -4.25,0.01 -8.33,0.79 -11.83,2.16 -3.24,1.28 -5.91,3.05 -7.61,5.16 -1.72,2.15 -4.86,2.48 -7.01,0.76 -2.15,-1.72 -2.48,-4.86 -0.76,-7.01 2.82,-3.5 6.93,-6.31 11.76,-8.2 4.58,-1.8 9.91,-2.81 15.46,-2.83 5.5,-0.02 10.83,0.96 15.46,2.74 2.97,1.14 5.67,2.62 7.97,4.38 2.28,-1.79 4.95,-3.28 7.9,-4.44 3.3,-1.29 6.98,-2.18 10.86,-2.58l0 -13.73 0 -21.29 0 -21.28 0 -14.4 -66.06 0zm203.98 -149.18c1.37,-2.38 4.41,-3.2 6.8,-1.83 2.38,1.37 3.2,4.41 1.83,6.8l-2.75 4.77c-1.37,2.38 -4.41,3.2 -6.8,1.83 -2.38,-1.37 -3.2,-4.41 -1.83,-6.8l2.75 -4.77zm16.81 13.16c2.38,-1.38 5.44,-0.57 6.81,1.81 1.38,2.38 0.57,5.44 -1.81,6.81l-4.77 2.76c-2.38,1.38 -5.44,0.57 -6.81,-1.81 -1.38,-2.38 -0.57,-5.44 1.81,-6.81l4.77 -2.76zm7.98 19.8c2.76,0 5,2.24 5,5 0,2.76 -2.24,5 -5,5l-5.5 0c-2.76,0 -5,-2.24 -5,-5 0,-2.76 2.24,-5 5,-5l5.5 0zm-3 21.17c2.38,1.37 3.2,4.41 1.83,6.8 -1.37,2.38 -4.41,3.2 -6.8,1.83l-4.77 -2.75c-2.38,-1.37 -3.2,-4.41 -1.83,-6.8 1.37,-2.38 4.41,-3.2 6.8,-1.83l4.77 2.75zm-13.16 16.83c1.37,2.38 0.55,5.43 -1.83,6.8 -2.38,1.37 -5.43,0.55 -6.8,-1.83l-2.75 -4.77c-1.37,-2.38 -0.55,-5.43 1.83,-6.8 2.38,-1.37 5.43,-0.55 6.8,1.83l2.75 4.77zm-19.8 7.97c0,2.76 -2.24,5 -5,5 -2.76,0 -5,-2.24 -5,-5l0 -5.51c0,-2.76 2.24,-5 5,-5 2.76,0 5,2.24 5,5l0 5.51zm-21.17 -2.99c-1.38,2.38 -4.43,3.19 -6.81,1.81 -2.38,-1.38 -3.19,-4.43 -1.81,-6.81l2.76 -4.77c1.38,-2.38 4.43,-3.19 6.81,-1.81 2.38,1.38 3.19,4.43 1.81,6.81l-2.76 4.77zm-16.83 -13.18c-2.38,1.37 -5.43,0.55 -6.8,-1.83 -1.37,-2.38 -0.55,-5.43 1.83,-6.8l4.77 -2.75c2.38,-1.37 5.43,-0.55 6.8,1.83 1.37,2.38 0.55,5.43 -1.83,6.8l-4.77 2.75zm-7.97 -19.8c-2.76,0 -5,-2.24 -5,-5 0,-2.76 2.24,-5 5,-5l5.5 0c2.76,0 5,2.24 5,5 0,2.76 -2.24,5 -5,5l-5.5 0zm2.99 -21.17c-2.38,-1.38 -3.19,-4.43 -1.81,-6.81 1.38,-2.38 4.43,-3.19 6.81,-1.81l4.77 2.76c2.38,1.38 3.19,4.43 1.81,6.81 -1.38,2.38 -4.43,3.19 -6.81,1.81l-4.77 -2.76zm13.18 -16.81c-1.38,-2.38 -0.57,-5.44 1.81,-6.81 2.38,-1.38 5.44,-0.57 6.81,1.81l2.76 4.77c1.38,2.38 0.57,5.44 -1.81,6.81 -2.38,1.38 -5.44,0.57 -6.81,-1.81l-2.76 -4.77zm19.8 -7.99c0,-2.76 2.24,-5 5,-5 2.76,0 5,2.24 5,5l0 5.51c0,2.76 -2.24,5 -5,5 -2.76,0 -5,-2.24 -5,-5l0 -5.51zm5 18.38c6.23,0 11.88,2.53 15.96,6.61 4.08,4.08 6.61,9.74 6.61,15.97 0,6.23 -2.53,11.89 -6.61,15.97 -4.08,4.08 -9.73,6.61 -15.96,6.61 -6.23,0 -11.89,-2.53 -15.97,-6.61 -4.08,-4.08 -6.61,-9.74 -6.61,-15.97 0,-6.23 2.53,-11.89 6.61,-15.97 4.08,-4.08 9.74,-6.61 15.97,-6.61zm-157.69 247.76c-2.75,0 -4.98,-2.23 -4.98,-4.98 0,-2.75 2.23,-4.98 4.98,-4.98l60 0c2.75,0 4.98,2.23 4.98,4.98 0,2.75 -2.23,4.98 -4.98,4.98l-60 -0zm198.65 -4.66c2.76,0 5,2.24 5,5 0,2.76 -2.24,5 -5,5l-26.51 0c-2.76,0 -5,-2.24 -5,-5 0,-2.76 2.24,-5 5,-5l26.51 0zm-165.97 23.68c-2.76,0 -5,-2.24 -5,-5 0,-2.76 2.24,-5 5,-5l14.29 0c2.76,0 5,2.24 5,5 0,2.76 -2.24,5 -5,5l-14.29 0zm76.62 -2.85c2.75,0 4.98,2.23 4.98,4.98 0,2.75 -2.23,4.98 -4.98,4.98l-13.06 0.01c-2.75,0 -4.98,-2.23 -4.98,-4.98 0,-2.75 2.23,-4.98 4.98,-4.98l13.06 -0.01zm72.62 -0.01c2.76,0 5,2.24 5,5 0,2.76 -2.24,5 -5,5l-49.15 0c-2.76,0 -5,-2.24 -5,-5 0,-2.76 2.24,-5 5,-5l49.15 0zm-101.81 -16.13c-2.76,0 -5,-2.24 -5,-5 0,-2.76 2.24,-5 5,-5l64.69 0c2.76,0 5,2.24 5,5 0,2.76 -2.24,5 -5,5l-64.69 0zm-52.09 43.22c-2.76,0 -5,-2.24 -5,-5 0,-2.76 2.24,-5 5,-5l47.27 0c2.76,0 5,2.24 5,5 0,2.76 -2.24,5 -5,5l-47.27 0zm-51.87 -24.24c-2.76,0 -5,-2.24 -5,-5 0,-2.76 2.24,-5 5,-5l40.07 0c2.76,0 5,2.24 5,5 0,2.76 -2.24,5 -5,5l-40.07 0zm126.81 -70.94l-57.03 0 0 8.73c3.56,0.41 6.97,1.25 10.06,2.44 2.97,1.14 5.67,2.62 7.97,4.38 2.28,-1.79 4.96,-3.28 7.9,-4.44 4.58,-1.8 9.91,-2.81 15.46,-2.83 5.5,-0.02 10.83,0.96 15.54,2.78l0.09 -11.05zm-57.03 -31.29l57.03 0 0 -11.28 -57.03 0 0 11.28zm67.03 -40.74l15.91 0 0 -34.91c0,-2.19 -0.89,-4.19 -2.32,-5.61 -1.45,-1.45 -3.44,-2.34 -5.63,-2.34 -2.19,0 -4.19,0.89 -5.61,2.32 -1.45,1.45 -2.34,3.44 -2.34,5.63l0 34.91zm-67.03 0l15.91 0 0 -34.91c0,-2.19 -0.89,-4.19 -2.32,-5.61 -1.45,-1.45 -3.44,-2.34 -5.63,-2.34 -2.19,0 -4.19,0.89 -5.61,2.32 -1.45,1.45 -2.34,3.44 -2.34,5.63l0 34.91z"/></g><text x="0" y="348.33" fill="#000000" font-size="5px" font-weight="bold" font-family="'Helvetica Neue', Helvetica, Arial-Unicode, Arial, Sans-serif">Created by bajuja</text><text x="0" y="353.33" fill="#000000" font-size="5px" font-weight="bold" font-family="'Helvetica Neue', Helvetica, Arial-Unicode, Arial, Sans-serif">from the Noun Project</text></svg>