<?xml version="1.0" encoding="UTF-8"?>
<!DOCTYPE svg PUBLIC "-//W3C//DTD SVG 1.1//EN" "http://www.w3.org/Graphics/SVG/1.1/DTD/svg11.dtd">
<!-- Creator: CorelDRAW 2021 (64-Bit) -->
<svg xmlns="http://www.w3.org/2000/svg" xml:space="preserve" width="84.6665mm" height="84.6666mm" version="1.1" style="shape-rendering:geometricPrecision; text-rendering:geometricPrecision; image-rendering:optimizeQuality; fill-rule:evenodd; clip-rule:evenodd"
viewBox="0 0 14536.39 14536.41"
 xmlns:xlink="http://www.w3.org/1999/xlink"
 xmlns:xodm="http://www.corel.com/coreldraw/odm/2003">
 <defs>
  <style type="text/css">
   <![CDATA[
    .fil1 {fill:#6B0000}
    .fil0 {fill:#FF9F63}
   ]]>
  </style>
 </defs>
 <g id="Layer_x0020_1">
  <metadata id="CorelCorpID_0Corel-Layer"/>
  <rect class="fil0" x="-0.03" y="0" width="14536.4" height="14536.4" rx="892.38" ry="955.8"/>
  <g id="_2094654825696">
   <path class="fil1" d="M9773.73 4956.81c-11.54,18.83 -18.01,22.03 -38.66,38.58 -30.08,24.09 -19.66,20.53 -50.44,28.55 -16.16,29.29 -16.19,25.81 -37.99,51.56 -13.36,15.8 -22.77,25.63 -37.98,45.65 -21.36,28.07 -41.38,73.28 -73.28,97.25 -5.53,37 -1.37,27.69 -24.26,51.03 -30.29,73.62 -106.64,182.2 -149.01,253.19l-159.98 244.43c-5.6,43.52 -94.27,169.87 -122.76,215.28 -14.94,37 0.27,10.7 -22.68,20.52 -6.08,40.43 -192.76,333.9 -232.38,398.77 -37.72,61.72 -128.42,72.95 -210.41,101.35 -62.53,21.68 -177.65,74.03 -237.09,71.61 -35.14,33.03 -238,92.11 -284.01,101.52 -25.38,18.56 -113.86,46.46 -157.58,48.14 -18.46,-80.04 -61.41,-163.43 -57.91,-241.41l-49.15 -134.93c-88.73,-307.27 -69.69,-49.22 -113.01,-235.13 -11.02,-47.3 -24.52,-96.08 -33.36,-145.97l-55.18 -214.6 -61.81 -241.64c11.81,-14.44 14.01,-15.11 26.78,-29.24l25.44 -28.52c1.15,-4.74 4.46,-5.27 6.83,-7.78 -17.82,-63.03 -98.28,-342.06 -95.24,-388.16 -10.46,-13.79 -2.63,0.33 -14.65,-25.43 -1.65,-3.52 -6.16,-14.9 -7.62,-18.7 -4.34,-11.3 -8.74,-28.83 -13.43,-42.22 -27.99,104.3 37.38,357.29 -15.8,431.68 -37.84,-12.86 -6.83,17.01 -38.49,-33.12l-71.94 -144.17c-30.65,-60.33 -86.53,-138.06 -89.36,-199.74 -16.69,25.63 -10.13,6.59 -12.28,39.32 -0.19,3.02 2.66,24.65 3.59,29.74l41.07 188.21 42.25 204.33c11.06,8.81 8.55,4.89 22.49,18.41 26.99,26.23 -1.03,-2.52 18.23,22.54 66.19,-2.49 57.31,3.78 72.56,66.29 10.71,44 23.26,76.04 20.04,120.65 29.69,36.72 71.23,241.22 79.15,285.93l55.71 208.64 -29.51 22.56c-13.86,93.09 94.31,445.9 110.21,575.26 -45.26,31.68 -64.11,22.75 -115.22,48.78l24.77 107.22 114.96 393.24c54.6,-4.62 75.2,-20.69 126.02,-16.34 53.58,-42.08 184.24,-54.6 259.68,-67.15 57.07,-23.5 156.67,-49.79 216,-42.44 31.02,-22.58 73.65,-27.3 113.64,-36.4l392.86 -88.09c48.11,-22.37 164.48,-48.42 215.93,-43.01l43.88 -20.57c131.17,-46.03 157.77,-71.46 241.95,-213.65 47.58,-80.37 166.18,-251.44 191.74,-327.62 29.86,29.77 21.65,-11.97 32.78,133.63l82.98 1038.88c12.96,57.93 7.66,168.27 -12.95,225.98 -6.39,66.31 -14.52,229.93 -44.69,272.06 6.85,63.7 -39.57,374.75 -55.42,448.21 -5.05,53.24 -13.46,107.68 -20.57,159.4 -5.48,39.88 -9,111.1 -29.99,144.31 9.73,43.73 -0.38,136.06 -16.52,176.46l-3.23 263.97 -6.35 16.29c29.26,45.76 30.99,369.27 34.73,453.07 6.34,58.24 20.86,154.07 3.52,211.42 7.33,13.68 4.21,1.36 9.94,28.96l16.04 250.58 -3.59 62.62c26.73,45.76 36.52,447.17 39.66,537.61 5.73,79.68 22.99,175.54 8.29,255.56 27.49,45.65 16.86,156.96 21.51,220.54l639.89 5.92c-11.64,-267.32 -46.24,-542.99 -66.63,-807.75l-100.25 -1210.26c-11.92,-132.84 62.65,-1106.75 78.65,-1233.3 15.97,585.03 -2.08,985.69 44.98,1592.84 39.47,509.52 88.33,1029.45 116.92,1536.59 4.74,35.08 13.58,88.37 1.44,116.61l724.53 5.12c3.66,-127.31 -33.7,-525.01 -2.78,-609.91l-6.99 -18.95c-24.95,-109.73 -59.35,-2933.68 -57.4,-3070.09 4.79,-333.58 -43.32,-661.13 -64.74,-994.27 -4.84,-44.31 -15.28,-111.03 -2.25,-153.1 -40.43,-70.24 -2.88,13.1 -14.18,-41.55l-22.73 -299.56 -19.95 -289.49 135.76 72.61c0.96,0.76 4.24,6.52 4.89,4.79 0.64,-1.7 3.26,3.04 4.58,4.84 64.54,22.37 380.4,205.7 431.99,246.56l15.9 224.66 17.99 228.85 18.08 251.34 -2.39 74.79c30.29,49.65 45.82,479.39 51.75,574.35l533.23 -15.74c13.27,-209.31 -3.54,-684.99 10.15,-837.92l11.64 -49.38c-21.55,-68.06 -8,-161.87 -7.14,-236.81l2.61 -242.91 -3.59 -237.57c-36.36,-106.33 -65.45,-155.88 -138.18,-205.68l-167.36 -97.07c-11.13,-6.56 -20.33,-11.93 -27.99,-17.72 -13.34,-10.01 -12.07,-10.49 -15.06,-14.56 -97.52,-33.39 -276.99,-153.75 -375.25,-209.24 -66.65,-37.67 -121.04,-67.03 -183.54,-104.16 -54.84,-32.59 -141.71,-67.78 -178.08,-114.35 -59.68,-5.91 -450.41,-249 -457.57,-259.68 -134.52,-48.18 -181.48,-106.6 -372,-109.54 -193.51,-2.97 -234.8,56.86 -368.45,96.95z"/>
   <path class="fil1" d="M4511.45 9840.39c13.43,-67.75 50.97,-215.45 89.42,-258.39l16.71 -88.92c60.31,13.99 121.95,45.27 181.46,65.21 55.92,18.73 133.8,35.23 181.65,51.2 276.32,43.8 424.76,60.74 716.72,34.42l232.07 -35.64c42.2,-33.62 129.59,-46.84 188.14,-67.46 56.02,-19.73 125.02,-54.98 174.08,-64.83l38.46 128.01c24.76,19.83 67.22,166.85 63.63,211.57l91.34 251.61c28.31,88.95 60.09,168.32 80.64,257.05l25.02 82.33 -2261.52 -0.38c5.43,-53.81 165.37,-542.71 182.2,-565.79zm-1107.86 -2049.07c5.25,42.91 11.83,64.59 1.77,102.52l32.05 131.39c10.23,51.01 21.24,88.99 29.82,138.23 20.67,37.03 66.98,183.9 67.2,219.32l23.18 27.69 85.18 197.12c30.35,24.31 120.94,177.1 149.82,215.44 121.5,161.44 374.3,437.38 554.42,512.7 -14.22,72.66 -145.27,496.34 -177.15,526.86 0.53,63.18 -38.58,156.99 -60.92,209.02 -21.31,85.36 -139.21,483.7 -178.76,524.98 -0.67,48.54 -30.2,148.24 -54.27,183.95l-154.28 498.04 51.59 16.28c49.07,8.48 89.73,24.55 136.29,40.04 53.21,17.72 74.31,37.43 115.5,13.01 -1.1,-35.76 2.52,-47.47 16.41,-69.36 11.42,-62.56 53.22,-226.51 92.3,-265.6 1.29,-54.19 98.67,-352.51 126.23,-391.92l231.34 -0.33 258 0.05 221.81 0 258.36 0 221.81 0 258.36 0 221.82 0 258.34 0 220.5 0.03c272.76,0.09 244.85,-18.49 271,43.06 3.97,9.29 13.56,41.62 17.89,54.87l98.98 313.03c20.43,47.51 63.99,162.06 62.75,216.3 9.24,10.92 6.97,5.36 15.5,23.5 8.82,18.78 6.3,18.9 12.21,36.64 23.92,71.71 3.23,48.09 60.26,50.05l187.21 -66.22c78.48,-22.08 49.58,1.84 54.8,-55.3 -25.32,-41.41 -131.6,-377.31 -130.24,-418.6l-94.6 -263.75c-23.78,-59.15 -145.68,-419.92 -145.11,-470.14 -2.11,-2.39 -4.52,-5.87 -5.7,-7.71l-44.69 -114.65c-15.83,-48.91 -30.6,-86.51 -39.69,-137.08 -20.09,-29.5 -63.32,-164.65 -64.28,-213.08 -40.02,-39.85 -93.37,-230.99 -101.01,-295.55 38.34,-21.51 60.26,-43.47 102.17,-60.57 28,-44.24 113.37,-99.07 156.01,-137.01 84.09,-74.84 211.14,-225.51 274.89,-313.3 29.96,-41.29 81.12,-140.92 113.54,-166.63 24.64,-82.86 77.43,-155.72 112.61,-243.15l96.22 -256.06 37.51 -229.76 24.28 -292.83 -4085.31 2.87 6.09 171.62z"/>
   <path class="fil1" d="M4989.21 3710.87l-282.6 -53.07c-82.46,14.3 -256.47,-3.5 -362.42,4.79 -88.9,6.97 -245.72,46.27 -316.13,42.44l-260.2 85.71c-38.87,28.36 -181.6,82.5 -237.74,113.57 -50.96,28.17 -187,119.48 -214.22,125.85 -12.4,15.5 -4.53,8.43 -19.74,22.32 -2.78,2.54 -11.57,9.89 -14.65,12.09 -21.32,15.35 -10.97,8.21 -36.04,18.75 -1.22,2.01 -3.16,4.89 -3.91,5.87 -0.74,1 -3.11,4.67 -4.09,5.89 -1.01,1.25 -3.35,4.45 -4.53,5.82l-71.44 59.3c-28.26,25.51 -50.31,61.88 -87.34,73.05 -19.4,38.97 -46.12,75.54 -94.84,95.8 -13.92,38.96 -39.63,62.1 -73.41,103.53 -24.33,29.84 -46.51,71.49 -73.4,87.1 -13.41,37.7 5.58,18.34 -30.94,41.45 -5.48,31.81 -9.17,32.12 -28.38,62.68 -100.59,160.05 -175.38,365.63 -194.46,394.63l-66.89 254.15 -36.84 230.8 -4 319.22 7.21 150.42 59.13 256.42c28.74,77.66 48.59,161.87 81.21,237.67 24.31,56.5 97.86,189.27 100.92,229.1 13.96,12.53 6.28,3.85 20.02,21.39 5.99,7.66 14.9,21.62 19.95,29.84 62.12,101.42 190.47,283.13 270.07,353.66l186.97 173.2c42.44,36.4 159.71,128.77 220.12,147.76 14.61,-40.91 117.23,-213.53 156.79,-241.76 9.41,-52.4 101.19,-178.33 135.27,-232.5 29.27,-46.49 114.4,-207.61 146.28,-224.88 21.58,-52.04 111.1,-209.05 151.6,-235.95l1.82 -10.83c10.18,-26.8 269.69,-472.11 320.94,-508.97 6.82,-56.07 424.11,-686.55 427.59,-688.84 22.39,-69.67 109.74,-186.97 154.31,-260.92l153.54 -235.83c1.13,-4.57 4.77,-4.74 7.35,-6.9 4.84,-38.13 86.15,-153.66 110.52,-191.98l46.12 -58.87c4.53,-30.6 251.27,-429.28 272.92,-441.84l59.18 -121.66 -95.31 -58.36c8.43,-21.98 13.56,-34.66 26.89,-55.4 21.05,-32.78 5.12,-17.96 37.34,-40.47 7.73,-44.45 29,-46.58 33.82,-96.61 5.41,-56.13 -15.57,-71.49 -21.92,-106.05 -35.4,-17.05 -84.52,-44.66 -111.7,-79.3 -108.73,0.41 -136.22,-15.62 -189,70.46 -28.36,46.25 -81.09,122.52 -97.71,167.64l-174.04 -51.37z"/>
   <path class="fil1" d="M9315.36 3154.1l-40.71 24.76c-155.53,71.85 -105.21,57.43 -224.9,121.9 -7.16,22.83 9.91,4.05 -20.35,28.05 -28.57,22.68 -8.34,7.85 -29.24,14.4 -21.72,46.61 -62.34,80.01 -93.9,127.27 -28.28,42.36 -53.31,86.17 -75.15,140.67 -51.97,129.73 -62.12,234.58 -54.91,386.8l-5.73 21.96c34.42,51.82 21.03,200.48 194.52,398.8 122.95,140.58 185.97,155.88 319.17,221.77l25.96 14.89c2.11,1.27 5.91,3.59 8.62,5.72l139.14 21c121.5,6.44 205.75,7.61 317.59,-30.11 55.37,-8.29 150.59,-59.63 191.54,-84.68 75.94,-46.44 100.1,-77.14 156.48,-131.58 93.09,-89.88 148,-215.04 192.4,-367.61l12.21 -243.77 -49.26 -223.27c-25.39,-25.19 -18.3,-17.15 -32.28,-59.15l-124.23 -176.21c-39.57,-19.71 -33.07,-20.88 -65.31,-50.96 -29.26,-27.32 -33.77,-20.55 -55.82,-55.97 -44.93,-9.31 -90.53,-46.51 -143.5,-68.78 -50.43,-21.19 -101.11,-38.1 -156.75,-48.95 -173.08,-33.77 -270.1,20.45 -385.6,13.03z"/>
   <path class="fil1" d="M5501.48 5741.07c70.32,42.25 98.88,160.84 106.14,261.6 4.84,103.94 -24.28,194.95 -72.11,267.37 -28.31,42.87 -50.75,67.66 -80.95,98.89 -27.04,27.95 -49.02,78.22 -76.23,90.03 -61.21,170.93 -92.06,184.31 -82.86,408.02l3.42 65.67c23.99,26.59 39.47,98.7 57.19,134.85 28.78,58.75 54.05,86.65 79.97,135.62 35.08,5.68 14.4,-1.25 19.06,21.79 65.04,-5.25 27.08,-11.9 84.78,-44.14l48.79 -61.98c-25.12,-46.89 -82.33,-88.9 -86.7,-158.93 -30.53,-29.67 -38.6,-89.97 -41.34,-140.85 -2.95,-55.03 -2.63,-130.48 28.98,-165.06 -0.19,-87.01 84.15,-163.36 124.63,-209.38 65.23,-74.15 83.32,-115.62 128.97,-214.72 30.94,-129.01 36.96,-165.39 27.04,-307.74l-40.14 -162.13c-28.5,-24.12 -30.11,-35.37 -44.66,-73.04 -33.07,-27.88 -49.38,-72.26 -94.69,-103.87l-107.75 107.55c10.99,32.69 11.09,22.37 18.46,50.44z"/>
   <path class="fil1" d="M4999.8 5598.16l-81.21 88.15c19.13,42.24 21.15,28.53 37.17,71.65 54.32,30.27 86.91,156.79 91.27,244.5 5.27,105.66 -24.12,189.06 -68.14,262.98 -110.48,185.41 -127.05,65.28 -236.93,397.62 -12.83,119.27 -17.36,193.98 14.59,306.81 31.49,111.13 84.9,155.38 114.48,228.79 16.95,8.98 20.47,16.5 49.17,27.04 34.66,-40.47 84.27,-72.88 108.53,-120.72 -71.63,-61.71 -128.27,-178.54 -129.39,-309.9 -0.86,-98.96 27.81,-179.55 75.34,-257.84 21.24,-35.02 25.6,-51.13 53.24,-54.37 101.85,-156.13 189.55,-218.75 187.12,-494.35 -10.37,-202.29 -88.9,-292.63 -173.11,-405.63 -20.23,7.04 -28.11,9.34 -42.13,15.28z"/>
   <path class="fil1" d="M6053.12 5730.17c71.03,38.56 107.82,171.42 115.27,272.51 3.21,67.73 -4.34,172.67 -49,216.21 -21.8,65.02 -46.91,85.43 -85.36,129.4 -18.75,21.43 -29.72,32.07 -50.08,57.69 -24.12,30.32 -12.71,27.75 -48.59,52.85l3.57 0.15c-61.17,173.6 -95.37,188.86 -81.48,420.02l-5.43 15.47c20.96,26.94 71.39,263.15 184.58,332.65 15.93,-11.66 11.67,-10.87 25.74,-21.96 27.92,-22.06 3.16,-9.17 40.18,-27.35 6.35,-20.4 -7.19,1.72 14.4,-26.3 10.61,-13.79 17.67,-18.39 30.05,-32.36 -23.13,-47.64 -82.39,-95.36 -82.57,-153.18l-30.29 -60.23c-16.09,-59.32 -27.23,-158.57 5.41,-210.3 -10.9,-90.43 83.72,-197.05 124.39,-241.34 32.76,-35.68 52.3,-57.69 78.94,-101.04 21.98,-35.76 39.68,-87.2 58.92,-110.26 23.88,-102.81 36.6,-148 34.9,-263.97 -8.41,-67.95 -43.06,-173.78 -44.02,-214.18l-12.96 -14.42c-2.06,-2.61 -9.19,-11.85 -11.31,-14.92 -38.8,-56.09 -24.79,-52.64 -87.65,-129.49 -18.23,-22.3 -0.39,3.24 -17.17,-21.72 -38.73,10.06 -55.75,39.01 -83.66,66.48 -38.15,37.55 -40.23,34.39 -26.78,79.61z"/>
  </g>
 </g>
</svg>
