<?xml version="1.0" encoding="UTF-8"?>
<!DOCTYPE svg PUBLIC "-//W3C//DTD SVG 1.1//EN" "http://www.w3.org/Graphics/SVG/1.1/DTD/svg11.dtd">
<!-- Creator: CorelDRAW 2021 (64-Bit) -->
<svg xmlns="http://www.w3.org/2000/svg" xml:space="preserve" width="84.6665mm" height="84.6666mm" version="1.1" style="shape-rendering:geometricPrecision; text-rendering:geometricPrecision; image-rendering:optimizeQuality; fill-rule:evenodd; clip-rule:evenodd"
viewBox="0 0 14536.39 14536.41"
 xmlns:xlink="http://www.w3.org/1999/xlink"
 xmlns:xodm="http://www.corel.com/coreldraw/odm/2003">
 <defs>
  <style type="text/css">
   <![CDATA[
    .fil1 {fill:#310013}
    .fil2 {fill:#310212}
    .fil0 {fill:#FF9F63}
   ]]>
  </style>
 </defs>
 <g id="Layer_x0020_1">
  <metadata id="CorelCorpID_0Corel-Layer"/>
  <rect class="fil0" x="-0.03" y="0" width="14536.4" height="14536.4" rx="892.38" ry="955.8"/>
  <g id="_2094641482432">
   <path class="fil1" d="M2953.53 5419.67c-50.82,568.74 72.85,1279.79 221.82,1790.38 153.1,524.72 406.6,968.74 676.6,1325.24 672.51,888 1632.38,1246.74 2782.54,1237.2 1368.27,-11.33 2289.42,-374.92 2868.99,-1151.15 586.84,-785.98 807.22,-2020.02 791.73,-3219.63 -25.27,12.4 -415.85,330.04 -714.56,490.98 -1812.07,976.26 -4747.73,938.7 -6460.56,-348.02 -47.21,-35.45 -120.99,-102.72 -166.57,-125.01z"/>
   <path class="fil1" d="M6840.28 10256.78c-794.62,1.24 -3254.47,-111.1 -3749.79,-791.8 -300.17,-412.54 522.13,-674.95 612.93,-737.82l-120.06 -166.35c-36,-50.55 -71.75,-109.45 -110.33,-145.23 -188.81,43.56 -497.15,203.14 -650.02,297.62 -880.31,544.1 -252.85,1134.36 594.37,1435.55 1816.99,645.9 4999.29,656.35 6802.85,-24.38 368.98,-139.26 1126.94,-501.2 918.73,-1000.47 -154.9,-371.5 -914.23,-718.57 -1195.68,-758.05l-197.29 323.02c177.49,89.76 349.92,125.28 523.64,238.34 737.68,480.03 -172.05,868.58 -715.57,1017.21 -844.89,231.06 -1794.14,311 -2713.78,312.36z"/>
   <path class="fil2" d="M7989.04 6280.83c-835,-18.68 -1564.85,-84.99 -2353.59,-258.69 -581,-127.93 -1606.71,-431.46 -1751.79,-866.52 -110.48,-331.22 338.02,-579.71 572.11,-683.27 1652.65,-731.3 5893.88,-157.2 4986.87,628.18 -594.32,514.62 -3329.88,495.86 -3836.79,53.48 -183.16,-159.83 -92.01,-281.5 104.32,-362.73 421.09,-174.2 1269.99,-166.99 1746.29,-66 468.06,99.27 609.12,290.22 44,458.7 520.24,27.37 830.28,-403.11 27.68,-566.49 -439.89,-89.55 -1045.15,-111.56 -1494.18,-44.97 -430.24,63.8 -1045.54,297.66 -577.57,693.88 632.25,535.36 3826.61,779.21 4495.58,-199.74 159.89,-233.98 23.01,-439.65 -115.19,-552.34 -288.83,-235.59 -768.66,-328.6 -1193.25,-413.24 -907.55,-180.91 -2006.51,-258.86 -2945.03,-146.23 -441.45,52.97 -928.57,150.3 -1317.43,292.73 -310.66,113.78 -839.03,335.43 -1017.37,591.51 -293.02,420.83 56.64,644.78 487.94,890.54 741.7,422.65 1726.96,586.97 2595.2,615.78 297.25,9.87 1320.23,17.43 1542.19,-64.59z"/>
   <path class="fil1" d="M10619.45 6203.97c93.3,-58.68 178.04,-192.52 419.78,-310.72 515.4,-252.01 1018.91,5.58 511.36,697.56 -49.93,68.13 -125.02,125.97 -183.18,190.68 -42.63,47.42 -138.85,118.05 -194.87,160.72 -306.14,233.19 -1109.15,626 -911.21,851.51 121.61,138.57 437.41,41.09 583.09,-19.23 365.49,-151.36 724.88,-469.14 914.61,-713.22 791.18,-1017.64 193.98,-1675.02 -409.09,-1606.73 -362.42,41.05 -670.74,395.16 -730.51,749.43z"/>
  </g>
 </g>
</svg>
