<?xml version="1.0" encoding="UTF-8"?>
<!DOCTYPE svg PUBLIC "-//W3C//DTD SVG 1.1//EN" "http://www.w3.org/Graphics/SVG/1.1/DTD/svg11.dtd">
<!-- Creator: CorelDRAW 2021 (64-Bit) -->
<svg xmlns="http://www.w3.org/2000/svg" xml:space="preserve" width="84.6667mm" height="84.6666mm" version="1.1" style="shape-rendering:geometricPrecision; text-rendering:geometricPrecision; image-rendering:optimizeQuality; fill-rule:evenodd; clip-rule:evenodd"
viewBox="0 0 8202.81 8202.8"
 xmlns:xlink="http://www.w3.org/1999/xlink"
 xmlns:xodm="http://www.corel.com/coreldraw/odm/2003">
 <defs>
  <style type="text/css">
   <![CDATA[
    .fil1 {fill:#D600D2}
    .fil0 {fill:#FFCCFE}
   ]]>
  </style>
 </defs>
 <g id="Layer_x0020_1">
  <metadata id="CorelCorpID_0Corel-Layer"/>
  <rect class="fil0" x="-0.01" y="-0" width="8202.81" height="8202.8" rx="503.57" ry="539.35"/>
  <g id="_2094653783856">
   <path class="fil1" d="M6341.06 4965.66c549.77,-6.29 443.11,-159.52 443.11,-890.24 0,-235.74 44.46,-441.03 -113.73,-561.46 -107.34,-81.7 -449.16,-49.03 -609.18,-49.03l-1988.5 0c-209.14,0 -450.18,-42.48 -553.91,97.34 43.46,87.33 180.33,371.5 204.99,460.95 55.82,202.52 -87.73,343.83 -278.4,349.87 9.93,457.74 -59.3,589.31 444.54,592.64 47.41,163.09 -76.69,188.15 198.74,185.96 428.78,-3.39 379.93,47.82 377.45,-186.19 202.12,0.36 1184.95,-23.47 1296.41,11.72l14.32 166.74c49.87,9.42 447.64,18.64 517.96,-1.01l22.53 -10.91c26.8,-48.97 3.35,-95.95 23.7,-166.37z"/>
   <path class="fil1" d="M2196.51 2644.91c-274.73,-0.42 -263.6,87.07 -448.04,501.71 -61.3,137.76 -441.24,878.44 -411.86,1001.94 28.35,119.22 188.86,174.35 291.7,96.41 55.84,-42.3 247.86,-502.93 304.24,-610.13l0.53 2461.13c0.02,478.23 541.93,415.65 543.57,48.11l-0.08 -1699.84c0,-68.66 -16.64,-68.37 24.63,-98.09 12.52,19.61 6.45,2.43 13.86,36.65l3.35 1697.13c0,195.7 78.41,333.4 272,333.7 200.41,0.32 272.95,-150.2 272.91,-333.7l2.58 -2403.8c179.11,263.05 188.83,672.69 451.28,597.65 171.3,-48.96 132.57,-208.69 65.72,-349.96l-501.39 -1102.21c-88.13,-184.27 -116.54,-177.51 -355.81,-176.66 -176.32,0.62 -352.88,0.49 -529.2,-0.04z"/>
   <path class="fil1" d="M3658.66 2409.25l-5.94 960.71 372.54 0.87 5.17 -433.95 650.68 6.57 -2.38 429.9 871.56 -3.68 0.44 -425.57 649.13 -6.8 6.86 431.02 371.99 -3.85c-7.51,-272.69 27.71,-711.76 -11.97,-963.7 -14.38,-255.48 -366.35,-203.38 -617.75,-203.38l-1667.76 0c-260.21,0 -594.58,-50.75 -622.56,211.86z"/>
   <path class="fil1" d="M2402.87 1774.78c-510.5,113.52 -342.57,901.99 173.1,771.44 174.18,-44.11 329.66,-229.31 281.42,-464.14 -38.26,-186.24 -223.56,-358.64 -454.52,-307.3z"/>
   <path class="fil1" d="M4678.73 3373.35c4.19,1.87 -6.37,6.39 35.66,11.51 17.2,2.08 45.48,1.37 63.53,1.31 37.56,-0.12 75.1,-0.47 112.68,-0.47 141.03,-0.02 585,9.89 665.55,-7.76 26.99,-88.87 10.91,-319.66 10.57,-425.9l625.31 1.11c0.53,71.79 -22.56,367.75 14.7,415.17l-6.86 -431.02 -649.13 6.8 -0.44 425.57 -871.56 3.68z"/>
   <path class="fil1" d="M4025.26 3370.83l-372.54 -0.87 5.94 -960.71c-44.33,36.77 -30.55,858.47 -15.89,972.41 96.54,3.77 309.58,18.07 382.49,-10.83z"/>
   <path class="fil1" d="M6206.72 3368.31c77.77,39.77 277.19,15.95 380.35,13.52 16.94,-115.44 28.5,-943.92 -20.33,-981.06 39.68,251.94 4.47,691.01 11.97,963.7l-371.99 3.85z"/>
   <path class="fil1" d="M4025.26 3370.83c31.08,-25.84 14.96,-376.16 14.72,-418.66l626.84 0.24c-1.89,69.36 -0.76,139.21 -0.76,208.94 0,62.54 -9.11,141.71 7.58,201.18 0.76,2.67 3.37,7.22 5.1,10.82l2.38 -429.9 -650.68 -6.57 -5.17 433.95z"/>
  </g>
 </g>
</svg>
