<?xml version="1.0" encoding="UTF-8"?>
<!DOCTYPE svg PUBLIC "-//W3C//DTD SVG 1.1//EN" "http://www.w3.org/Graphics/SVG/1.1/DTD/svg11.dtd">
<!-- Creator: CorelDRAW 2021 (64-Bit) -->
<svg xmlns="http://www.w3.org/2000/svg" xml:space="preserve" width="84.6667mm" height="84.6667mm" version="1.1" style="shape-rendering:geometricPrecision; text-rendering:geometricPrecision; image-rendering:optimizeQuality; fill-rule:evenodd; clip-rule:evenodd"
viewBox="0 0 3938.22 3938.22"
 xmlns:xlink="http://www.w3.org/1999/xlink"
 xmlns:xodm="http://www.corel.com/coreldraw/odm/2003">
 <defs>
  <style type="text/css">
   <![CDATA[
    .fil1 {fill:#A61155}
    .fil0 {fill:#F1BFDA}
   ]]>
  </style>
 </defs>
 <g id="Layer_x0020_1">
  <metadata id="CorelCorpID_0Corel-Layer"/>
  <rect class="fil0" x="-0.01" y="-0" width="3938.22" height="3938.22" rx="241.77" ry="258.95"/>
  <g id="_2094665121008">
   <path class="fil1" d="M1799.94 1653.63c68.71,46.02 142.29,178.31 224.04,178.31 101.95,0 182.7,-87.01 260.62,-105.16 0.72,32.16 166.07,657.76 169.16,694.97 -35.36,0 -62.56,-5.75 -95.62,-9.54 -30.19,-3.45 -67.52,-10.92 -96.4,-13.33 -4.91,18.38 -211.91,322.42 -232.27,352.97 -24.38,36.58 -52.17,84.76 -84.54,112.07 -189.29,159.69 -455.89,12.19 -455.89,-190.71 0,-131.02 53.97,-177.12 129.85,-290.78 20.06,-30.04 32.82,-37.46 19.14,-45.11 -0.93,-0.52 -136.23,-16.16 -144.42,-16.16l-27.43 -141.73c152.74,0 99.09,-12.18 239.27,57.92 28.41,14.2 101.35,55.1 126.5,60.96 -1.92,23.11 -148.21,230.66 -167.26,257.95 -13.54,19.41 -19.01,20.3 -29.44,43.72 -23.75,53.3 -13.52,111.99 24.99,153.51 50.88,54.85 142.98,57.28 193.56,10.18 22.79,-21.22 34.4,-42.24 51.3,-67.58l190.19 -285.31c42.23,-63.33 121.5,-154.31 54.98,-243.34 -34.88,-46.68 -142.01,-89.6 -194.88,-116.03l-207.27 -103.63c-19.51,-9.76 -52.58,-29.09 -71.63,-33.53 2.94,-35.35 113.55,-218.12 123.44,-260.62zm-374.21 1485.95l-40.37 0c-53.39,-3.34 -105.49,-21.75 -202.65,-73.16 -26.69,17.88 -58.5,73.16 -96.02,73.16 -44.39,0 -77.73,-22.27 -77.73,-59.44 0,-70.86 42.21,-68.1 73.15,-114.3 -32.41,-61.25 -73.15,-125.57 -73.15,-219.46 0,-79.81 3.79,-112.56 33.23,-181.66 9.07,-21.31 19.72,-41.78 31.57,-59.87 57.3,-87.5 181.35,-179.1 273.53,-179.1 0,-49.48 -22.86,-108.05 -22.86,-146.31l-118.88 0c-55.45,0 -84.53,-85.14 -32.96,-124.41 28.51,-21.71 143.53,-12.75 197.56,-12.75 -11.97,-22.62 -18.29,-38.34 -18.29,-73.16 0,-46.46 58.58,-149.15 80.77,-193.55 31.69,-63.39 203.05,-419.63 231.15,-450.1 51.17,-55.48 141.86,-57.9 199.05,0.08l202.28 200.07c46.58,-24.65 195.07,-105.16 242.32,-105.16 82.31,0 141.74,58.43 141.74,132.59 0,82.32 -42.93,79.43 -38.67,111.66l27.69 109.63c19.03,76.15 37.49,149.99 55.78,223.12l110.65 447.15c66.58,0 172.78,22.08 222.95,69.67 72.36,68.62 101.67,119.07 101.67,227.52 0,71.43 -43.17,158.15 -100.58,196.6 21.15,31.59 100.58,82.83 100.58,123.45 0,54.49 -23.23,77.73 -77.73,77.73 -32.49,0 -93.84,-73.26 -117.73,-97.16 -37.56,-37.56 -32.82,-44.02 -68.26,-39l-481.13 54.28c-185.28,17.49 -393.18,48.44 -580.69,63.99 -81.69,6.77 -133.7,15.57 -178,17.9z"/>
   <path class="fil1" d="M1831.95 995.25l0 27.43c0,95.65 96.38,192.03 192.03,192.03l27.43 0c95.65,0 192.03,-96.38 192.03,-192.03 0,-42.79 -0.51,-62.24 -19.75,-103.71 -20.95,-45.17 -50.68,-73.62 -94.24,-97.8 -22.92,-12.72 -49.5,-20.34 -76.63,-22.53l-32.72 0c-25.19,2.05 -49.78,8.91 -71.29,20.85 -11.9,6.61 -18.64,9.15 -28.69,17.03 -48.16,37.77 -88.18,92.91 -88.18,158.72z"/>
  </g>
 </g>
</svg>
