<?xml version="1.0" encoding="UTF-8"?>
<!DOCTYPE svg PUBLIC "-//W3C//DTD SVG 1.1//EN" "http://www.w3.org/Graphics/SVG/1.1/DTD/svg11.dtd">
<!-- Creator: CorelDRAW 2021 (64-Bit) -->
<svg xmlns="http://www.w3.org/2000/svg" xml:space="preserve" width="84.6669mm" height="84.6669mm" version="1.1" style="shape-rendering:geometricPrecision; text-rendering:geometricPrecision; image-rendering:optimizeQuality; fill-rule:evenodd; clip-rule:evenodd"
viewBox="0 0 6638.84 6638.84"
 xmlns:xlink="http://www.w3.org/1999/xlink"
 xmlns:xodm="http://www.corel.com/coreldraw/odm/2003">
 <defs>
  <style type="text/css">
   <![CDATA[
    .fil1 {fill:#D600D2}
    .fil0 {fill:#FFCCFE}
   ]]>
  </style>
 </defs>
 <g id="Layer_x0020_1">
  <metadata id="CorelCorpID_0Corel-Layer"/>
  <rect class="fil0" x="-0.01" y="0" width="6638.84" height="6638.84" rx="407.55" ry="436.52"/>
  <g id="_2094701577712">
   <path class="fil1" d="M2737.67 4028.21l1082.87 0 0 1082.89 -1082.87 0 0 -1082.89zm2500.46 264.43l0 331.21c-3.25,44.21 -9.25,88.02 -19.7,132.85l-1220.7 0 0 511.9 -1417.57 0 0 -334.7 -1240.39 0 0 -1417.59 472.53 0 0 -2146.06 2323.25 0 0 413.46c61.58,-5.11 69.95,-19.67 137.83,-19.67 341,0 610.34,256.06 610.34,570.97 0,213.83 -117.37,455.21 -255.94,492.2 0,187.64 -3.3,299.52 31.11,461.09 87.84,412.42 441.39,320.87 441.39,995.87l137.83 0 0 8.47zm-3740.83 -599.12l1082.87 0 0 1082.88 -1082.87 0 0 -1082.88zm2500.43 748.16l1063.19 0 0 137.83 -1063.19 0 0 -137.83zm137.83 -1516.03c127.95,29.81 187.06,29.81 315.03,0 0,971.2 472.51,605.33 472.51,1358.52l-925.37 0c0,-512.03 45.93,-433.16 -236.24,-433.16 53.39,-100.95 63.3,-94.3 149.45,-165.55 189.87,-157.03 224.62,-502.62 224.62,-759.81zm-255.96 -531.57c0,-652.66 826.93,-535.53 826.93,-78.76 0,651.54 -826.93,534.04 -826.93,78.76zm-177.18 -39.39c0,223.03 108.76,380.49 275.64,492.23 0,701.05 -194.39,655.92 -357.03,903.04 -32.37,49.16 -35.14,101.06 -95.81,101.06l-787.55 0 0 -334.7 -767.87 0 0 -1988.53 2008.26 0c0,552.2 9.28,203.75 -181.76,507.34 -49.77,79.12 -93.88,196.64 -93.88,319.57z"/>
   <path class="fil1" d="M2383.27 2827.2l436.13 607.36c43.39,58.72 102.39,161.69 154.53,199.88 52.14,-38.19 111.14,-141.16 154.53,-199.88 51.9,-70.23 97.34,-131.13 148.85,-205.54l287.28 -421.49c-24.6,-28.3 -44.69,-51.02 -70.69,-86.83l-366.35 -519.62c-32.89,-48.23 -117.39,-174.25 -153.62,-200.8l-448.92 614.27c-53.74,78.79 -97.07,128.25 -141.74,212.66z"/>
   <path class="fil1" d="M2284.83 4126.67c49.56,0 102.37,-41.97 120.36,-78.37 26.49,-53.51 3.1,-105.76 -21.92,-157.9 -363.29,-84.64 -231.13,236.27 -98.44,236.27z"/>
   <path class="fil1" d="M2186.4 4559.8c124.64,29.04 72.22,29.04 196.87,0 150.13,-312.85 -346.37,-311.57 -196.87,0z"/>
   <path class="fil1" d="M1713.87 3890.4c-83.92,360.21 236.26,240.1 236.26,98.44 0,-134.01 -142.52,-134.83 -236.26,-98.44z"/>
   <path class="fil1" d="M1694.17 4421.99l19.7 137.81c360.21,83.92 240.1,-236.27 98.44,-236.27 -50.16,0 -118.13,42.59 -118.13,98.46z"/>
   <path class="fil1" d="M2973.93 4362.93c0,118.76 100.33,118.13 157.5,118.13 134.25,0 115.13,-236.27 -19.67,-236.27 -79.52,0 -137.83,42.86 -137.83,118.13z"/>
   <path class="fil1" d="M3367.7 4737c0,188.5 236.26,188.5 236.26,0 0,-131.49 -236.26,-131.49 -236.26,0z"/>
  </g>
 </g>
</svg>
