<?xml version="1.0" encoding="UTF-8"?>
<!DOCTYPE svg PUBLIC "-//W3C//DTD SVG 1.1//EN" "http://www.w3.org/Graphics/SVG/1.1/DTD/svg11.dtd">
<!-- Creator: CorelDRAW 2021 (64-Bit) -->
<svg xmlns="http://www.w3.org/2000/svg" xml:space="preserve" width="84.6669mm" height="84.6669mm" version="1.1" style="shape-rendering:geometricPrecision; text-rendering:geometricPrecision; image-rendering:optimizeQuality; fill-rule:evenodd; clip-rule:evenodd"
viewBox="0 0 4294.44 4294.44"
 xmlns:xlink="http://www.w3.org/1999/xlink"
 xmlns:xodm="http://www.corel.com/coreldraw/odm/2003">
 <defs>
  <style type="text/css">
   <![CDATA[
    .fil1 {fill:#199398}
    .fil0 {fill:#C6E0F7}
   ]]>
  </style>
 </defs>
 <g id="Layer_x0020_1">
  <metadata id="CorelCorpID_0Corel-Layer"/>
  <rect class="fil0" x="-0.01" y="-0" width="4294.44" height="4294.44" rx="263.63" ry="282.37"/>
  <g id="_2094646126128">
   <path class="fil1" d="M2596.88 1045.13c16.43,-55.59 224.65,-6.53 224.65,184.39l-0.03 410.08c0,37.94 -60.51,60.03 -62.54,-6.03 -0.37,-100.49 -0.05,-201.03 -0.05,-301.53 0,-106.41 14.32,-184.8 -71.69,-230.73 -34.33,-18.33 -105.03,-6.45 -90.33,-56.17zm362.1 1362.76c6.55,-388.65 0.26,-783.04 0.28,-1172.34 0.01,-103.54 4.49,-175.7 -51.18,-246.47 -37.42,-47.57 -91.57,-96.73 -182.46,-106.51 -62.02,-6.68 -753.85,-1.73 -878.09,-1.73 -178.9,0 -367.21,-37.91 -467.49,116.41 -52.06,80.1 -43.87,136.87 -43.87,244.32 0.01,386.27 6.6,778.27 -0.21,1166.35l1623.02 -0.04z"/>
   <path class="fil1" d="M3026.39 3180.64c85.14,-1.56 144.67,7.28 220.47,-27.18 214.13,-97.36 168.04,-343.53 168.04,-567.07 0,-164.83 -0.12,-329.66 0,-494.5 0.06,-87.48 -5.72,-142.14 -51.83,-194.84 -80.85,-92.38 -249.11,-87.78 -318.83,41.2 -33.07,61.18 -22.74,150.6 -22.74,226.01 0,162.82 -0.02,325.65 0,488.47 0.01,134.24 16.72,124.13 -118.63,124.11l-1471.45 0c-167.78,0 -159.28,15.35 -158.75,-81.88 0.88,-162.74 0.04,-325.72 0.04,-488.49 0,-113.34 25.37,-295.03 -150.49,-336.24 -79.42,-18.62 -153.66,17.64 -189.02,55.01 -47.34,50.02 -53.6,107.7 -53.53,196.8 0.12,162.83 0.01,325.65 0.01,488.47 0,143.39 -24.36,340.07 42.79,448.71 88.85,143.75 237.05,119.37 367.18,121.38 22.81,84.25 -30.17,242.14 38.63,236.95 58.27,-4.4 20.27,-187.24 33.01,-237.27l1593.64 0.12c24.08,95.62 -38.63,279.01 62.08,226.56 16.95,-58.81 -7.16,-172.47 9.37,-226.32z"/>
   <polygon class="fil1" points="1336.7,2713.74 2959.2,2713.54 2958.49,2471.06 1336.19,2472.93 "/>
   <path class="fil1" d="M2758.96 1633.57c2.03,66.06 62.54,43.97 62.54,6.03l0.03 -410.08c0,-190.92 -208.22,-239.97 -224.65,-184.39 -14.7,49.73 56,37.84 90.33,56.17 86.01,45.93 71.69,124.32 71.69,230.73 0,100.5 -0.31,201.05 0.05,301.53z"/>
  </g>
 </g>
</svg>
