<?xml version="1.0" encoding="UTF-8"?>
<!DOCTYPE svg PUBLIC "-//W3C//DTD SVG 1.1//EN" "http://www.w3.org/Graphics/SVG/1.1/DTD/svg11.dtd">
<!-- Creator: CorelDRAW 2021 (64-Bit) -->
<svg xmlns="http://www.w3.org/2000/svg" xml:space="preserve" width="84.6666mm" height="84.6665mm" version="1.1" style="shape-rendering:geometricPrecision; text-rendering:geometricPrecision; image-rendering:optimizeQuality; fill-rule:evenodd; clip-rule:evenodd"
viewBox="0 0 3165.75 3165.75"
 xmlns:xlink="http://www.w3.org/1999/xlink"
 xmlns:xodm="http://www.corel.com/coreldraw/odm/2003">
 <defs>
  <style type="text/css">
   <![CDATA[
    .fil1 {fill:#DB9600}
    .fil0 {fill:#FDD47C}
   ]]>
  </style>
 </defs>
 <g id="Layer_x0020_1">
  <metadata id="CorelCorpID_0Corel-Layer"/>
  <rect class="fil0" x="-0.01" y="0" width="3165.75" height="3165.75" rx="194.34" ry="208.16"/>
  <g id="_2094705841952">
   <path class="fil1" d="M2256.98 2130.1c-33.16,104.19 -153.29,169.66 -266.87,169.93 -60.68,0.15 -130.21,-20.94 -171.53,-48.88 -34.67,-23.43 -80.93,-72.1 -97.31,-122.08 48.93,2.46 75.12,29.78 123.66,42.32 84.47,21.82 208.83,22.35 292.89,-1.1 39.45,-11 81.96,-43.09 119.16,-40.19zm-152.47 -347.34c71.3,-87.81 253.96,-101.13 343.18,0 -29.95,37.19 -100.14,72.16 -171.41,72.13 -61.06,-0.03 -139.95,-29.61 -171.76,-72.13zm-573.81 0c10.73,-17.01 46.82,-38.6 72.54,-50.52 62.53,-28.97 138.51,-28.05 200.48,0.87 23.01,10.74 60.31,33.13 70.23,49.64 -19.72,35.51 -109.45,71.77 -169.95,72.1 -35.25,0.2 -71.5,-7.78 -100.97,-21.35 -15.79,-7.27 -24.85,-11.93 -39.04,-21.72 -13.3,-9.16 -26.42,-17.13 -33.28,-29.04zm-151.26 -382.75c16.58,188.89 42.73,380.36 62.33,570.09 16.58,160.53 56.12,274.63 164.57,386 63.1,64.81 151.02,119.29 251.24,145.61 254.8,66.92 509.65,-69.33 618.25,-290.47 41.41,-84.32 51.91,-153.65 62.61,-255.83l46.43 -425.36c9.09,-87.02 35.76,-158.47 -9.98,-199.79 -23.5,-21.23 -152.99,-40.94 -187.75,-48.26 -188.13,-39.62 -349.56,-91.79 -548.14,-50.98l-391.5 80.5c-47.74,9.53 -72.93,33.02 -68.06,88.5z"/>
   <path class="fil1" d="M820.25 1371.39c6.89,-24.63 35.77,-60.4 48.81,-72.97 75.1,-72.41 173.96,-87.46 272.91,-49.13 -13.56,46.02 -76.11,103.74 -120.41,122.85 -54,23.28 -149.95,33.94 -201.31,-0.75zm545.46 -179.48c5.14,-6.52 6.13,-10.54 12.75,-17.25 38.73,-39.26 74.26,-64.39 134.04,-76.7 105.75,-21.77 151.93,25.4 193.75,39.36 -32.84,83.16 -226.19,153.12 -340.54,54.59zm37.75 768.03c0.49,-0.98 0.92,-3.59 1.04,-3.1 0.13,0.49 0.78,-2.29 0.92,-3.13 5.61,-32.6 -27.39,-243.71 -30.43,-279.68 -69.31,11.58 -138.59,47.42 -189.5,87.49 -18.71,14.73 -26.23,28.88 -59.23,36.33 4.62,-33.36 14.23,-61.61 28.16,-88.89 7.7,-15.08 12.87,-22.18 22.08,-35.14 13.17,-18.54 40.42,-45.3 59.66,-58.38 29.95,-20.36 85.74,-45.51 122.05,-53.04 2.98,-15.98 -12.31,-140.24 -8.07,-198.23 2.49,-34.09 19.01,-45.22 47.18,-56.08 85.54,-32.99 401.38,-91.79 425.87,-104.82 -8.84,-96.95 -47.02,-325.28 -63.16,-435.59 -14.57,-99.52 -14.59,-125.37 -124.65,-119.73 -79.79,4.09 -159.49,8.15 -239.12,12.4 -179.71,9.59 -265.03,5.87 -416.54,79.7 -113.02,55.08 -224.23,110.39 -336.15,164.74 -33.03,16.04 -57.35,22.35 -71.15,50.6 -17.14,35.09 -1.46,63.22 10.4,95.48l206.8 544.47c98.06,253.11 336.13,408.32 613.85,364.61z"/>
  </g>
 </g>
</svg>
