<?xml version="1.0" encoding="UTF-8"?>
<!DOCTYPE svg PUBLIC "-//W3C//DTD SVG 1.1//EN" "http://www.w3.org/Graphics/SVG/1.1/DTD/svg11.dtd">
<!-- Creator: CorelDRAW 2021 (64-Bit) -->
<svg xmlns="http://www.w3.org/2000/svg" xml:space="preserve" width="84.6666mm" height="84.6665mm" version="1.1" style="shape-rendering:geometricPrecision; text-rendering:geometricPrecision; image-rendering:optimizeQuality; fill-rule:evenodd; clip-rule:evenodd"
viewBox="0 0 3165.75 3165.75"
 xmlns:xlink="http://www.w3.org/1999/xlink"
 xmlns:xodm="http://www.corel.com/coreldraw/odm/2003">
 <defs>
  <style type="text/css">
   <![CDATA[
    .fil1 {fill:#DB9600}
    .fil0 {fill:#FDD47C}
   ]]>
  </style>
 </defs>
 <g id="Layer_x0020_1">
  <metadata id="CorelCorpID_0Corel-Layer"/>
  <rect class="fil0" x="-0.01" y="0" width="3165.75" height="3165.75" rx="194.34" ry="208.16"/>
  <g id="_2094649961168">
   <path class="fil1" d="M873.54 974.66l0 519.58c0,39.94 105.36,-16.09 195.49,30.69 20.47,10.63 31.61,24.89 49.03,36.55 51.49,-76.9 254.14,-76.9 305.64,0 83.45,-55.88 56.07,-55.01 195.61,-55.01 53.23,0 94.8,23.14 116.15,55.01 83.45,-55.88 56.07,-55.01 195.61,-55.01 55.39,0 93.84,21.72 116.14,55.01 94.66,-63.38 76.43,-55.01 207.84,-55.01 19.13,0 36.68,15.92 36.68,-12.22l0 -519.58c0,-14.09 -4.25,-18.34 -18.34,-18.34l-1381.49 0c-14.09,0 -18.34,4.26 -18.34,18.34z"/>
   <path class="fil1" d="M677.93 2166.64l0 42.79 244.51 0c0,-156.59 -23.18,-158.94 -152.81,-158.94 -69.19,0 -91.69,46.33 -91.69,116.14z"/>
   <path class="fil1" d="M2242.8 2166.64l0 42.79 244.51 0c0,-156.59 -23.18,-158.94 -152.82,-158.94 -69.19,0 -91.69,46.33 -91.69,116.14z"/>
   <path class="fil1" d="M1307.54 2123.85l0 85.58 238.4 0c0,-145.4 -3.82,-158.94 -152.82,-158.94 -49.05,0 -85.58,37.4 -85.58,73.35z"/>
   <path class="fil1" d="M1619.3 2136.08l0 73.35 238.4 0c0,-147.53 -2.16,-158.94 -152.82,-158.94 -48.91,0 -85.58,36.67 -85.58,85.58z"/>
   <path class="fil1" d="M1931.05 2142.19l0 67.25 238.4 0c0,-146.62 5,-158.94 -158.94,-158.94 -44.01,0 -79.46,44.44 -79.46,91.69z"/>
   <path class="fil1" d="M995.79 2123.85l0 85.58 238.4 0c0,-155.57 -19.2,-158.94 -152.82,-158.94 -45.85,0 -85.58,29.8 -85.58,73.35z"/>
   <path class="fil1" d="M2401.73 1977.15c56.77,0 84.25,16.16 114.61,50.43 2.57,2.9 13.2,16.49 13.64,16.93 8.39,8.51 -0.28,12.1 18.46,12.1l91.69 0c0,-97.86 15.12,-165.04 -122.25,-165.04 -70.36,0 -110.73,20.43 -116.15,85.58z"/>
   <path class="fil1" d="M525.11 1971.04l0 85.58c168.92,0 70.8,1.33 149.17,-52.55 22.43,-15.43 53.86,-26.91 89.23,-26.91 -10.37,-124.59 -184.33,-82.01 -203.17,-68.69 -15.43,10.92 -35.23,38 -35.23,62.57z"/>
   <path class="fil1" d="M2089.98 1665.4c80.41,0 70.48,18.32 116.15,48.9 34.5,-9.21 37.43,-48.9 122.25,-48.9 -2.08,-93.42 -93.01,-85.58 -146.71,-85.58 -53.75,0 -90.5,32.09 -91.69,85.58z"/>
   <path class="fil1" d="M836.86 1977.15c57.94,0 92.95,20.37 116.15,55.01 35.58,-23.83 53.35,-55.01 122.25,-55.01 -1.54,-68.99 -54.6,-85.58 -122.25,-85.58 -70.36,0 -110.73,20.43 -116.15,85.58z"/>
   <path class="fil1" d="M1778.23 1977.15c54.03,0 94.76,23.07 116.15,55.01 30.62,-20.51 48.48,-55.01 122.25,-55.01 -14.43,-61.93 -33.26,-85.58 -122.25,-85.58 -66.54,0 -116.15,18.81 -116.15,85.58z"/>
   <path class="fil1" d="M2089.98 1977.15c77.6,0 88.55,32.44 122.25,55.01 21.4,-31.93 62.12,-55.01 116.15,-55.01 -5.83,-70.09 -50.84,-85.58 -122.25,-85.58 -66.66,0 -114.71,21.17 -116.15,85.58z"/>
   <path class="fil1" d="M836.86 1665.4c31.43,0 43.25,-0.52 71.58,14 9.75,4.99 14.15,7.4 22.3,14.38 16.87,14.45 9.4,1.85 16.16,20.52 46.96,-3.91 24.76,-48.9 128.37,-48.9 -2.1,-94.26 -89.45,-85.58 -146.71,-85.58 -52.16,0 -90.56,34.55 -91.69,85.58z"/>
   <path class="fil1" d="M1778.23 1665.4c71.05,0 81.73,25.85 116.15,48.9 17.6,-11.78 28.78,-23.66 50.76,-34.81 11.08,-5.62 17.68,-8.47 31.57,-11.3 0.03,-0.01 78.67,1.44 14.4,-62.84 -34.7,-34.7 -212.88,-56.97 -212.88,60.05z"/>
   <path class="fil1" d="M1148.61 1977.15c29.46,0 50.6,3.58 71.6,13.98 17.44,8.63 39.48,22.09 44.54,41.03 35.58,-23.83 53.35,-55.01 122.26,-55.01 0,-114.23 -169.13,-90.03 -202.27,-67.79 -26.97,18.12 -28.03,33 -36.13,67.79z"/>
   <path class="fil1" d="M1270.87 1714.3c33.95,-22.74 44.16,-48.9 116.15,-48.9 0,-117.9 -177.1,-92.52 -209.76,-63.05 -10.33,9.33 -32.43,41.35 -25.13,54.52 10.87,19.59 18.67,-0.64 63.89,20.59 23.02,10.81 35.75,24.05 54.85,36.84z"/>
   <path class="fil1" d="M1466.47 1977.15c62.35,0 80.07,24.74 116.15,48.9 32.98,-22.09 61.3,-48.9 116.15,-48.9 0,-69 -48.18,-85.58 -116.15,-85.58 -67.97,0 -116.15,16.58 -116.15,85.58z"/>
   <path class="fil1" d="M1466.47 1640.95l0 24.45c71.05,0 81.73,25.85 116.15,48.9 20.33,-13.62 19.09,-19.29 46.6,-32.87 24.52,-12.11 34.99,-16.03 69.55,-16.03 0,-126.11 -183.84,-81.02 -199.53,-71.16 -10.45,6.56 -32.77,33.71 -32.77,46.7z"/>
   <path class="fil1" d="M2248.91 1818.22c75.28,6.27 86.72,35.32 116.15,55.01 17.41,-11.66 28.56,-25.93 49.03,-36.55 14.76,-7.66 46.47,-16.75 67.12,-18.47 0,-94.74 -97.59,-79.46 -158.94,-79.46 -19.94,0 -38.94,11.99 -50.78,22.57 -18.3,16.37 -22.58,24.49 -22.58,56.89z"/>
   <path class="fil1" d="M1307.54 1818.22c78.11,6.5 85.85,30.63 122.25,55.01 20.24,-30.22 66.97,-53.92 116.15,-55.01 -7.84,-94.22 -95.88,-79.46 -165.05,-79.46 -40.72,0 -72.41,36.93 -73.35,79.46z"/>
   <path class="fil1" d="M995.79 1818.22c31.3,2.61 100.65,19.89 110.03,55.01 28.79,-7.69 49.55,-53.26 128.37,-55.01 -21.8,-93.56 -72.14,-79.46 -165.04,-79.46 -40.72,0 -72.41,36.93 -73.36,79.46z"/>
   <path class="fil1" d="M1931.05 1818.22c80.86,1.8 102.29,48.05 128.37,55.01 5.1,-19.13 -0.75,-8.69 15.35,-21.33 23.04,-18.09 62.39,-31 94.68,-33.69 -2.11,-94.4 -95.07,-79.46 -152.82,-79.46 -55.37,0 -75.11,34.54 -85.58,79.46z"/>
   <path class="fil1" d="M1619.3 1818.22c49.18,1.1 95.91,24.8 116.15,55.01 35.86,-24.01 44.18,-48.52 122.25,-55.01 -2.63,-117.78 -189.85,-80.98 -212.32,-59.49 -13.74,13.15 -24.12,35.9 -26.08,59.49z"/>
   <path class="fil1" d="M684.04 1818.22c75.27,6.27 86.72,35.32 116.14,55.01 21.17,-14.17 22.14,-23.56 48.51,-37.07 17.96,-9.2 42.18,-15.83 67.64,-17.95 0,-30.17 -3.62,-38.51 -19.41,-53.94 -39.09,-38.19 -153.03,-36.27 -190.3,-2.95 -18.3,16.37 -22.58,24.49 -22.58,56.89z"/>
  </g>
 </g>
</svg>
