<?xml version="1.0" encoding="UTF-8"?>
<!DOCTYPE svg PUBLIC "-//W3C//DTD SVG 1.1//EN" "http://www.w3.org/Graphics/SVG/1.1/DTD/svg11.dtd">
<!-- Creator: CorelDRAW 2021 (64-Bit) -->
<svg xmlns="http://www.w3.org/2000/svg" xml:space="preserve" width="84.6666mm" height="84.6666mm" version="1.1" style="shape-rendering:geometricPrecision; text-rendering:geometricPrecision; image-rendering:optimizeQuality; fill-rule:evenodd; clip-rule:evenodd"
viewBox="0 0 4272.69 4272.69"
 xmlns:xlink="http://www.w3.org/1999/xlink"
 xmlns:xodm="http://www.corel.com/coreldraw/odm/2003">
 <defs>
  <style type="text/css">
   <![CDATA[
    .fil1 {fill:#439923}
    .fil0 {fill:#AAD29D}
   ]]>
  </style>
 </defs>
 <g id="Layer_x0020_1">
  <metadata id="CorelCorpID_0Corel-Layer"/>
  <rect class="fil0" x="-0" y="0" width="4272.69" height="4272.69" rx="262.3" ry="280.94"/>
  <g id="_2094646124016">
   <path class="fil1" d="M1379.47 1131.74c6.38,27.36 33.88,74.44 39.59,98.97l-267.54 -0.3c-20.81,1.19 -17.02,1.91 -29.39,10.2 3.49,41.92 153.41,139.89 153.41,173.21l0 113.82c0,18.59 -54.44,34.19 -54.44,89.08 0,30.57 33.26,86.32 46.19,112.17 19.59,39.18 118.46,243.6 135.92,264.95 24.79,30.31 55.7,28.68 85.13,28.68 40.69,0 92.4,-77.9 124.86,-117.63 16.13,-19.75 93.68,-122.04 112.68,-134.76l-0.13 1514.45c-0.5,76.02 44.49,113.7 93.71,118.65l22.51 0c51.92,-5.07 101.64,-45.13 101.64,-113.82l0 -861.09 44.54 0 0 875.94c0,57.28 49.56,95.2 101.81,98.97l17.09 0c40.01,-2.93 78.62,-26.79 94.84,-78.24 11.31,-35.87 4,-1273.34 4,-1406.39 0,-29.69 0.05,-59.39 0,-89.09 -0.04,-24.73 -8.49,-69.34 15.7,-71.92 26.07,-2.78 19.11,35.01 18.95,62.01l1.15 617.45c6.85,51.73 29.56,86.13 84.91,93.44 22.75,3.01 50.79,-8.62 65.61,-19.77 13.27,-9.98 31.43,-37.11 31.43,-57.65l0 -702.73c0,-25.61 -15.63,-56.99 -24.65,-74.33 -34.46,-66.24 -108.15,-113.73 -193.1,-113.73l-450.34 0c-74.33,0 -122.18,33.72 -159.7,72.89l-107.53 130.01c-2.57,-11.05 -95.98,-199.1 -110.26,-211.41 -33.3,-28.69 -23.36,-2.42 -23.36,-139.95 0,-14.96 35.04,-42.46 45.78,-53.2 17.99,-17.99 32.82,-37.08 53.2,-50.72 10.9,22.7 26.04,107.88 89.26,19.98 43.76,-60.84 30.8,-150.35 -38.91,-199 -26.02,-18.15 -86.4,-33.22 -113.24,-12.55l-9.27 10.53c-0.45,0.57 -1.3,1.98 -2.07,2.88z"/>
   <path class="fil1" d="M2874.01 953.58l98.97 341.47 -152.17 159.6c-20.62,20.62 -27.97,35.69 -59.38,44.56 -33.74,9.53 -297.43,90.66 -322.91,92.77 13.54,58.12 59.39,36.16 59.38,217.75 0,48.87 -4,385.44 3.68,416.97 8.43,34.57 20.49,73.77 31.69,107.02 12.71,37.74 6.85,36.25 -19.1,100.98l-118.35 302.3c-19.81,55.52 -22.73,45.76 -16.84,112.1 10.71,120.46 34.29,255.57 44.55,376.11 3.14,36.88 7.66,89.93 21.44,117.13 7.03,13.88 17.8,30.77 30.09,39.2 18.64,12.78 38.58,19.79 58.16,21.69l22.13 0c44.5,-4.4 83.55,-35.26 95.86,-84.36 12.33,-49.14 -49.38,-411.55 -49.38,-489.7l157.27 -411.84c9.43,-18.61 29.42,-22.96 60.48,-23.65l0 895.73c0,155.81 222.7,145.65 222.7,4.95l0 -653.24c0,-61.18 -4.97,-103.69 -4.95,-163.31 0.05,-187.75 10.42,-131.9 -37.82,-293.76 -25.65,-86.06 -52.6,-170.34 -76,-255.56 -10.13,-36.89 -74.23,-238.77 -74.23,-257.34 0,-11.52 83.44,-88.55 97.51,-105.39 47.28,-56.55 149.15,-152.61 177.65,-188.56 48.18,-60.76 19.91,-85.64 -6.88,-182.19 -11.61,-41.82 -23.68,-81.29 -36.3,-122.06 -39.62,-127.93 -33.88,-203.51 -133,-203.51 -38.76,0 -74.23,42.15 -74.23,84.12z"/>
   <path class="fil1" d="M2295 1295.05c0,46.22 -2.12,54.38 19.67,99.11 17.99,36.92 47.37,66.21 84.13,84.12 169.07,82.42 332.44,-94.03 260.86,-246.02 -22.17,-47.09 -29.97,-51.31 -61.53,-77.04 -116.07,-94.63 -303.13,-1.28 -303.13,139.83z"/>
   <path class="fil1" d="M1780.32 1295.05c0,59.48 1.3,103.15 53,154.85 94.3,94.31 260.7,60.17 308.93,-65.11 74.11,-192.48 -180.12,-353.7 -320.96,-187.35 -15.83,18.7 -40.97,65.61 -40.97,97.6z"/>
  </g>
 </g>
</svg>
