<?xml version="1.0" encoding="UTF-8"?>
<!DOCTYPE svg PUBLIC "-//W3C//DTD SVG 1.1//EN" "http://www.w3.org/Graphics/SVG/1.1/DTD/svg11.dtd">
<!-- Creator: CorelDRAW 2021 (64-Bit) -->
<svg xmlns="http://www.w3.org/2000/svg" xml:space="preserve" width="84.6667mm" height="84.6667mm" version="1.1" style="shape-rendering:geometricPrecision; text-rendering:geometricPrecision; image-rendering:optimizeQuality; fill-rule:evenodd; clip-rule:evenodd"
viewBox="0 0 7605.14 7605.14"
 xmlns:xlink="http://www.w3.org/1999/xlink"
 xmlns:xodm="http://www.corel.com/coreldraw/odm/2003">
 <defs>
  <style type="text/css">
   <![CDATA[
    .fil1 {fill:#A61155}
    .fil0 {fill:#F1BFDA}
   ]]>
  </style>
 </defs>
 <g id="Layer_x0020_1">
  <metadata id="CorelCorpID_0Corel-Layer"/>
  <g id="_2094288921584">
   <rect class="fil0" x="-0.01" y="0" width="7605.14" height="7605.14" rx="466.87" ry="500.05"/>
   <g>
    <path class="fil1" d="M1255.84 5343.82l5093.47 -4.69 -0.02 -471.62c-819.27,-44.28 -696.25,-182.12 -1244.3,-301.63 -456.68,-99.59 -913.63,-44.29 -1310.1,119.54 -407.29,168.28 -823.61,251.54 -1299.98,127.46 -417.55,-108.74 -590.75,-315.19 -1239.06,-297.73l0 828.68z"/>
    <path class="fil1" d="M3310.15 3598.04c-92.15,149.7 -233.71,281.74 -318.57,391.33 -77.46,100.03 -78.03,65.16 -114.17,152.58 442.38,7.99 587.12,-59.77 945.33,-199.72 378.62,-147.9 559,-127.03 979.24,-146.43 -64.44,-172.27 -230.98,-365.26 -330.59,-479.62 -50.08,-57.51 -352.93,-319.81 -467.37,-348.31 -61.02,-15.21 -2111.12,164.6 -2214.31,218.89 -220.81,116.18 -187.36,420.56 15.4,518.01 134.31,64.57 1258.6,-89.28 1505.04,-106.73z"/>
    <path class="fil1" d="M5136.47 2280.2c-847.94,175.74 -626.49,1522.97 288.53,1337.33 863.63,-175.23 626.07,-1526.91 -288.53,-1337.33z"/>
    <path class="fil1" d="M1269.96 3994.61l2.76 261.87c258.03,6.09 418.37,19.27 653.02,101.01 196.28,68.37 352.15,151.55 571.81,200.61 1173.41,262.03 1499.86,-514.03 2593.35,-252.57 414.17,99.06 571.42,309.62 1237.58,295.59l7.19 -268.49c-624.03,-1.4 -729.42,-192.34 -1225.11,-298.04 -1206.13,-257.16 -1480.28,512.83 -2593.77,252.3 -194.26,-45.47 -364.32,-136.57 -551.55,-199.62 -217.98,-73.4 -455.54,-102.78 -695.29,-92.67z"/>
   </g>
  </g>
 </g>
</svg>
