<?xml version="1.0" encoding="UTF-8"?>
<!DOCTYPE svg PUBLIC "-//W3C//DTD SVG 1.1//EN" "http://www.w3.org/Graphics/SVG/1.1/DTD/svg11.dtd">
<!-- Creator: CorelDRAW 2021 (64-Bit) -->
<svg xmlns="http://www.w3.org/2000/svg" xml:space="preserve" width="84.6666mm" height="84.6666mm" version="1.1" style="shape-rendering:geometricPrecision; text-rendering:geometricPrecision; image-rendering:optimizeQuality; fill-rule:evenodd; clip-rule:evenodd"
viewBox="0 0 4272.69 4272.69"
 xmlns:xlink="http://www.w3.org/1999/xlink"
 xmlns:xodm="http://www.corel.com/coreldraw/odm/2003">
 <defs>
  <style type="text/css">
   <![CDATA[
    .fil1 {fill:#439923}
    .fil0 {fill:#AAD29D}
   ]]>
  </style>
 </defs>
 <g id="Layer_x0020_1">
  <metadata id="CorelCorpID_0Corel-Layer"/>
  <rect class="fil0" x="-0" y="0" width="4272.69" height="4272.69" rx="262.3" ry="280.94"/>
  <g id="_2094662705904">
   <path class="fil1" d="M2513.27 2618.58l334.58 0.19 -0.99 505.24 -334.3 -0.58 0.71 -504.86zm-544.41 0l333.51 -0.25 -1.07 505.66 -333.54 0.09 1.11 -505.51zm-211.16 5.62l-0.08 493.67c-6.25,8 9.02,6.38 -10.45,6.78l-325.48 -0.43 0.74 -506.3 324.75 0c18.63,0.52 5.07,-1.07 10.53,6.28zm-420.59 -157.52c-4.46,-30.63 -4.79,-326.66 1.49,-343.97l1596.11 0.55c5.13,13.79 5.49,315.57 1.43,344.8l-1599.03 -1.37zm-92.52 703.57l1785.28 -0.02 -1.15 -1165.96 -1785.33 0.17 1.2 1165.8z"/>
   <path class="fil1" d="M1103.96 1366.35l2065.34 -0.02c3.07,-27.08 3.16,-133.71 -1.89,-157.9 -9.22,-44.22 -39.44,-76.41 -71.69,-93.01 -49.8,-25.63 -239.5,-14.82 -308.81,-14.82 -433.52,0 -867.05,0 -1300.57,0 -69.42,0 -259,-10.79 -308.81,14.81 -31.18,16.02 -61.76,48.13 -71.16,90 -5.55,24.7 -5.57,133.14 -2.42,160.93z"/>
   <path class="fil1" d="M794.36 2393.97l403.72 -0.12 -1.39 293.85 -403.46 -0.2 1.12 -293.53zm-87.9 775.05l511.83 0.68 -0.05 -913.83 -510.8 -0.11 -0.99 913.26z"/>
   <path class="fil1" d="M3076.68 2393.96l403.36 0.08 -1.14 293.63 -403.71 0.13 1.49 -293.85zm489.55 774.32l-1.02 -909.04 -511.99 -0.97 0.4 911.25 512.61 -1.23z"/>
   <path class="fil1" d="M1244.57 1980.45l1785.2 -0.14 -0.5 -140.73c-41.67,-4.02 -61.48,-11.02 -90.33,-31.37 -40.97,-28.89 -33.98,-42.6 -55.56,-66.49 -23.89,33.87 -22.64,44.95 -57.13,68.43 -25.04,17.05 -57.88,30.26 -96.61,29.09 -93.05,-2.82 -116.36,-59.04 -144.97,-99.19 -17.31,31.86 -30.59,51.56 -55.7,69.38 -56.75,40.27 -129.44,39.59 -187.43,-0.55 -31.68,-21.93 -37.83,-42.72 -54.85,-67.1 -9.71,10.36 -17.95,27.92 -25.86,38.93 -42.2,58.73 -150.13,82.38 -220.64,25.82 -28.35,-22.74 -30.26,-31.24 -52.57,-66.34 -9.46,13.82 -14.56,27.78 -24.4,39.54 -54.77,65.49 -151.01,80.36 -220.43,27.62 -36.2,-27.49 -37.43,-44 -53.82,-67.1 -21.64,35.18 -25.69,45.21 -54.72,67.71 -67.06,51.95 -169.13,36.43 -220.1,-29.23l-18.04 -28.52c-6.36,-9.35 -1.97,-3.94 -8.12,-9.26 -18.88,53.82 -69.36,91.51 -144.61,98.61l1.18 140.89z"/>
   <path class="fil1" d="M2274.18 1390.24l-273.78 -0.82c-3.96,23.48 -1.94,240.88 -1.55,281.39 1.86,195.19 274.08,190.26 276.05,3.67l-0.72 -284.24z"/>
   <path class="fil1" d="M2297.87 1674.49c3.1,189.77 273.66,188.54 275.95,-3.66 0.48,-40.6 2.26,-256.88 -1.37,-281.38l-273.74 0.33 -0.84 284.71z"/>
   <path class="fil1" d="M2596.28 1674.42c3.82,188.02 274.32,190.28 275.92,-3.55l-0.79 -281.39 -273.92 -0.23 -1.21 285.17z"/>
   <path class="fil1" d="M1378.05 1389.73l-274.01 -0.29 -1.15 281.4c2.2,194.2 273.74,191.06 275.92,3.69l-0.76 -284.8z"/>
   <path class="fil1" d="M1975.25 1389.54l-273.81 -0.09 -1.06 281.38c1.34,134.48 145.7,190.7 234.11,105.1 29.55,-28.61 40.92,-57.96 41.78,-101.48l-1.02 -284.91z"/>
   <path class="fil1" d="M1403.75 1693.62c0.32,66.18 67.2,122.54 136.13,122.64 67.46,0.1 138.09,-60.29 135.18,-124.2l0.47 -301.53 -272.36 -0.77 0.58 303.86z"/>
   <path class="fil1" d="M2896.98 1694.02c1.48,65.81 66.74,122.27 136.4,122.21 66.87,-0.06 139.04,-60.34 134.93,-124.53l0.32 -301.17 -272.18 -0.57 0.52 304.06z"/>
   <polygon class="fil1" points="707.22,2233.15 1219.83,2233.3 1219.39,2103.11 707.47,2103.46 "/>
   <polygon class="fil1" points="3052.22,2233.11 3565.88,2232.83 3565.61,2103.12 3052.53,2104.26 "/>
   <path class="fil1" d="M1338.95 2126.01l1595.49 -0.22 0.01 339.27 -1595.63 0.29 0.14 -339.34zm-1.84 340.67l1599.03 1.37c4.06,-29.22 3.7,-331.01 -1.43,-344.8l-1596.11 -0.55c-6.29,17.31 -5.95,313.34 -1.49,343.97z"/>
   <path class="fil1" d="M3566.23 3168.27l-512.61 1.23 -0.4 -911.25 511.99 0.97c-6.23,-6.49 2.53,-4.76 -31.53,-4.5 -128.77,0.98 -387.54,-6.16 -480.14,0.52 -3.3,9.14 -8.31,865.76 -1.54,915.49 31.61,4.34 403.25,0.43 485.26,1.22 19.78,0.19 19.75,2.04 28.97,-3.69z"/>
   <path class="fil1" d="M706.45 3169.02l15 4.4c4.51,0.28 13.11,-0.29 18.14,-0.32 87.02,-0.61 461.04,4.97 480.68,-3.42 6.07,-66.65 0.71,-160.82 0.71,-230.48 0,-39.43 4.57,-666.7 -2.74,-683.34l0.05 913.83 -511.83 -0.68z"/>
   <path class="fil1" d="M1757.62 3117.88c-26.91,7.73 -278.49,0.76 -333.07,2.91l-0.22 -499.23c53.65,1.58 306.15,-4.03 333.37,2.65 -5.46,-7.36 8.1,-5.76 -10.53,-6.28l-324.75 0 -0.74 506.3 325.48 0.43c19.47,-0.39 4.2,1.23 10.45,-6.78z"/>
   <path class="fil1" d="M2896.98 1694.02l-0.52 -304.06 272.18 0.57 -0.32 301.17c8.24,-14.02 5.78,-266.11 2.97,-301.6 -16.67,-4.58 -251.5,-4.36 -276.69,-1.03 -3.42,37.23 -5.17,285.05 2.39,304.95z"/>
   <path class="fil1" d="M1403.75 1693.62l-0.58 -303.86 272.36 0.77 -0.47 301.53c8.84,-15.98 5.78,-265.16 2.93,-302.15 -18.89,-4.47 -251.26,-4.2 -276.73,-0.79 -3.18,35.35 -4.47,287.82 2.49,304.5z"/>
   <path class="fil1" d="M2562.4 2848.76c-32.26,9.03 -18.74,52.83 11.51,45.17 31.15,-7.88 18.26,-53.5 -11.51,-45.17z"/>
   <path class="fil1" d="M2044.1 2858.89c-8.26,-5.32 -14.34,-13.15 -27.13,-10.64 -11.33,2.22 -18.84,11.14 -19.03,23.12 -0.19,12.63 8.01,20.7 19.13,22.87 12.72,2.48 18.72,-5.25 27.84,-10.49l-0.81 -24.86z"/>
   <path class="fil1" d="M1496.85 2882.03c15.32,-28.58 -27.63,-45.34 -40.8,-22.6 -16.19,27.95 26.14,49.96 40.8,22.6z"/>
  </g>
 </g>
</svg>
