<?xml version="1.0" encoding="UTF-8"?>
<!DOCTYPE svg PUBLIC "-//W3C//DTD SVG 1.1//EN" "http://www.w3.org/Graphics/SVG/1.1/DTD/svg11.dtd">
<!-- Creator: CorelDRAW 2021 (64-Bit) -->
<svg xmlns="http://www.w3.org/2000/svg" xml:space="preserve" width="84.6667mm" height="84.6667mm" version="1.1" style="shape-rendering:geometricPrecision; text-rendering:geometricPrecision; image-rendering:optimizeQuality; fill-rule:evenodd; clip-rule:evenodd"
viewBox="0 0 5259.57 5259.57"
 xmlns:xlink="http://www.w3.org/1999/xlink"
 xmlns:xodm="http://www.corel.com/coreldraw/odm/2003">
 <defs>
  <style type="text/css">
   <![CDATA[
    .fil1 {fill:#199398}
    .fil0 {fill:#C6E0F7}
   ]]>
  </style>
 </defs>
 <g id="Layer_x0020_1">
  <metadata id="CorelCorpID_0Corel-Layer"/>
  <rect class="fil0" x="-0.01" y="0" width="5259.57" height="5259.57" rx="322.88" ry="345.83"/>
  <g id="_2094641459632">
   <path class="fil1" d="M2049.77 3381.2c20.48,212.37 146.75,355.88 280.85,434.67 172.52,101.37 420.66,73.27 642.85,73.27 126.16,0 636.04,6.67 716.65,-0.77 88.67,-8.19 153.69,-117.61 61,-209.56 -60.72,-60.22 -117.73,-117.87 -178.01,-178.75l-359.86 -358.61c-118.14,-119.11 -237.71,-267.37 -387.47,-331.14 -406.4,-173.03 -815.06,165.94 -776.01,570.89z"/>
   <path class="fil1" d="M1291.32 1505.15c141.82,-39.47 196.3,179.24 54.62,213.67 -140.01,34.02 -194.05,-174.87 -54.62,-213.67zm3 -132.5c-189.8,29.1 -317.7,148.95 -381.61,294.73 -28.58,65.15 -3.1,72.41 31,106.51l210.58 210.61c20.63,21.05 22.07,25.95 61.71,22.16 131.61,-12.57 105.9,144.46 105.9,224.95l0.65 847.4c5.72,30.36 29.84,28.28 44.83,9.42 65.38,-82.26 124.45,-138.73 242.48,-183.89 39.83,-15.24 89.43,-27.3 136.02,-31.95 156.15,-15.61 122.6,55.9 122.6,-383.32 0,-113.97 0,-227.93 0,-341.9 0,-237.23 23.3,-408.02 -102.24,-576.64 -83.78,-112.53 -252.46,-231.73 -471.91,-198.08z"/>
   <path class="fil1" d="M2259.67 3881.69c12.99,-36.43 -8.08,-42.45 -68.26,-90.08 -29.4,-23.28 -55.98,-55.64 -80.29,-88.27 -140.54,-188.65 -169.09,-441.23 -61.75,-651.54 28.15,-55.16 56.96,-81.84 50.45,-110.61 -32.34,-19.9 -265.64,-11.21 -324.38,-8.13 -175.73,9.23 -329.72,113.95 -404.9,267.19 -38.74,78.96 -57.88,181.96 -43.22,280.87 27.34,184.6 155.06,318.38 299.22,374.93 99.9,39.19 192.82,33.04 306.36,33.04 57.24,0 294.41,7.91 326.77,-7.4z"/>
   <path class="fil1" d="M3173.28 3012.98c43.07,44.73 89.8,84.91 132.93,129.58l389.7 393.29c34.05,33.98 102.92,94.92 128.62,134 68.71,104.49 4.04,163.57 20.45,207.37 49.92,13.09 154.48,-40.17 190.42,-63.41 173.12,-111.94 266.7,-322.64 201.51,-541.22 -40.15,-134.67 -132.98,-231.36 -238.3,-287.05 -134.76,-71.27 -299.31,-53.28 -465.21,-53.28 -34.3,0 -373.63,-5.72 -389.75,4.99 -35.04,23.29 17.54,63.18 29.63,75.74z"/>
   <path class="fil1" d="M891.85 1828.35c-32.87,12.47 -17.83,116.63 -17.83,155.5 0,59.46 0,118.92 0,178.39 0,19.39 -2.43,71.61 1.07,87.27 5.28,23.59 29.97,33.45 51.16,16.44l176.09 -176.12c41.94,-41.24 30.41,-39.01 -26.72,-96.03 -22.02,-21.97 -159.85,-174.53 -183.77,-165.45z"/>
   <path class="fil1" d="M4195.54 2892.58c-37.27,5.2 -93.44,33.18 -103.84,56.5 -11.68,26.21 35.09,43.5 71.2,80.14 23.44,23.78 48.32,56.21 69.85,88.76 56.21,85.01 45.85,140.26 100.78,72.41 11.21,-13.84 23.52,-28.35 33.46,-46.06 68.03,-121.25 -30.98,-271.34 -171.45,-251.74z"/>
   <path class="fil1" d="M1362.76 1632.03c27.04,-60.8 -57.43,-91.75 -84.28,-44.78 -34.62,60.56 59.72,100.04 84.28,44.78z"/>
  </g>
 </g>
</svg>
