<?xml version="1.0" encoding="UTF-8"?>
<!DOCTYPE svg PUBLIC "-//W3C//DTD SVG 1.1//EN" "http://www.w3.org/Graphics/SVG/1.1/DTD/svg11.dtd">
<!-- Creator: CorelDRAW 2021 (64-Bit) -->
<svg xmlns="http://www.w3.org/2000/svg" xml:space="preserve" width="127mm" height="127mm" version="1.1" style="shape-rendering:geometricPrecision; text-rendering:geometricPrecision; image-rendering:optimizeQuality; fill-rule:evenodd; clip-rule:evenodd"
viewBox="0 0 2679.34 2679.34"
 xmlns:xlink="http://www.w3.org/1999/xlink"
 xmlns:xodm="http://www.corel.com/coreldraw/odm/2003">
 <defs>
  <style type="text/css">
   <![CDATA[
    .fil0 {fill:none}
    .fil2 {fill:black}
    .fil15 {fill:#050505}
    .fil14 {fill:#060606}
    .fil13 {fill:#080808}
    .fil11 {fill:#090909}
    .fil5 {fill:#0A0A0A}
    .fil7 {fill:#7ABC62}
    .fil1 {fill:#A6E1FF}
    .fil4 {fill:#AAD29D}
    .fil8 {fill:#BABABA}
    .fil6 {fill:#E08EA2}
    .fil19 {fill:#EFEFEF}
    .fil20 {fill:#F0F0F0}
    .fil18 {fill:#F1F1F1}
    .fil21 {fill:#F2F2F2}
    .fil17 {fill:#F9F9F9}
    .fil16 {fill:#FBFBFB}
    .fil9 {fill:#FDFDFD}
    .fil3 {fill:#FFECC7}
    .fil12 {fill:white}
    .fil10 {fill:white}
   ]]>
  </style>
   <mask id="id0">
  <linearGradient id="id1" gradientUnits="userSpaceOnUse" x1="1384.98" y1="2272.97" x2="1384.99" y2="356.54">
   <stop offset="0" style="stop-opacity:1; stop-color:white"/>
   <stop offset="1" style="stop-opacity:0; stop-color:white"/>
  </linearGradient>
    <rect style="fill:url(#id1)" x="208.1" y="11.62" width="2263.14" height="2263.14"/>
   </mask>
 </defs>
 <g id="Layer_x0020_1">
  <metadata id="CorelCorpID_0Corel-Layer"/>
  <rect class="fil0" x="-0" y="0" width="2679.34" height="2679.34" rx="164.48" ry="176.17"/>
  <path class="fil1" style="mask:url(#id0)" d="M1339.67 12.51c624.46,0 1130.68,506.22 1130.68,1130.68 0,624.46 -506.22,1130.68 -1130.68,1130.68 -624.46,0 -1130.68,-506.22 -1130.68,-1130.68 0,-624.46 506.22,-1130.68 1130.68,-1130.68z"/>
  <rect class="fil2" x="0.53" y="2534.38" width="2678.79" height="25.25"/>
  <path class="fil3" d="M1756.19 2065.17c-9.95,-40.04 -11.67,-62.68 2.47,-100.83l92.55 -0.95c1.43,6.56 3.89,7.18 4.3,11.5l8.55 39.1c2.97,67.14 -17.52,58.16 -107.88,51.18zm-190.58 1.91c-9.27,-42 -10.95,-64.42 2.59,-103.3 95.45,-5.93 131.08,-8.11 97.17,97.73l-99.76 5.57zm-190.58 0.33c-8.91,-42.93 -10.69,-64.06 2.8,-103.98l93.33 0.25c1.27,7.37 3.56,8.04 3.92,12.05l7.6 37.93c0.44,26.61 -2.03,29.77 -7.68,46.57l-99.97 7.18zm-190.59 -1.32c-8.63,-41.15 -10.43,-63.26 3.09,-102.65 89.82,-4.01 134.08,-8.48 96.83,96.01 -30.11,12.49 -58.4,8.3 -99.92,6.64zm571.31 -201.95c-9.11,-40.62 -10.89,-62.03 2.2,-102.86l97.97 3.27c10.46,37.28 9.69,66.31 -0.51,100.11l-99.66 -0.53zm-189.84 0.29c-9.59,-40.78 -11.3,-62.41 2.02,-103.24l93.51 5.66c18.57,33.32 12.38,64.53 3.39,97.58l-98.93 0zm-190.41 -0.04c-9.54,-40.54 -11.23,-62.86 2.46,-101.79 91.14,-5.73 135.35,-6.82 96.34,101.74l-98.79 0.05zm-190.49 0.16c-9.44,-40.89 -11.06,-62.6 2.17,-103.54l93.93 6.85c18.28,32.35 11.95,64.01 3.12,96.31l-99.22 0.38zm571.04 -201.43c-9.43,-40.18 -11.25,-62.84 2.47,-102.87l97.49 3.09c33.03,120.03 -4.19,105.25 -99.96,99.79zm-190.27 0.19c-9.35,-40.74 -11.13,-62.74 2.19,-103.28l98.32 2.9c8.97,37.82 8.53,67.44 -1.11,100.55l-99.4 -0.17zm-190.18 -0.05c-9.73,-40.55 -11.25,-62.76 2.3,-103.28l93.5 5.98c18.06,32.94 11.91,64.13 3.33,97.28l-99.12 0.03zm-197.48 -96.62c35.38,-15.39 76.23,-13.09 108.31,-5.81 1.9,4.75 5.12,4.38 8.5,27.93l-3.36 79.7 -110.83 -0.9c-13.73,-46.02 -13.61,-55.22 -2.61,-100.93zm-149.11 956.56l310.47 2.38 2.98 -339.3c61.33,-16.61 281.2,-8.28 355.86,-6.12l2.3 341.95 310.82 3.62c7.93,-114.7 13.5,-462.95 -11.85,-558.47 -23.92,-90.06 -27.14,-176.56 -3.26,-267.5 25.03,-95.32 17.04,-178.21 16.9,-279.83l-984.63 0.63 0.41 1102.64z"/>
  <polygon class="fil4" points="578.02,803.42 578.29,1707.69 999.97,1707.88 1004.99,1400.32 1150.4,1395.86 1154.65,1115.84 1264.26,1085.5 1264.97,653.35 "/>
  <path class="fil3" d="M767.28 2280.64l111.48 -1.54 0.03 100.21 -108.56 3.22 -2.94 -101.88zm-190.86 -0.78l111.93 -0.59 -0.32 99.69 -108.15 4.07 -3.46 -103.16zm191.87 -202.75l111.62 3.62 -2.6 100.21 -108.72 -1.45 -0.3 -102.37zm-190.13 -0.12l110.94 4.04 -2.67 99.55 -108.55 -0.51 0.28 -103.07zm190.44 -200.61l111.29 3.04 -3.02 99.89 -108.07 -1.4 -0.2 -101.53zm-191.16 -0.57l111.92 4 -2.85 99.32 -108.5 -1.02 -0.57 -102.3zm-124.71 -40.94l1.54 690.86 547.24 -0.23c10.32,-152.23 2.98,-605.9 2.19,-792.65l-550.75 -0.62 -0.23 102.64z"/>
  <path class="fil5" d="M2037.82 2076.73c2.47,2.15 5.41,5.15 7.1,6.81 60.04,59.38 51.11,67.77 151.2,98.36l-1.99 342.61 -154.57 1.29 -2.24 -366.81 0.5 -82.27zm-670.82 128.83l308.71 -0.67 -2.23 320.8 -306.72 -4.61 0.24 -315.52zm-914.04 -473.31l550.75 0.62c0.79,186.75 8.13,640.42 -2.19,792.65l-547.24 0.23 -1.54 -690.86 0.23 -102.64zm575.63 -311.68l984.63 -0.63c0.15,101.62 8.13,184.51 -16.9,279.83 -23.88,90.94 -20.66,177.44 3.26,267.5 25.36,95.52 19.79,443.77 11.85,558.47l-310.82 -3.62 -2.3 -341.95c-74.66,-2.15 -294.53,-10.48 -355.86,6.12l-2.98 339.3 -310.47 -2.38 -0.41 -1102.64zm1167.4 728.86c-130.43,-7.83 -195.69,-185.26 -190.8,-337.16 4.07,-126.44 70.42,-311.8 204.77,-309.31 244.28,4.54 285.07,593.4 10.4,649.85 0.32,-77.61 -13.46,-100.19 28.08,-145.81 27.37,-30.04 63.9,-52.27 79.69,-95.94 -48.53,24.37 -78.44,54.49 -103.57,86.77 -37.11,-235.62 92.62,-182.78 98.62,-283.64 -45.44,19.54 -60.49,59.37 -101.78,87.72 -1.31,-46.22 10.02,-117.63 -11.17,-153.38 -25.08,28.49 -13.98,104.09 -14.61,151.37 -46.35,-26.81 -43.15,-71.32 -95.51,-85.43 4.46,50.26 57.36,81.18 81.55,115.28 26.74,37.7 17.24,117.75 11.49,167.31 -19.76,-24.24 -65.66,-71.93 -97.8,-85.8 12.54,61 37.55,50.98 75.12,97.57 37,45.89 25.29,66.88 25.52,140.63zm-332.34 -1169.9l-2.5 416.59 -683.56 0.47 -0.3 -266.76 686.36 -150.3zm-598.68 -326.18l-0.71 432.15 -109.61 30.34 -4.25 280.03 -145.42 4.46 -5.02 307.55 -421.68 -0.19 -0.26 -904.27 686.95 -150.07zm955.43 1524.58c280.46,-43.3 277.19,-588.88 52.68,-685.67 -47.46,-20.46 -100.3,-18.22 -143.45,4.88 -30.18,16.16 -25.62,18.34 -47.58,41.53l-36.38 35.11c-1.09,-2.06 -4.61,4.05 -7.62,6.12l-0.58 -180.88 -147.99 -4.83 -3.68 -446.26 -349.73 74.7c-5.83,-47.09 7.5,-97 -18.78,-128.97 -15.01,34.99 -8.67,94.42 -8.74,137.8l-219.45 46.81 -0.59 -445.6c-63.28,-14.45 -274.88,51.43 -354.91,65.92 -0.01,-49.05 9.85,-120.29 -8.66,-159.57l-15.62 165.76 -355.75 78.07 -3.21 924.06 -122.09 1.45 -1.44 813.3 -176.19 13.27c-1.45,-2.48 -5.49,2.31 -7.87,4.05 2.43,1.57 5.98,2.97 7.88,3.59 1.93,0.63 5.72,2.56 8.2,3.25 2.57,0.73 5.8,1.97 8.79,2.61l2009.69 2.8c20.41,0.11 48.43,1.69 67.78,0.71 43.36,-2.18 27.01,5.28 55.56,-12.96 -31.48,-23.07 -120.31,-13.4 -179.91,-13.77l-0.37 -347.3z"/>
  <polygon class="fil6" points="1177.29,1129.83 1177.6,1396.59 1861.16,1396.11 1863.65,979.53 "/>
  <path class="fil7" d="M2195.99 2149.42c-0.22,-73.75 11.49,-94.74 -25.52,-140.63 -37.57,-46.58 -62.58,-36.57 -75.12,-97.57 32.14,13.87 78.04,61.57 97.8,85.8 5.76,-49.55 15.26,-129.61 -11.49,-167.31 -24.2,-34.1 -77.09,-65.03 -81.55,-115.28 52.35,14.11 49.16,58.62 95.51,85.43 0.63,-47.28 -10.47,-122.89 14.61,-151.37 21.19,35.75 9.86,107.16 11.17,153.38 41.29,-28.35 56.34,-68.18 101.78,-87.72 -6.01,100.87 -135.73,48.03 -98.62,283.64 25.13,-32.28 55.05,-62.4 103.57,-86.77 -15.79,43.67 -52.33,65.9 -79.69,95.94 -41.54,45.62 -27.76,68.21 -28.08,145.81 274.67,-56.45 233.88,-645.3 -10.4,-649.85 -134.34,-2.49 -200.7,182.87 -204.77,309.31 -4.88,151.9 60.37,329.33 190.8,337.16z"/>
  <polygon class="fil8" points="1366.76,2521.08 1673.48,2525.69 1675.71,2204.88 1367,2205.55 "/>
  <path class="fil9" d="M2037.32 2159l2.24 366.81 154.57 -1.29 1.99 -342.61c-100.09,-30.59 -91.16,-38.98 -151.2,-98.36 -1.69,-1.66 -4.64,-4.66 -7.1,-6.81l-0.5 82.27z"/>
  <path class="fil10" d="M1562.49 596.97c-22.76,25.05 -21.46,31.96 -56.13,64.83 -32.91,31.22 -27.46,36.78 -14.76,81.24 46.86,15.26 113.37,11.14 171.06,11.67 67.02,0.62 109.53,12.39 109.91,-62.12l-88.77 -65.94c-86.56,-39.38 -67.89,-39.32 -121.3,-29.68z"/>
  <path class="fil11" d="M1562.49 596.97c53.41,-9.65 34.74,-9.7 121.3,29.68l88.77 65.94c-0.38,74.52 -42.89,62.74 -109.91,62.12 -57.69,-0.53 -124.19,3.59 -171.06,-11.67 -12.7,-44.46 -18.15,-50.02 14.76,-81.24 34.66,-32.87 33.37,-39.77 56.13,-64.83zm-84.18 169.03c23.92,6.85 345.26,71.02 318.97,-69.66 -7.62,-40.76 -29.91,-33.48 -67.44,-68.89 -29.52,-27.85 -138.69,-91.72 -195.56,-38.31 -14.31,13.45 -11.96,19.93 -28.31,38.43 -26.38,29.81 -74.89,42.41 -27.66,138.43z"/>
  <path class="fil5" d="M2163.45 1160.45c38.48,-29.98 73.3,-11.88 96.33,26.18 -9.14,94.6 -119.84,94.21 -96.33,-26.18zm114.79 70.89c43.62,-97.04 -102.98,-153.6 -138.69,-70.57 -47.93,111.47 100.6,155.31 138.69,70.57z"/>
  <path class="fil11" d="M1777.31 1584.73l55.97 0.51 3.79 53.07 -58.11 1.78 -1.65 -55.36zm-21.25 78.4c95.77,5.46 132.98,20.25 99.96,-99.79l-97.49 -3.09c-13.72,40.04 -11.89,62.69 -2.47,102.87z"/>
  <path class="fil12" d="M2163.45 1160.45c-23.51,120.39 87.19,120.77 96.33,26.18 -23.02,-38.06 -57.85,-56.16 -96.33,-26.18z"/>
  <path class="fil11" d="M1400.69 1785.28l54.31 2.07 -0.84 52.54 -58.99 1.23 5.53 -55.84zm-25.19 79.11l98.79 -0.05c39.01,-108.56 -5.2,-107.47 -96.34,-101.74 -13.69,38.93 -12,61.25 -2.46,101.79z"/>
  <path class="fil13" d="M1265.08 1988.47l-0.55 53.21 -59.46 1.22 1.14 -54.94 58.88 0.51zm-80.64 77.62c41.52,1.66 69.81,5.85 99.92,-6.64 37.25,-104.49 -7.01,-100.02 -96.83,-96.01 -13.52,39.39 -11.72,61.5 -3.09,102.65z"/>
  <path class="fil11" d="M1780.96 1986.96l54.93 1.28 -0.75 53.82 -59.26 -0.2 5.08 -54.9zm-24.78 78.2c90.36,6.98 110.85,15.96 107.88,-51.18l-8.55 -39.1c-0.41,-4.32 -2.88,-4.94 -4.3,-11.5l-92.55 0.95c-14.14,38.15 -12.42,60.79 -2.47,100.83z"/>
  <path class="fil11" d="M1590.63 1986.83l55.17 1.35 -0.98 53.64 -59.54 0.77 5.35 -55.75zm74.73 74.68c33.91,-105.83 -1.72,-103.65 -97.17,-97.73 -13.53,38.88 -11.85,61.29 -2.59,103.3l99.76 -5.57z"/>
  <path class="fil5" d="M1781.45 1785.82l54.44 0.92 -1.14 53.7 -58.56 0.05 5.26 -54.68zm-25.7 78.32l99.66 0.53c10.2,-33.81 10.97,-62.84 0.51,-100.11l-97.97 -3.27c-13.09,40.83 -11.31,62.24 -2.2,102.86z"/>
  <path class="fil11" d="M1587.19 1584.67l56.42 0.22 3.08 53.16 -58.28 2.34 -1.22 -55.72zm-21.41 78.64l99.4 0.17c9.64,-33.11 10.08,-62.73 1.11,-100.55l-98.32 -2.9c-13.32,40.54 -11.54,62.54 -2.19,103.28z"/>
  <path class="fil14" d="M792.48 2101.3l63.2 2.47 -1.93 52.13 -60.22 -0.26 -1.05 -54.33zm-23.88 78.19l108.72 1.45 2.6 -100.21 -111.62 -3.62 0.3 102.37z"/>
  <path class="fil13" d="M601.48 2302.45l63.34 3.1 -1.41 51.8 -60.59 -0.21 -1.33 -54.69zm-21.59 80.58l108.15 -4.07 0.32 -99.69 -111.93 0.59 3.46 103.16z"/>
  <path class="fil5" d="M1203.47 1790.3l59.26 -4.08 3.17 52.49 -57.53 2.89 -4.9 -51.3zm-18.46 74.25l99.22 -0.38c8.83,-32.3 15.17,-63.96 -3.12,-96.31l-93.93 -6.85c-13.23,40.95 -11.6,62.65 -2.17,103.54z"/>
  <path class="fil14" d="M792.3 2302.4l63.38 2.77 -1.82 52.19 -60.57 -0.2 -0.99 -54.77zm-22.07 80.13l108.56 -3.22 -0.03 -100.21 -111.48 1.54 2.94 101.88z"/>
  <path class="fil14" d="M601.53 2100.91l63.72 3.26 -1.99 51.85 -60.5 -0.08 -1.23 -55.03zm-23.64 79.15l108.55 0.51 2.67 -99.55 -110.94 -4.04 -0.28 103.07z"/>
  <path class="fil14" d="M600.89 1901.03l63.88 0.42 -0.79 51.99 -60.61 2.19 -2.48 -54.6zm-22.88 77.09l108.5 1.02 2.85 -99.32 -111.92 -4 0.57 102.3z"/>
  <path class="fil11" d="M1590.61 1785.55l55.23 1.44 -1.24 53.22 -59.15 1.14 5.16 -55.8zm-24.7 78.89l98.93 0c8.99,-33.05 15.18,-64.26 -3.39,-97.58l-93.51 -5.66c-13.32,40.83 -11.62,62.47 -2.02,103.24z"/>
  <path class="fil15" d="M791.65 1901.13l63.8 0.11 -1.29 52.41 -59.83 1.57 -2.68 -54.08zm-22.85 76.77l108.07 1.4 3.02 -99.89 -111.29 -3.04 0.2 101.53z"/>
  <path class="fil11" d="M1400.11 1584.3l55.15 1.11 -0.79 53.6 -59.31 1.04 4.95 -55.75zm-24.51 78.95l99.12 -0.03c8.58,-33.15 14.73,-64.34 -3.33,-97.28l-93.5 -5.98c-13.54,40.53 -12.03,62.73 -2.3,103.28z"/>
  <path class="fil11" d="M1400.77 1986.54l54.41 2.07 -0.74 52.97 -59.18 0.75 5.5 -55.8zm74.23 73.69c5.65,-16.81 8.12,-19.96 7.68,-46.57l-7.6 -37.93c-0.36,-4.01 -2.65,-4.69 -3.92,-12.05l-93.33 -0.25c-13.49,39.92 -11.71,61.05 -2.8,103.98l99.97 -7.18z"/>
  <polygon class="fil16" points="602.76,2155.95 663.26,2156.03 665.25,2104.17 601.53,2100.91 "/>
  <polygon class="fil17" points="603.37,1955.62 663.97,1953.43 664.76,1901.45 600.89,1901.03 "/>
  <polygon class="fil17" points="793.28,2357.16 853.85,2357.36 855.67,2305.17 792.3,2302.4 "/>
  <polygon class="fil17" points="602.81,2357.14 663.4,2357.35 664.82,2305.55 601.48,2302.45 "/>
  <polygon class="fil17" points="794.33,1955.22 854.15,1953.65 855.45,1901.24 791.65,1901.13 "/>
  <polygon class="fil17" points="793.54,2155.63 853.76,2155.89 855.69,2103.76 792.48,2101.3 "/>
  <polygon class="fil18" points="1206.2,1987.95 1205.07,2042.9 1264.52,2041.68 1265.08,1988.47 "/>
  <polygon class="fil18" points="1585.29,2042.58 1644.82,2041.81 1645.8,1988.18 1590.63,1986.83 "/>
  <polygon class="fil19" points="1395.16,1640.05 1454.47,1639.01 1455.26,1585.41 1400.11,1584.3 "/>
  <polygon class="fil18" points="1588.4,1640.39 1646.69,1638.06 1643.61,1584.9 1587.19,1584.67 "/>
  <polygon class="fil20" points="1585.45,1841.35 1644.6,1840.21 1645.84,1786.99 1590.61,1785.55 "/>
  <polygon class="fil18" points="1775.88,2041.87 1835.14,2042.06 1835.89,1988.25 1780.96,1986.96 "/>
  <polygon class="fil18" points="1778.96,1640.09 1837.07,1638.31 1833.28,1585.24 1777.31,1584.73 "/>
  <polygon class="fil18" points="1395.26,2042.34 1454.44,2041.59 1455.18,1988.61 1400.77,1986.54 "/>
  <polygon class="fil20" points="1395.16,1841.12 1454.15,1839.89 1455,1787.36 1400.69,1785.28 "/>
  <polygon class="fil21" points="1776.2,1840.5 1834.76,1840.45 1835.89,1786.75 1781.45,1785.82 "/>
  <polygon class="fil20" points="1208.37,1841.6 1265.9,1838.71 1262.73,1786.22 1203.47,1790.3 "/>
  <path class="fil11" d="M1206.6 1579.64l62.42 1.24 -0.9 59.99 -67.13 1.17 5.6 -62.4zm-27.74 88.38l112.19 -0.03c9.71,-37.1 16.67,-72.02 -3.77,-108.89l-105.82 -6.69c-15.33,45.36 -13.61,70.22 -2.6,115.61z"/>
  <polygon class="fil19" points="1201,1642.04 1268.13,1640.88 1269.02,1580.88 1206.6,1579.64 "/>
 </g>
</svg>
