<?xml version="1.0" encoding="UTF-8"?>
<!DOCTYPE svg PUBLIC "-//W3C//DTD SVG 1.1//EN" "http://www.w3.org/Graphics/SVG/1.1/DTD/svg11.dtd">
<!-- Creator: CorelDRAW 2021 (64-Bit) -->
<svg xmlns="http://www.w3.org/2000/svg" xml:space="preserve" width="127mm" height="127mm" version="1.1" style="shape-rendering:geometricPrecision; text-rendering:geometricPrecision; image-rendering:optimizeQuality; fill-rule:evenodd; clip-rule:evenodd"
viewBox="0 0 12149.29 12149.3"
 xmlns:xlink="http://www.w3.org/1999/xlink"
 xmlns:xodm="http://www.corel.com/coreldraw/odm/2003">
 <defs>
  <style type="text/css">
   <![CDATA[
    .fil0 {fill:none}
    .fil2 {fill:black}
    .fil11 {fill:#202020}
    .fil1 {fill:#A6E1FF}
    .fil7 {fill:#AAD29D}
    .fil3 {fill:#E0E0E0}
    .fil6 {fill:#E0E0E0}
    .fil4 {fill:#F1BFDA}
    .fil10 {fill:#FF4040}
    .fil9 {fill:#FFECC7}
    .fil8 {fill:#FFEEBA}
    .fil12 {fill:#656565}
    .fil5 {fill:#FEFEFE}
   ]]>
  </style>
   <mask id="id0">
  <linearGradient id="id1" gradientUnits="userSpaceOnUse" x1="6280.12" y1="10306.65" x2="6280.17" y2="1616.7">
   <stop offset="0" style="stop-opacity:1; stop-color:white"/>
   <stop offset="1" style="stop-opacity:0; stop-color:white"/>
  </linearGradient>
    <rect style="fill:url(#id1)" x="943.61" y="52.67" width="10262.07" height="10262.07"/>
   </mask>
 </defs>
 <g id="Layer_x0020_1">
  <metadata id="CorelCorpID_0Corel-Layer"/>
  <rect class="fil0" x="-0.02" y="0" width="12149.29" height="12149.29" rx="745.84" ry="798.84"/>
  <path class="fil1" style="mask:url(#id0)" d="M6074.64 56.72c2831.56,0 5126.99,2295.43 5126.99,5126.99 0,2831.56 -2295.43,5126.99 -5126.99,5126.99 -2831.56,0 -5126.99,-2295.43 -5126.99,-5126.99 0,-2831.56 2295.43,-5126.99 5126.99,-5126.99z"/>
  <rect class="fil2" x="2.4" y="11491.99" width="12146.79" height="114.49"/>
  <path class="fil3" d="M4093.77 10356.14c42.7,0 53.1,-7.38 85.82,-15.65 37.74,-9.56 63.29,-7.2 112.51,-7.2l59.88 65.55c10.47,10.38 14.7,14.77 22.85,22.91l260.19 254.47c0,105.6 -9.47,80.85 -91.44,179.32l920.42 -0.73 2.17 -2811.57 -2.53 -60.37c-102.27,-24.41 -407.97,38.58 -428.93,-63.97 -20.88,-102.3 94.94,-86.62 171.88,-85.92 67.25,0.59 198.21,8.92 257.55,-7.05 0,-97.82 -11.11,-312.26 8.65,-395.96 44.31,-34.33 120.02,-53.96 133.96,34.47l1.16 1439.9c0,64.34 -16.75,173.8 16.84,222.54l986.86 1.01c52.05,-2.24 108.54,-0.26 161.1,-0.27 179.71,-0.07 1101.81,-22.09 1190.61,15.37 98.11,153.06 -115.71,128.39 -218.97,128.37 -384.46,-0.03 -828.94,9.26 -1199.53,-0.67 -6.36,90.08 35.76,284.99 -69.4,287.6 -117.36,2.9 -72.36,-194.45 -79.12,-287.88l-788.02 1.2 -0.18 1581.17 784.77 2.23c18.27,-86.28 5.81,-762.87 5.7,-944.74 -0.07,-92.23 -25.93,-237.06 102.61,-198.98 64.63,42.33 41.34,163.19 41.34,256.13 0,183.51 -12.5,788.31 4.62,886.47l1522.19 0.77 60.27 3.08 -0.74 -227.26 -1.46 -1588.98c-7.27,-20.13 -295.38,-224.93 -315.4,-239.25 -119.29,-85.35 -234.66,-151.09 -269.26,-290.84 -43.23,-174.58 47.08,-318.99 175,-376.56 184.1,-82.84 295.4,6.78 411.36,80.93l2.7 -1103.8c-139.15,-3.68 -535.52,15.29 -631.33,-13.79 -44.54,-105.8 -20.12,-562.45 -20.12,-720.13 0,-216.58 -19,-538.97 3.8,-742.84 70.22,-55.95 169.11,-36.23 305.96,-36.23 101.61,0 241.32,7.86 338.17,-3.17l0.82 -278.3 -2521.13 -5.52 0.13 1626.2c0.27,73.33 16.38,170.46 -70.27,172.22 -83.26,1.68 -74.47,-80.18 -73.97,-149.07l-0.36 -1649.28c-94.41,0.4 -647.75,12.49 -687.71,-12.46 -44.31,-27.66 -38.24,-99.63 -3.21,-121.21 37.64,-23.22 453.12,-10.58 514.13,-10.58l2800.62 0c165.1,-0.46 187.29,-18.17 185.7,158.51 -2.3,253.61 -9.31,874.72 3.49,1066.48l0.49 405.71 1.35 1511.39 351.38 220.96 0.55 -3795.94 -5180.54 -0.23 -2.31 3859.75c60.68,-24.9 185.52,-113.26 252.13,-156.97l247.48 -161.86c12.51,-159.36 2.18,-815.95 2.2,-1028.8 0,-207.92 -14.56,-1998.49 12.7,-2045.52 30.75,-53.01 158.22,-33.48 215.92,-33.47 55.21,0.02 213.54,-12.06 248.86,12.89 57.74,40.8 32.03,127.87 -65.26,131.63 -87.2,3.4 -179.57,-1.21 -267.92,0.55l-0.07 2519.24c119.24,2.11 239.44,0.67 358.75,0.67 87.78,0 285.22,-36.57 288.92,65.78 4.13,114.1 -185.28,77.81 -277.49,77.81 -123.19,0 -246.38,-0.64 -369.57,0.66l-0.49 200.52c146.96,-63.78 220.42,-127.69 399.92,-22.62 87.99,51.51 178.34,186.83 141.27,348 -32.91,143.06 -143.96,203.79 -241.01,274.48 -52.48,38.23 -256.94,199.75 -298.95,213.43l-1.01 1365.26z"/>
  <rect class="fil4" x="4093.51" y="5245.53" width="1448.86" height="2658.61"/>
  <path class="fil2" d="M2357.99 8835.75c40.05,-74.23 328.47,-384.48 411.03,-448.88 81.2,-63.32 140.47,-133.52 236.49,-197.62 57.12,-38.15 219.71,-110.92 298.01,-113.14l-0.34 607.71c-25.72,28.88 -146.52,101.91 -189.54,127.84 -63.85,38.5 -153.71,90.92 -64.3,168.1 66.46,14.67 82.01,-5.39 127.51,-36.5l1083.9 -687.69c195.66,-61.08 328.21,194.67 162.71,322.9l-374.69 276.61c-118.35,88.85 -244.68,182.72 -369.81,270.83 -51.91,36.56 -98.44,138.21 -137.66,193.69 -41.54,58.79 -105.41,126.04 -151.06,169.07 -49,46.21 -112.03,102.77 -178.79,140.67 -47.75,27.11 -161.61,92.4 -222.43,94.31 -59.56,-76.77 -104.03,-148.09 -161.37,-223.8l-314.61 -439.46c-32.32,-44.7 -49.11,-69.06 -79.97,-114.53 -25.5,-37.59 -57.18,-68.73 -75.08,-110.13zm6415.6 -789c95.11,13.89 264.34,73.67 343.74,113.32 99.69,49.81 168.36,123.96 250.05,195.69 74.32,65.25 381.52,356.58 435.17,468.57 -86.13,140.47 -590.3,813.05 -628.89,894.31 -231.59,-21.76 -501.8,-327.08 -610.19,-513.28 -47.17,-81.02 -127.17,-121.72 -193.52,-172.14 -143.97,-109.4 -282.49,-205.08 -426.67,-316.18 -37.39,-28.81 -69.65,-48.08 -106,-76.87 -39.98,-31.66 -66.32,-44.42 -103.4,-79.68 -71.83,-68.27 -77.12,-185.89 -7,-256.64 92.92,-93.77 181.61,-55.41 273.08,1.58l676.31 433.4c81.08,52.54 150.93,96.68 229.88,146.75 52.39,33.24 183.18,151.07 240.84,72.05 59.98,-82.17 -100.01,-154.9 -150.12,-186.19 -75.56,-47.22 -148.54,-99.12 -222.03,-139.36l-1.27 -585.35zm-496.63 -1248.21l-147.71 6.87 2.79 161.3 -507.91 -0.74 0.55 -1224.91 505.74 6.16 -1.89 643.48 147.93 2.13c-12.8,-191.77 -5.79,-812.87 -3.49,-1066.48 1.59,-176.68 -20.61,-158.97 -185.7,-158.51l-2800.62 0c-61.01,0 -476.49,-12.64 -514.13,10.58 -35.02,21.57 -41.1,93.55 3.21,121.21 39.97,24.96 593.3,12.87 687.71,12.46l0.36 1649.28c-0.51,68.9 -9.29,150.76 73.97,149.07 86.65,-1.76 70.54,-98.9 70.27,-172.22l-0.13 -1626.2 2521.13 5.52 -0.82 278.3c-96.85,11.03 -236.56,3.17 -338.17,3.17 -136.85,0 -235.74,-19.73 -305.96,36.23 -22.8,203.87 -3.8,526.25 -3.8,742.84 0,157.67 -24.42,614.32 20.12,720.13 95.81,29.08 492.18,10.11 631.33,13.79l-2.7 1103.8c-115.96,-74.15 -227.26,-163.78 -411.36,-80.93 -127.92,57.57 -218.23,201.98 -175,376.56 34.6,139.75 149.97,205.49 269.26,290.84 20.02,14.32 308.13,219.13 315.4,239.25l1.46 1588.98c48.16,-51.35 59.36,-63.51 96.8,-73.53 32.5,-8.71 12.76,-4.24 46.3,-6.5l1.55 -1404.86c138.71,52.07 226.22,242.74 312.8,345.68 46.03,54.74 41.44,42.02 41.73,132.93 0.16,53.37 1.11,106.77 1.07,160.31 -0.34,544.54 12,1108.49 0.31,1647.53l-5182.25 -2.66 0.51 -1770.85c6.5,-54.3 41.45,-60.56 80.55,-100.21 144.95,-146.97 170.15,-232.11 226.44,-300.32 20.16,-24.44 161.99,-133.87 193.14,-146.59 15.49,378.66 8.9,817.84 2.64,1198.91 -3.1,189.06 -6.43,407.37 1.33,595.31 6.35,153.8 228.55,77.14 511.82,91.97 25.8,-16.78 42.2,-38.1 65.43,-61.27l61.79 -65.93 890.15 0 -14.76 -2827.19 -2.17 2811.57 -920.42 0.73 -452.52 0.05 2.71 -499.45 1.01 -1365.26c42.01,-13.68 246.47,-175.21 298.95,-213.43 97.05,-70.69 208.11,-131.42 241.01,-274.48 37.07,-161.17 -53.27,-296.5 -141.27,-348 -179.5,-105.07 -252.96,-41.15 -399.92,22.62l0.49 -200.52c123.19,-1.3 246.38,-0.66 369.57,-0.66 92.21,0 281.62,36.29 277.49,-77.81 -3.7,-102.35 -201.14,-65.78 -288.92,-65.78 -119.31,0 -239.5,1.44 -358.75,-0.67l0.07 -2519.24c88.35,-1.77 180.73,2.84 267.92,-0.55 97.29,-3.76 123,-90.83 65.26,-131.63 -35.32,-24.95 -193.65,-12.87 -248.86,-12.89 -57.7,-0.01 -185.18,-19.53 -215.92,33.47 -27.26,47.04 -12.7,1837.6 -12.7,2045.52 -0.02,212.85 10.31,869.45 -2.2,1028.8l-247.48 161.86c-66.61,43.72 -191.45,132.07 -252.13,156.97l2.31 -3859.75 5180.54 0.23 -0.55 3795.94 -351.38 -220.96 -1.35 -1511.39zm-6008.11 1905.15c-56.22,-37.96 -69.13,-141.08 -164.67,-79.15l-314.91 234.67c-55.02,39.58 -96.73,78.86 -148.39,114.19 -113.41,77.61 -47.37,152.58 10.47,152.3 42.37,-0.2 140.74,-83.78 170.64,-108.32l309.69 -228.43c41.36,30.81 203.11,268.54 219.99,295.51 109.11,174.49 389.64,530.72 533.64,746.74 32.95,49.42 73.24,93.37 102.38,147.66 -17.97,30.78 -116.06,98.22 -155.08,128.96l-236.78 186.68c-70.62,52.83 -137.39,84.55 -138.04,141.69 -0.53,46.77 27.04,73.85 73.22,71.91 46.66,-1.96 389.69,-286.88 483.6,-355.23 226.89,-165.08 154.01,-144.73 70.11,-296.23l216.51 -110.53c22.32,244.28 -34.22,1722.06 19.42,1798.34 25.61,41.01 54.09,31.76 114.18,31.76l5235.43 0.06c119.53,0 105.23,-47.66 104.45,-157.04l-0.39 -1739.48 294.26 173.37c-35.88,55.67 -89.16,95.56 -78.69,171.47 11.39,32.88 484.37,388.4 559.22,447.13 122.44,96.07 196.9,-35.09 103.63,-103.86 -59.39,-43.79 -467.35,-351.79 -489.87,-389 34.06,-69.26 817.65,-1161.8 856.27,-1190.17 87.28,54.32 165.98,124.86 251.07,184.66 46.93,32.98 81.33,59.97 123.91,93.26 46.04,36 75.35,79.81 144.91,48.54 127.09,-73.16 -165.92,-244.04 -270.8,-323.02 -47.36,-35.65 -225.07,-198.49 -290.31,-181.52 -37.39,9.73 -39.93,34.61 -64.94,62.74 -15.87,17.83 0.14,4.63 -19.59,17.35 -38.94,-36.89 -72.45,-83.19 -115.01,-128.83 -155.58,-166.87 -174.75,-193.92 -361.61,-358.13 -212.42,-186.68 -342,-239.09 -641.06,-307.69 -19.94,-542.34 -0.58,-1121.47 -1.11,-1666.6l0 -1451.75c0.12,-67.58 16.01,-137.52 -33.54,-175.14 -91.05,-43.79 -2398.43,9.53 -2685.93,-8.27 -199.36,-12.36 -460.77,-3.53 -677.02,-3.53 -200.91,0 -2009.74,-13.77 -2043.55,9.15 -24.97,34.54 -31.04,49.64 -31.01,109.22l-0.18 3213.99c-333.98,60.26 -602.29,301.52 -821.08,542.82l-213.43 237.75z"/>
  <path class="fil5" d="M8271.93 10550.46c-4.62,114.13 9.57,244.79 3.2,355.27 -7.83,135.75 -133.62,84.55 -250.02,93.35l-3561.55 -1.44c-283.27,-14.83 -505.47,61.83 -511.82,-91.97 -7.76,-187.94 -4.43,-406.25 -1.33,-595.31 6.26,-381.08 12.85,-820.26 -2.64,-1198.91 -31.16,12.71 -172.99,122.14 -193.14,146.59 -56.29,68.21 -81.49,153.35 -226.44,300.32 -39.1,39.64 -74.05,45.91 -80.55,100.21l-0.51 1770.85 5182.25 2.66c11.69,-539.03 -0.65,-1102.99 -0.31,-1647.53 0.04,-53.54 -0.91,-106.94 -1.07,-160.31 -0.29,-90.92 4.3,-78.2 -41.73,-132.93 -86.58,-102.94 -174.09,-293.61 -312.8,-345.68l-1.55 1404.86z"/>
  <path class="fil6" d="M8761.71 4086.39c44.41,0 86.03,13.56 86.01,-28.82l0.17 -663.01c0,-39.56 -26.23,-29.02 -63.32,-28.92l-292.79 0.13c-29.34,127.9 27.31,312.84 -25.09,418.46 -170.72,49.9 -120.68,-110.85 -124.41,-418.41l-213.18 1.09c-1.86,70.65 23.29,225.23 -21.57,265.57 -28.52,25.64 -86.33,28.63 -111.54,-9.83 -17.15,-26.16 -14.28,-211.46 -16.7,-256.95l-205.81 1.59c-12.33,60.53 -5.08,177.4 -4.92,244.47 0.21,82.71 19.64,181.54 -70.26,184.2 -96.72,2.86 -73.83,-107.23 -73.65,-184.2 0.19,-75.83 4.65,-169.84 -2.44,-245.37l-206.24 -0.78c-36.91,130.54 63.55,306.02 -122.02,281.49 -65.56,-104.67 -3.68,-183.87 -36.56,-281.32l-205.2 -0.16c-23.12,124.42 21.84,323.98 -24.7,418.65 -174.96,51.3 -116.59,-129.16 -125.53,-417.12 -66.97,-2.59 -153.12,-13.52 -215.32,7.82 -0.2,91.87 39.79,291.31 -84.82,275.58 -98.33,-12.41 -45.46,-183.39 -63.83,-284.68l-207.54 -0.38 -3.29 292.25c0.47,74.3 -3.65,165.74 -98.82,134.41 -81.65,-26.91 -31.32,-261.2 -46.16,-426.18l-213.1 2.8c-16.43,136.67 55.57,299.64 -114.78,278.6 -59.04,-89.84 -15.77,-172.98 -35.41,-281.82l-206.07 0.66c-21.71,121.5 60.79,481.91 -104.64,425.92 -37.27,-12.61 -44.06,-48.79 -44.08,-88.92 0.02,-433.05 51.32,-328.08 -207.91,-338.62 -26.79,90.07 37.57,280.62 -74.52,287.52 -110.97,6.84 -78.87,-191.74 -78.12,-286.04l-220.25 -0.48c8.15,112.1 19.07,336.5 -16.18,418.93 -183.22,51.5 -102.01,-114.49 -132.74,-418.54l-346.37 -0.12c-13.1,60.09 -13.57,666.09 0.65,719.34 371.73,21.6 774.72,-12.14 1150.54,1.35l1034.06 3.59c19.64,-0.7 39.27,-3.72 62.24,-3.72l2126.18 0z"/>
  <path class="fil2" d="M8761.71 4086.39l-2126.18 0c-22.97,0 -42.6,3.02 -62.24,3.72l-1034.06 -3.59c-375.82,-13.49 -778.82,20.25 -1150.54,-1.35 -14.23,-53.26 -13.75,-659.26 -0.65,-719.34l346.37 0.12c30.74,304.05 -50.48,470.03 132.74,418.54 35.24,-82.43 24.33,-306.83 16.18,-418.93l220.25 0.48c-0.76,94.31 -32.85,292.88 78.12,286.04 112.09,-6.9 47.74,-197.45 74.52,-287.52 259.23,10.54 207.92,-94.43 207.91,338.62 0.02,40.13 6.81,76.31 44.08,88.92 165.43,55.99 82.93,-304.42 104.64,-425.92l206.07 -0.66c19.64,108.85 -23.64,191.99 35.41,281.82 170.35,21.04 98.34,-141.93 114.78,-278.6l213.1 -2.8c14.84,164.98 -35.49,399.27 46.16,426.18 95.17,31.33 99.29,-60.11 98.82,-134.41l3.29 -292.25 207.54 0.38c18.37,101.29 -34.51,272.27 63.83,284.68 124.6,15.74 84.61,-183.71 84.82,-275.58 62.2,-21.33 148.35,-10.41 215.32,-7.82 8.94,287.96 -49.43,468.43 125.53,417.12 46.54,-94.67 1.58,-294.23 24.7,-418.65l205.2 0.16c32.88,97.45 -29,176.64 36.56,281.32 185.57,24.53 85.11,-150.95 122.02,-281.49l206.24 0.78c7.09,75.53 2.63,169.53 2.44,245.37 -0.18,76.97 -23.06,187.06 73.65,184.2 89.9,-2.66 70.48,-101.49 70.26,-184.2 -0.16,-67.07 -7.41,-183.94 4.92,-244.47l205.81 -1.59c2.42,45.49 -0.45,230.79 16.7,256.95 25.22,38.47 83.03,35.47 111.54,9.83 44.87,-40.34 19.72,-194.92 21.57,-265.57l213.18 -1.09c3.73,307.57 -46.31,468.31 124.41,418.41 52.4,-105.62 -4.25,-290.56 25.09,-418.46l292.79 -0.13c37.09,-0.11 63.32,-10.64 63.32,28.92l-0.17 663.01c0.02,42.38 -41.6,28.82 -86.01,28.82zm-4423.83 143.93c1501.66,0 3015.3,-7.99 4515.52,0.34 140.69,0.78 138.02,-16.1 138.12,-150.24l0.16 -708.72c0,-133.5 -3.02,-148.36 -138.53,-148.36l-4046.6 0c-669.31,0 -568.53,-41.09 -568.54,262.68l-0.55 629.43c-0.27,82.1 8.47,114.87 100.42,114.87z"/>
  <rect class="fil7" x="5587.93" y="9200.04" width="924.07" height="1667.25"/>
  <path class="fil2" d="M9623.08 7549.4l320.1 -5.98c-25.81,68.66 -117.05,218.64 -159.22,281.15l-160.88 -275.18zm-54.39 -3027.18l138.45 -3.7c19.66,114.48 7.78,2847.09 -2.73,2881.53l-133.35 -0.61c-18.42,-120.27 -0.9,-1854.23 -7.55,-2165.9 -3.82,-179.6 -7.83,-510.76 5.18,-711.32zm287.5 -2.43l60.07 -0.95 34.3 0.14 50.89 0.91 -0.65 2880.15 -145.09 -0.16 0.47 -50.16 -0.1 -2343.38 0.11 -486.55zm-288.21 -149.01c-6.73,-221.5 -8.52,-359.84 234.36,-359.02 138.44,0.46 208.86,92.5 199.73,216.45 -3.35,45.28 -1.28,95.62 -1.05,146.41l-433.03 -3.84zm94.09 -489.42c-171.13,52.77 -239.36,163.81 -238.81,370.51l0.12 3063.55c-0.07,221.95 5.33,190.57 156.74,450.57 38.71,66.46 76.9,133.56 112.54,195.78 48.83,85.3 110.66,135.98 167.45,29.07 69.21,-130.29 147.31,-257 219.4,-386.38 62.36,-111.91 65.86,-92.07 65.39,-243.32l-0.28 -2754.9c2.35,-290.16 60.55,-612.19 -201.29,-712.86 -77.98,-29.99 -201.4,-36.67 -281.27,-12.03z"/>
  <path class="fil2" d="M5466.17 8043.25l14.76 2827.19 -890.15 0 -61.79 65.93c-23.24,23.17 -39.63,44.49 -65.43,61.27l3561.55 1.44c0.29,-65.39 -6.62,-8.95 25.66,-72.68 10.55,-20.86 15.21,-42.11 18.53,-71.75l-1522.19 -0.77c-17.12,-98.16 -4.62,-702.96 -4.62,-886.47 0,-92.94 23.29,-213.8 -41.34,-256.13 -128.54,-38.08 -102.68,106.75 -102.61,198.98 0.11,181.88 12.57,858.46 -5.7,944.74l-784.77 -2.23 0.18 -1581.17 788.02 -1.2c6.76,93.43 -38.24,290.78 79.12,287.88 105.16,-2.61 63.04,-197.53 69.4,-287.6 370.59,9.93 815.07,0.64 1199.53,0.67 103.26,0.02 317.09,24.69 218.97,-128.37 -88.79,-37.46 -1010.89,-15.44 -1190.61,-15.37 -52.56,0.01 -109.05,-1.97 -161.1,0.27l-986.86 -1.01c-33.59,-48.74 -16.84,-158.2 -16.84,-222.54l-1.16 -1439.9c-13.94,-88.43 -89.65,-68.8 -133.96,-34.47 -19.75,83.7 -8.65,298.14 -8.65,395.96 -59.34,15.97 -190.29,7.64 -257.55,7.05 -76.94,-0.7 -192.76,-16.38 -171.88,85.92 20.96,102.55 326.65,39.56 428.93,63.97l2.53 60.37z"/>
  <path class="fil8" d="M8774.86 8632.1c73.49,40.25 146.46,92.14 222.03,139.36 50.11,31.29 210.1,104.02 150.12,186.19 -57.67,79.02 -188.46,-38.81 -240.84,-72.05 -78.95,-50.07 -148.79,-94.21 -229.88,-146.75l-676.31 -433.4c-91.47,-56.99 -180.16,-95.35 -273.08,-1.58 -70.12,70.74 -64.83,188.37 7,256.64 37.08,35.26 63.42,48.02 103.4,79.68 36.34,28.79 68.61,48.05 106,76.87 144.17,111.09 282.7,206.78 426.67,316.18 66.35,50.41 146.35,91.12 193.52,172.14 108.39,186.2 378.6,491.52 610.19,513.28 38.59,-81.26 542.77,-753.84 628.89,-894.31 -53.66,-111.99 -360.85,-403.32 -435.17,-468.57 -81.7,-71.73 -150.36,-145.88 -250.05,-195.69 -79.4,-39.65 -248.63,-99.43 -343.74,-113.32l1.27 585.35z"/>
  <path class="fil8" d="M2357.99 8835.75c17.9,41.39 49.57,72.54 75.08,110.13 30.85,45.47 47.65,69.82 79.97,114.53l314.61 439.46c57.33,75.71 101.81,147.03 161.37,223.8 60.81,-1.9 174.68,-67.19 222.43,-94.31 66.76,-37.9 129.8,-94.47 178.79,-140.67 45.65,-43.03 109.53,-110.28 151.06,-169.07 39.22,-55.48 85.75,-157.13 137.66,-193.69 125.13,-88.12 251.45,-181.98 369.81,-270.83l374.69 -276.61c165.5,-128.24 32.95,-383.98 -162.71,-322.9l-1083.9 687.69c-45.5,31.11 -61.05,51.17 -127.51,36.5 -89.41,-77.18 0.46,-129.6 64.3,-168.1 43.02,-25.93 163.81,-98.96 189.54,-127.84l0.34 -607.71c-78.3,2.22 -240.89,74.99 -298.01,113.14 -96.02,64.1 -155.29,134.3 -236.49,197.62 -82.56,64.4 -370.97,374.65 -411.03,448.88z"/>
  <polygon class="fil9" points="8129.25,6805.41 8128.54,6390.7 8130.44,5747.22 7624.69,5741.06 7624.14,6965.97 8132.04,6966.71 "/>
  <path class="fil10" d="M9568.69 4522.21c-13,200.56 -8.99,531.72 -5.18,711.32 6.65,311.66 -10.88,2045.63 7.55,2165.9l133.35 0.61c10.5,-34.44 22.39,-2767.05 2.73,-2881.53l-138.45 3.7z"/>
  <polygon class="fil10" points="9856.07,5006.34 9856.17,7349.72 9855.7,7399.87 10000.79,7400.04 10001.44,4519.89 9950.55,4518.98 9916.25,4518.83 9856.19,4519.78 "/>
  <path class="fil9" d="M4093.77 10356.14l-2.71 499.45 452.52 -0.05c81.97,-98.47 91.44,-73.72 91.44,-179.32l-260.19 -254.47c-8.15,-8.14 -12.39,-12.53 -22.85,-22.91l-59.88 -65.55c-49.22,0 -74.77,-2.35 -112.51,7.2 -32.72,8.27 -43.12,15.65 -85.82,15.65z"/>
  <path class="fil11" d="M9567.97 4370.78l433.03 3.84c-0.23,-50.8 -2.3,-101.14 1.05,-146.41 9.14,-123.95 -61.28,-215.99 -199.73,-216.45 -242.88,-0.81 -241.09,137.53 -234.36,359.02z"/>
  <path class="fil2" d="M8128.83 10630.49l0.74 227.26 -60.27 -3.08c-3.32,29.64 -7.98,50.88 -18.53,71.75 -32.28,63.72 -25.37,7.29 -25.66,72.68 116.39,-8.8 242.18,42.4 250.02,-93.35 6.37,-110.48 -7.82,-241.15 -3.2,-355.27 -33.54,2.26 -13.8,-2.21 -46.3,6.5 -37.44,10.02 -48.64,22.17 -96.8,73.53z"/>
  <polygon class="fil12" points="8129.25,6805.41 8276.96,6798.54 8276.48,6392.83 8128.54,6390.7 "/>
  <path class="fil5" d="M9783.96 7824.57c42.17,-62.52 133.41,-212.5 159.22,-281.15l-320.1 5.98 160.88 275.18z"/>
 </g>
</svg>
