<?xml version="1.0" encoding="UTF-8"?>
<!DOCTYPE svg PUBLIC "-//W3C//DTD SVG 1.1//EN" "http://www.w3.org/Graphics/SVG/1.1/DTD/svg11.dtd">
<!-- Creator: CorelDRAW 2021 (64-Bit) -->
<svg xmlns="http://www.w3.org/2000/svg" xml:space="preserve" width="127mm" height="127mm" version="1.1" style="shape-rendering:geometricPrecision; text-rendering:geometricPrecision; image-rendering:optimizeQuality; fill-rule:evenodd; clip-rule:evenodd"
viewBox="0 0 8944.3 8944.31"
 xmlns:xlink="http://www.w3.org/1999/xlink"
 xmlns:xodm="http://www.corel.com/coreldraw/odm/2003">
 <defs>
  <style type="text/css">
   <![CDATA[
    .str0 {stroke:black;stroke-width:47.7;stroke-miterlimit:22.9256}
    .fil0 {fill:none}
    .fil3 {fill:black}
    .fil5 {fill:#030303}
    .fil2 {fill:#131313}
    .fil14 {fill:#6B0000}
    .fil13 {fill:#7ABC62}
    .fil6 {fill:#94FFAF}
    .fil1 {fill:#A6E1FF}
    .fil8 {fill:#E08EA2}
    .fil12 {fill:#F7F7F7}
    .fil11 {fill:#F7F9F8}
    .fil9 {fill:#F8F8F8}
    .fil10 {fill:#FF5930}
    .fil7 {fill:#FF5930}
    .fil4 {fill:#FF9F63}
   ]]>
  </style>
   <mask id="id0">
  <linearGradient id="id1" gradientUnits="userSpaceOnUse" x1="4623.42" y1="7587.75" x2="4623.46" y2="1190.21">
   <stop offset="0" style="stop-opacity:1; stop-color:white"/>
   <stop offset="1" style="stop-opacity:0; stop-color:white"/>
  </linearGradient>
    <rect style="fill:url(#id1)" x="694.68" y="38.78" width="7554.93" height="7554.93"/>
   </mask>
 </defs>
 <g id="Layer_x0020_1">
  <metadata id="CorelCorpID_0Corel-Layer"/>
  <rect class="fil0" x="-0.01" y="0" width="8944.3" height="8944.3" rx="549.09" ry="588.11"/>
  <path class="fil1" style="mask:url(#id0)" d="M4472.15 41.76c2084.59,0 3774.49,1689.89 3774.49,3774.49 0,2084.59 -1689.89,3774.49 -3774.49,3774.49 -2084.59,0 -3774.49,-1689.89 -3774.49,-3774.49 0,-2084.59 1689.89,-3774.49 3774.49,-3774.49z"/>
  <g id="_1294051828960">
   <path class="fil2" d="M2572.28 4461.39c61.22,-19.99 603.11,-90.42 643.03,-105.23 31.34,-11.62 24.68,-42.91 48.81,-101.29 14.99,-36.28 32.59,-68.86 52.1,-97.8 10.85,-16.09 20.04,-27.64 31.68,-43.18 117.42,-156.81 303.17,-184.44 319.72,-209.7 11.97,-18.26 58.91,-353.15 64.39,-390.05l44.15 -262.6 103.04 646.69c11.63,26.24 69.09,35.22 101.18,48.79 55.41,23.43 94.93,49.65 139.46,85.22 37.81,30.2 21.18,21.53 40.32,39.35 37.59,34.99 34.47,31.52 69.06,80.79 19.23,27.4 38.38,61.77 52.89,96.94 12.91,31.27 23.67,90.46 46.18,103.91 17.12,10.23 593.69,97.61 647.45,107.01l-7.59 3.44c-46.61,15.82 -613.03,89.94 -639.83,105.93 -40.2,23.99 -18.4,133.88 -168.96,285.43 -148.24,149.21 -261.11,128.35 -279.89,170.07 -7.86,17.45 -18.33,106.27 -22.35,131.7 -10.96,69.04 -72.53,492.73 -83.71,520.22 -29.34,-173.47 -53.6,-346.27 -80.72,-520.07 -28.91,-185.28 -3,-128.89 -121.04,-178.35 -293.85,-123.13 -319.39,-389.69 -346.73,-407.41 -30.17,-19.55 -614.73,-89.32 -652.64,-109.8zm2339.2 -661.81c-18.15,35.1 -122.68,157.46 -136.77,191.11 -24.69,-2.46 -45.86,-8.51 -69.98,-13.98 -31.19,-7.07 -31.46,-9.45 -47.26,-32.72 -19.33,-28.47 6.49,-50.77 20.16,-115.93l233.85 -28.48zm-304.32 231.52c35.09,21.55 28.19,20.15 74.04,30.31 91.3,20.24 115.61,42.79 154.48,-10.2 14.37,-19.59 27.73,-37.04 43.94,-59.07 22.64,-30.79 167.76,-216.84 173.03,-234.97 9.97,-34.28 -11.94,-56.49 -41.26,-57.9 -39.16,-1.88 -226.66,27.02 -273.99,32.88 -70.54,8.71 -119.37,-5.8 -141.4,65.7 -14.28,46.33 -45.7,115 -36.58,163.55 -32.15,10.95 -94.44,52.48 -129.86,72.53 -29.21,16.52 -100.5,63.36 -125.23,71.3 -11.25,-10.87 -13.57,-18.85 -24.1,-31.81 -11.85,-14.59 -14.9,-18.38 -24.61,-33.56 22.14,-33.83 90.95,-96.85 122.76,-127.4 24.47,-23.49 127.86,-93.11 83.06,-142.02 -43.32,-47.28 -105.6,41.45 -144.09,81.03 -31.59,32.49 -91.28,102.39 -125.43,124.63 -72.08,-54.52 -124.94,-94.47 -232.47,-130.31 -17.56,-63.15 -28.69,-173.55 -39.21,-241.88l-94.72 -607.23c-6.17,-38.97 -4.46,-86.39 -50.53,-87.03 -46.97,-0.65 -46.27,49.33 -52.26,89.46 -6.04,40.41 -12.56,80.82 -18.69,121.42 -15.53,102.7 -98.38,672.65 -113.54,725.28 -69.56,22.23 -121.75,52.04 -180.79,90.9 -16.69,10.99 -33.8,30.22 -51.5,38.79 -20.68,-11.51 -102.32,-100.05 -125.42,-124.04 -38.39,-39.88 -100.82,-128.22 -144.1,-81.01 -58.53,63.85 151.54,179.06 205.29,269.41l-21.16 27.07c-33.78,43.97 -62.47,90.83 -85.8,143.82 -8.82,20.03 -15.8,45.36 -25.08,63.15 -10.78,11.4 -710.2,117.45 -837.38,136.9 -42.16,6.45 -86.18,5.24 -86.26,50.66 -0.08,46.35 48.24,45.97 88.42,52.29 40.44,6.35 80.66,12.76 121.52,19.28 79.03,12.61 158.89,25.14 238.47,37.59 63.76,9.98 451.57,64.56 475.12,78.29 7.3,12.02 36.14,83.57 42.59,100.1l-419.73 242.49c-45.88,-116.2 -92.1,-204.61 -113.75,-339.23 -2.98,-18.5 -4.92,-48.23 -14.51,-60.49 -10.47,-13.4 -37,-19.77 -56.98,-8.79 -36.35,19.97 -16.18,83.68 -7.49,125.02 8.38,39.88 18.67,80.79 30.76,118.72 25.68,80.56 55.28,138.12 86.85,209.4 -55.79,40.43 -127.79,73.92 -188.06,110.75 -20.11,12.29 -37.33,31.66 -23.65,62.17 27.29,60.86 142.8,-30.16 191.8,-57.86 20.11,-11.37 42.73,-27.98 64.35,-36.19 27.63,32.37 50.29,72.84 77.28,107.38 136.35,174.49 311.37,301.29 522.18,381.96 43.89,16.79 246.78,84.88 287.62,58.05 18.68,-12.28 27.21,-39.35 11.94,-62.29 -12.51,-18.79 -39,-18.26 -66.27,-22.78 -136.61,-22.65 -280.51,-77.55 -391.8,-147.15 -75.55,-47.25 -139.74,-98.53 -201.9,-158.62 -51.33,-49.62 -131.83,-139.22 -160.41,-201.25 6.26,-5.82 -3.58,1.88 8.05,-6.77l97.33 -57.38c46.74,-28.02 280.36,-170.67 312.47,-179.02 9.13,11.16 14.21,18.68 21.88,29.21 7.84,10.76 14.23,16.21 21.05,26.61 -14.21,27.11 -95.01,101.76 -121.67,127.38 -31.66,30.41 -126.64,94.05 -83.09,142.07 43.17,47.59 110.38,-45.98 144.14,-81.05 20.83,-21.63 39.02,-40.24 60.32,-61.45 16.35,-16.3 47.88,-45.75 59.01,-62.5 36.96,13.06 112.47,100.66 240.49,131.4 5.17,73.03 25.23,169.76 37.1,244.44l93.6 604.43c5.82,39.21 5.92,86.19 51.67,85.51 46.98,-0.7 44.84,-51.07 51.24,-91.18 6.51,-40.72 12.83,-80.65 19.07,-121.41 12.1,-79.08 25.39,-159.06 37.3,-238.85 23.4,-156.78 58.95,-326.98 74.82,-483.15 79.55,-18.08 149.71,-63 210.65,-111.74 9.13,-7.3 14.78,-14.19 23.86,-19.31 20.93,11.11 102.31,99.74 125.4,123.82 33.28,34.68 100.83,128.76 144.15,81.03 43.97,-48.44 -51.59,-111.23 -83.15,-142 -25.52,-24.87 -107.63,-103.61 -122.32,-127.45 6.36,-10.7 2.33,-3.64 10.52,-14.47 4.27,-5.66 5.78,-7.59 10.13,-13.3l54.46 -81.37c26.18,-45.67 34.58,-79.78 55.23,-127.44 75.73,-16.61 164.44,-26.77 242.49,-38.93l476.94 -75c40.62,-6.75 81.14,-13.01 121.65,-19.31 39.23,-6.1 84.48,-6.52 84.41,-51.65 -0.08,-46.38 -47.66,-44.8 -90.17,-51.21 -40.34,-6.09 -80.99,-12.8 -121.18,-19.3 -79.51,-12.87 -159.04,-24.99 -238.04,-37.89 -155.77,-25.45 -322.11,-45.46 -475.6,-76.72l-38.51 -93.16 258.86 -152.08z"/>
   <path class="fil2" d="M3656.84 2444.63c315.35,-15.76 595.06,34.06 860.54,141.1 241.96,97.56 494.79,263.74 675.41,453.21 36.73,38.54 89.37,92.65 120.18,132.68 101.84,132.29 163.58,212.35 247.4,380.17 256.78,514.09 284.53,1116.61 73.7,1653.99 -71.69,182.71 -219.15,442.42 -355.93,585.39 -11.36,11.87 -16.31,22.23 -27.3,33.73l-127.61 125.26c-46.45,46.03 -83.93,74.55 -136.36,116.48 -289.57,231.58 -695.34,390.3 -1092.52,411.35 -564.07,29.9 -1036.09,-153.21 -1442.51,-501.47 -83.94,-71.93 -198.51,-199.58 -270.72,-295.83 -68.64,-91.49 -133.16,-194.57 -191.24,-309.97 -259.79,-516.19 -282.2,-1114.74 -73.8,-1653.66 76.46,-197.75 235.06,-462.69 383.2,-619.13 12.73,-13.44 20.77,-19.11 32.68,-32.77 57.64,-66.1 160.57,-152.98 231.05,-209.16 290.09,-231.28 696.25,-391.49 1093.83,-411.36zm-1969.36 2026.13c0,303.89 71.74,612.32 184.77,858.19 69.26,150.66 101.54,200.14 186.98,332.98 64.18,99.78 115.55,146.46 174.1,219.32 32.3,40.19 31.92,32.85 61.82,64.66 349.8,372.1 906.42,622.64 1456.47,623.16 583.41,0.54 1096.81,-215.66 1491.26,-611.75 33.42,-33.55 101.55,-101.52 128.55,-138.42 18.09,-24.73 39.61,-46.95 58.12,-73.08 18.56,-26.2 36.78,-49.74 55.43,-75.73 234.66,-326.8 377.83,-775.19 377.83,-1199.34 0,-1176.98 -935.59,-2116.69 -2092.46,-2117.06 -325.8,-0.11 -595.15,71.95 -860.04,189.02 -240.76,106.42 -368.27,215.38 -549.97,368.2l-62.31 64.17c-11.99,12.31 -22.86,18.3 -34.31,31.11l-90.79 106.08c-19.75,25.47 -39.26,45.57 -58.64,72.46 -275.31,382.24 -426.81,779.86 -426.81,1286.02z"/>
   <path class="fil2" d="M3698.6 2861.26c339.32,-14.27 667.31,76.6 934.81,254.73 43.01,28.64 79.55,54.38 117.4,84.01 78.89,61.76 167.03,145.82 227.97,221.71 7.48,9.32 14.42,15.99 21.71,24.97 211.43,260.33 339.83,579.41 358.37,935.02 61.91,1187.65 -1139.64,2000.5 -2182.16,1563.19 -141.19,-59.23 -264.59,-131.57 -377.96,-221.55 -12.46,-9.89 -16.17,-13.02 -28.02,-23.42l-78.4 -66.89c-19.38,-20.06 -30.2,-35.84 -50.17,-52.86 -32.9,-28.04 -108.43,-121.85 -135.92,-159.03 -184.43,-249.47 -298.23,-548.23 -315.1,-880.11 -45.79,-901.01 658.78,-1644.06 1507.47,-1679.76zm-1592.48 1726.59c64.2,890.49 824.92,1621 1790.12,1558.88 883,-56.83 1617.35,-848.16 1547.82,-1808.72 -22.32,-308.39 -115.21,-552.12 -262.38,-791.41 -66.39,-107.93 -167.32,-227.64 -261.7,-314.55 -10.29,-9.47 -14.8,-16.9 -24.87,-26.49 -10.77,-10.26 -20.73,-15.17 -31.45,-24.97 -313.23,-286.16 -776.72,-434.92 -1210.44,-404.53 -884.5,61.99 -1616.83,844.59 -1547.1,1811.8z"/>
   <path class="fil2" d="M3754.21 4348.49c66.14,-14.24 121.74,36.42 132.3,90.27 13.96,71.17 -33.61,126.92 -90.01,137.83 -144.02,27.85 -198.68,-194.44 -42.29,-228.11zm358.07 -26.4c22.11,26.2 30.38,99.08 30.48,139.3 0.67,241.23 -228.09,421.01 -460.55,359.89 -43.63,-11.47 -83.93,-33.2 -114.59,-54.14 -24.85,-16.98 -67.33,-56.15 -81.41,-80.07l140.83 -82.54c28.49,23.23 57.55,48.92 110.78,58.71 132.02,24.28 265.05,-84.74 230.59,-258.32l143.87 -82.83zm-674.05 289.14c-33.93,-103.07 -47.28,-182.15 -3.77,-289.08 33.61,-82.6 93.44,-145.63 158.32,-183.41 121.78,-70.92 281.32,-65.13 394.89,21.1 29.69,22.54 64.85,53.71 81.6,84.96l-144.35 80.97c-103.07,-111.8 -277.66,-78.61 -335.67,53 -27.64,62.7 -16.41,85.94 -6.93,149.64l-144.09 82.83zm281.77 -605.78c-250.54,31.35 -430.56,263.64 -396.77,512.97 31.29,230.89 238.07,433.76 508.98,398.85 109.61,-14.12 159.66,-49.95 234.66,-103.14 31.03,-22.02 84.31,-90.51 103.92,-125.73 47.84,-85.91 68.91,-182.9 55.57,-285.12 -29.77,-228.18 -241.45,-430.97 -506.37,-397.83z"/>
   <path class="fil2" d="M3653.8 3324.56c25.16,-39.96 -6.41,-76.37 -55.15,-69.93 -235.04,31.04 -471.39,148.45 -640.45,310.19 -202.11,193.34 -329.1,412.22 -376.68,705.87 -7.09,43.76 4.47,89.72 57.69,71.7 31.43,-10.64 28.76,-58.65 36.74,-99.72 25.55,-131.5 82.99,-280.55 154.21,-389l183.91 -223.43c23.96,-20.45 46.4,-41.29 73.75,-62.1 109.25,-83.09 217.7,-145.1 355.66,-187.58 35.36,-10.89 202.02,-42.83 210.32,-56z"/>
   <path class="fil2" d="M4967.36 4658.11c7.27,-42.09 3.61,-88.66 -48.64,-79.78 -40.08,6.82 -35,50.81 -43.24,93.73 -33.17,172.89 -103.48,333.67 -207.2,471.87 -158.5,211.2 -391.03,367.16 -661.57,424.98 -32.55,6.96 -90.75,7.69 -107.6,28.41 -24.96,30.71 -2.76,73.86 39.49,72.3 79,-2.89 251.02,-59.22 318.17,-89.4 116.03,-52.15 201.68,-106.55 293.34,-184.42l166.91 -170.42c127.02,-154.97 213.99,-356.75 250.33,-567.27z"/>
   <path class="fil2" d="M3917.06 3257.07c-40.28,20.01 -36.81,70.77 6.06,81.95 37.95,9.9 81.03,14.12 121.23,24.45 81.25,20.86 144.81,45.15 215.59,79.13 70.89,34.04 184.41,106.84 243.32,159.6 36.95,33.09 71.07,85.3 111.14,68.95 14.37,-5.87 27.6,-21.57 26.31,-42.9 -1.79,-29.71 -81.61,-94.79 -106.27,-113.69 -14.01,-10.73 -24.59,-20.7 -38.78,-31.41 -15.18,-11.47 -27.25,-19.66 -43.71,-31.21 -86.24,-60.45 -193.07,-112.09 -297.47,-147.51 -37.36,-12.68 -204.66,-63.62 -237.42,-47.35z"/>
   <path class="fil2" d="M4854.48 4161.63c14.38,49.4 18.96,99.2 30.98,149.27 13.03,54.24 96.72,48.95 84.17,-31.71 -7.18,-46.12 -19.41,-109.14 -33.04,-150.34 -18.24,-55.1 -103.39,-40.37 -82.1,32.78z"/>
  </g>
  <rect class="fil3" x="1.76" y="8460.4" width="8942.46" height="84.29"/>
  <path class="fil4" d="M5004.48 7024.12l1.13 -605.57c-0.04,-105.99 22.73,-116.05 124.11,-116.3l1721.72 0.56c510.69,0 409.77,-92.82 409.77,573.34 0,183.86 25.37,854.46 -21.25,963.35 -86.49,30.72 -2156.74,27.31 -2197.64,0.58 -33.45,-23.35 -34.5,-21.71 -37.53,-77.45 -9.18,-168.92 5.02,-537.04 -0.3,-738.49zm1418.01 -2018.25c-24.88,36.7 -7.57,12.06 -43.42,36.91 -1.88,1.3 -37.12,26.55 -37.97,27.04 -33.32,18.68 -70.64,18.42 -113.18,23.66 -121.99,47.03 -288.64,-14.56 -374.05,-70.97 -495.65,-327.43 -108.6,-1117.96 477.21,-887.36 118.7,46.73 185.8,123.47 243.74,217.7 143.3,233.01 14.38,580.21 -152.32,653.02zm-177.75 3329.15l162.64 2.73 1322.72 -5.45c18.35,-241.11 1.85,-552.35 1.85,-801.27l0.03 -2414.22c0.47,-90.68 16.49,-115.46 -32.13,-167.5 -47.58,-50.93 -64.57,-65.27 -105.51,-99.96l-310.85 -293.11c-33.85,-36.62 -71.74,-61.55 -110.62,-94.78 -38.11,-32.56 -63.66,-69.53 -101.8,-103.51 -268.32,-239.01 -590.6,-563.6 -833.71,-771.41 -34.03,-29.09 -65.57,-72.81 -105.12,-92.84l-159.1 141.45c-52.02,44.76 -91.38,92.63 -144.43,138.08l-295.3 270.08c-104.26,111.49 -286.91,260.75 -365.65,340.43l-433.8 413.23c-65.81,64.92 -192.44,137.91 -200.31,217.97l1.79 1417.89 -105.03 0.23 0.04 436.76 104.27 -0.05 1.44 1465.62 1708.57 -0.36z"/>
  <path class="fil5" d="M7878.92 7848.61c39.55,55.1 25.73,75.87 113.87,159.36 57.03,54.03 92.61,63.68 175.7,93.58l1.46 232.2 -286.58 1.77 -4.46 -486.91zm-7014.06 250.26l64.99 -17.79 0.63 255.29 -60.62 -0.33 -4.99 -237.16zm793.26 -919.33l519.41 -0.71 -0.01 1155.66 -519.34 1.49 -0.06 -1156.43zm6511.9 760.26c-202.13,-22.09 -224.04,-432.26 68.48,-438.05 282.13,-5.58 306.75,391.32 78.6,440.67 1.38,-94.01 11.07,-206.27 -21.86,-274.01 -172.43,-38.87 -123.86,128.54 -125.23,271.39zm-7451.51 -100.58l-0.12 104.56c-231.54,-70.27 -194.88,-439.07 71.19,-442.14 265.77,-3.08 313.41,373.67 74.78,442.09 0.59,-78.55 24.14,-242.07 -33.85,-275.15 -113.99,-65.03 -112,95 -112,170.65zm1160.96 -1902.74c7.97,-44.4 103.7,-235.71 129.07,-277.35l2376.36 0.42 1.88 86.56 0.84 128.46 -5.08 60.41 -2503.06 1.5zm5705.47 -1719.72c-56.65,-46.5 -214.98,-160.73 -222.78,-241.83 -3.23,-33.61 0.49,-104.76 4.87,-138.82l220.96 -0.41 -3.05 381.06zm-3345.46 -302.01l759.99 -1.06c-22.36,49.34 -113.63,110.56 -181.85,183.89l-581.03 527.65 2.89 -710.47zm-205.77 1324.84c-9.37,-84.29 -19.09,-188.37 23.97,-232.3l559.55 -519.51c28.49,-25.29 41.58,-46.59 68.25,-72.53 23.17,-22.56 43.94,-38.54 68.5,-59.9l1378.26 -1280.01c65.55,33.86 84.76,77.04 140.81,127.97l413.83 382.89c55.95,46.74 83.39,81.68 137.28,132.22 48.73,45.68 98.08,79.42 144.4,125.76 28.26,28.26 39.39,46.82 68.23,72.72 26.95,24.21 44.02,35.88 70.23,58.79 121.8,106.46 268.11,261.69 411.68,384.41l689.9 645.31c48.18,47.59 22.48,100.62 28,230.95 -58.59,-27.97 -670.88,-622.56 -783.46,-720.88l-653.81 -605.19c-51.4,-50.84 -72.18,-76.36 -123.98,-119.89 -24.65,-20.72 -46.52,-37.04 -69.17,-59.29l-192.48 -179.83c-49.36,-44.38 -212.87,-221.02 -255.78,-232.9 -95.03,-6.93 -105.94,49.04 -160.24,97.13 -48.35,42.84 -91.06,72.64 -134.95,122.59l-1829.02 1701.5zm-1635.55 3247.27c-24.53,-67.36 -24.66,-83.46 -6.18,-151.35l-65.07 -1.79c-24.73,-250.12 35,-1139.44 -19.39,-1281.42 -88.32,-43.44 -375.68,-20.11 -503.33,-20.11 -354.49,0 -292.51,-127.33 -292.51,768.49 0,132.46 15.3,420.71 -6.01,534.84l-425.5 -0.62c-5.73,-73.67 -1.7,-154.62 -2.01,-226.12 -0.54,-119.13 -13.01,-104.15 37.07,-187.37 66.66,-110.77 70.77,-259.62 5.11,-374.66 -51.97,-91.03 -43.15,-53.06 -42.24,-182.5l1.2 -699.03 2682.91 -8.6c22.39,-34.36 71.26,-61.31 108.11,-86.07l-5.48 -54.48 -40.8 -1.42 -16.35 58.09 -77.05 0.32c-12.96,-30.82 -0.68,-30.77 -25.68,-60.46l-2942.32 1.73 279.67 -431.85 3344.24 0.51 -2.72 425.37 2.37 151.26 0.3 1675.85 -1832.7 2.67 2.01 142.99 3698.59 0.73c-37.71,-53.83 -29.55,-79.05 -9.65,-146.86l-1708.57 0.36 -1.44 -1465.62 -104.27 0.05 -0.04 -436.76 105.03 -0.23 -1.79 -1417.89c7.87,-80.06 134.5,-153.05 200.31,-217.97l433.8 -413.23c78.74,-79.68 261.39,-228.94 365.65,-340.43l295.3 -270.08c53.05,-45.45 92.41,-93.32 144.43,-138.08l159.1 -141.45c39.55,20.03 71.09,63.75 105.12,92.84 243.11,207.82 565.38,532.4 833.71,771.41 38.14,33.98 63.69,70.96 101.8,103.51 38.88,33.23 76.77,58.17 110.62,94.78l310.85 293.11c40.93,34.7 57.93,49.03 105.51,99.96 48.62,52.04 32.6,76.82 32.13,167.5l-0.03 2414.22c0,248.92 16.49,560.16 -1.85,801.27l-1322.72 5.45 5.86 142.99c189.49,15.83 1131.73,2.09 1401.43,2.09 95.65,0 811.82,18.15 859.05,-16.25 37.69,-27.43 38.89,-94.46 -5.99,-119.23 -52.86,-29.19 -270.42,-10.44 -346.4,-12.65l-3.72 -234.01c342.07,-108.73 372.02,-440.16 203.49,-620.97 -205.42,-220.4 -541.62,-135.69 -636.59,136.88l-5.31 -2494.59c37.14,33.81 78.39,63.48 116.36,96.9 41.36,36.38 65.44,72.34 108.7,108.86 93.61,78.98 194.56,212.67 261.8,137.26 28.06,-70.35 20.07,-327.02 17.35,-425.99 -3.26,-117.85 -59.29,-114.88 -188.11,-251.21 -36.17,-38.26 -75.1,-66.55 -116.47,-101.75l-341.74 -326.8 -3.79 -601.53c-9.8,-52.26 -9.09,-35.81 -36.88,-53.36 -42.14,-27.05 -386.2,-23.15 -438.54,-5.32 -59.77,44.62 -38.32,87.45 -44.07,169.28 -79.16,-47.56 -682.4,-639.64 -807.06,-746.44 -265.74,-227.68 -220.73,-306.32 -430.35,-112.47l-401.55 381.73c-49.24,56.32 -108.64,91.38 -162.36,145.69l-165.49 155.91c-106.94,91.82 -45.23,74.98 -232.07,74.48 -194.2,-0.52 -817.64,-21.32 -912.01,25 -29.95,106.2 -13.2,538.44 -13.2,682.61 0,93.17 25.85,260.31 -25.63,320.67 -200.05,234.58 -178.83,17.73 -181.05,514.06 -0.49,108.22 20.44,255.69 137.28,148.5l360.81 -336.32 6.11 389.94 -2313.37 0.12c-190.53,-1.12 -162.31,7.11 -232.81,155.27 -43.92,92.33 -86.66,175.86 -130.16,267.64l-626.08 -0.01c-111.44,-0.87 -117.34,-8.83 -160.67,61.64l-337.99 507.4c34.52,70.91 34.76,38.9 32.78,152.85l310.06 3.87 2.3 718.57c-254.02,-64.74 -436.9,44.8 -499.28,242.97 -37.71,119.77 -7.04,236.66 48.93,319.83 62.52,92.93 108.42,107.92 236.66,162.46l0.26 227.18c-89.44,13.58 -255.02,4.14 -352.09,4.06 -129.21,-0.08 -277.88,-36.59 -233.09,124.97 180.29,78.18 1876.64,-17.43 2265.46,26.37z"/>
  <path class="fil6" d="M4105.58 7959.86c-107.58,49.52 -794.14,21.09 -978.57,21.09 -630.24,0 -521.28,153.86 -522.67,-732.42 -0.13,-70.03 -16.75,-171.01 36.66,-203.33 37.04,-22.39 1377.94,-33 1463.47,8.85 29.69,90.53 28.3,810.91 1.11,905.82zm-1713.6 375.67l161.79 2.64 1832.7 -2.67 -0.3 -1675.85 -206.92 -1.27 -71.05 2.76c-37.87,-3.8 -46.03,-0.93 -81.63,1.04 -50.87,2.81 -40.16,1.11 -90.45,-2.09 -57.7,-3.67 -115.75,-0.87 -173.93,-3.44l-2682.91 8.6 -1.2 699.03c-0.91,129.44 -9.73,91.46 42.24,182.5 65.66,115.04 61.55,263.89 -5.11,374.66 -50.08,83.22 -37.6,68.24 -37.07,187.37 0.32,71.5 -3.72,152.45 2.01,226.12l425.5 0.62c21.3,-114.13 6.01,-402.38 6.01,-534.84 0,-895.82 -61.98,-768.49 292.51,-768.49 127.65,0 415.01,-23.33 503.33,20.11 54.39,141.97 -5.35,1031.3 19.39,1281.42l65.07 1.79z"/>
  <path class="fil5" d="M6557.94 7153.77l556.72 -0.23 -3.69 555.02 -552.06 -1.39 -0.97 -553.4zm-701.81 -0.84l555.22 5.92 -1.46 549.28 -553.29 1.79 -0.47 -557zm-704.22 0.2l556.12 2.06 -3.2 553.42 -550.52 0.7 -2.99 -486.46 0.61 -69.72zm1406.8 -703.73l555.83 -0.88 -1.39 557.35 -94.75 -0.43 -346.78 0.46 -112.34 -2.96 -0.64 -49.75 0.04 -385.24 0.02 -118.55zm-702.53 -0.83l555.19 4.85 -0.03 550.35 -99.29 1.67 -372.44 -0.09 -83.25 0.41 -0.18 -557.19zm-703.9 0.26l555.31 2.26 -0.45 554.14 -555.69 0.75 0.83 -557.14zm-146.67 -30.27l98.3 9.06c1.51,115.3 0.82,230.49 1.05,345.81 0.41,202.95 7.73,210.38 -100.48,250.71 5.32,201.45 -8.87,569.57 0.3,738.49 3.04,55.74 4.08,54.1 37.53,77.45 40.9,26.73 2111.15,30.14 2197.64,-0.58 46.62,-108.89 21.25,-779.48 21.25,-963.35 0,-666.15 100.92,-573.34 -409.77,-573.34l-1721.72 -0.56c-101.38,0.25 -124.15,10.32 -124.11,116.3z"/>
  <path class="fil7" d="M3864.84 6516.09c37.09,-1.7 89.33,-6.81 123.02,-6.98 45.11,-0.23 68.97,8.94 121.66,1.82l172.15 3.16 102.13 -5.7 2.72 -425.37 -3344.24 -0.51 -279.67 431.85 2942.32 -1.73c25,29.69 12.73,29.64 25.68,60.46l77.05 -0.32 16.35 -58.09 40.8 1.42z"/>
  <path class="fil5" d="M2750.01 7178.44l1222.48 2.33 0.32 130.71c-238.6,13.05 -663.93,2 -935.7,1.85 -77.74,-0.05 -238.56,-31.66 -235.06,75.75 3.37,103.24 161.93,70.97 247.9,70.94l920.26 0.83 2.75 83.29c-213.52,14.47 -677.81,2.35 -935.85,2.29 -90.82,-0.01 -237.09,-29.46 -235.15,74.33 1.92,102.39 156.52,71.77 248,71.76 262.98,-0.06 695.94,-11.27 922.55,2.26l0.88 139.4 -1222.92 -0.15 -0.46 -655.59zm1355.57 781.42c27.2,-94.91 28.58,-815.29 -1.11,-905.82 -85.53,-41.84 -1426.43,-31.23 -1463.47,-8.85 -53.42,32.32 -36.79,133.3 -36.66,203.33 1.39,886.28 -107.57,732.42 522.67,732.42 184.43,0 870.98,28.43 978.57,-21.09z"/>
  <path class="fil8" d="M4033.71 5239.61l1829.02 -1701.5c43.9,-49.95 86.6,-79.74 134.95,-122.59 54.3,-48.09 65.21,-104.06 160.24,-97.13 42.9,11.88 206.42,188.53 255.78,232.9l192.48 179.83c22.65,22.24 44.52,38.57 69.17,59.29 51.8,43.53 72.58,69.05 123.98,119.89l653.81 605.19c112.57,98.32 724.87,692.91 783.46,720.88 -5.52,-130.33 20.18,-183.35 -28,-230.95l-689.9 -645.31c-143.57,-122.72 -289.88,-277.96 -411.68,-384.41 -26.21,-22.91 -43.28,-34.58 -70.23,-58.79 -28.84,-25.9 -39.97,-44.45 -68.23,-72.72 -46.31,-46.33 -95.67,-80.08 -144.4,-125.76 -53.89,-50.54 -81.32,-85.48 -137.28,-132.22l-413.83 -382.89c-56.05,-50.93 -75.25,-94.11 -140.81,-127.97l-1378.26 1280.01c-24.57,21.36 -45.33,37.33 -68.5,59.9 -26.67,25.94 -39.76,47.24 -68.25,72.53l-559.55 519.51c-43.06,43.93 -33.35,148 -23.97,232.3z"/>
  <path class="fil5" d="M4482.13 2702.36c77,-27.54 144.39,17.63 173.94,63.6 52.56,81.72 -8.49,176.33 77.96,192.7 75.61,14.3 122.9,-50.78 215.37,27.63 80.03,67.86 27.43,119.55 57.52,198.84 14,36.93 41.59,33.1 48.33,96.3 18.14,169.93 -167.15,144.4 -258.67,144.26 -175.79,-0.27 -351.78,6.61 -526.56,0.55 -106.59,-3.7 -454.28,21.16 -520.88,-22.87 -49.24,-32.54 -78.88,-119.23 -27.6,-182.72 60.75,-75.19 136.95,-21.94 164.25,-91.62 15.42,-39.35 -13.14,-142.62 92.83,-179.89 175.63,-61.78 55.31,-13.94 141.17,-127.09 72.1,-94.99 139.99,-23.27 202.94,-22.65 55.91,0.55 79.41,-68.42 159.41,-97.02zm339.98 93.38c0,0 0,0 0,0z"/>
  <path class="fil9 str0" d="M4482.13 2702.36c-80,28.6 -103.5,97.57 -159.41,97.02 -62.95,-0.62 -130.84,-72.34 -202.94,22.65 -85.87,113.15 34.46,65.31 -141.17,127.09 -105.97,37.28 -77.41,140.54 -92.83,179.89 -27.3,69.68 -103.5,16.43 -164.25,91.62 -51.28,63.49 -21.64,150.18 27.6,182.72 66.6,44.03 414.29,19.16 520.88,22.87 174.78,6.06 350.77,-0.82 526.56,-0.55 91.53,0.13 276.81,25.67 258.67,-144.26 -6.74,-63.19 -34.33,-59.37 -48.33,-96.3 -30.09,-79.29 22.51,-130.97 -57.52,-198.84 -92.47,-78.41 -139.76,-13.32 -215.37,-27.63 -86.45,-16.37 -25.4,-110.98 -77.96,-192.7 -29.55,-45.97 -96.94,-91.13 -173.94,-63.6z"/>
  <path class="fil10" d="M1879.47 5936.49l2503.06 -1.5 5.08 -60.41 -0.84 -128.46 -1.88 -86.56 -2376.36 -0.42c-25.37,41.64 -121.1,232.95 -129.07,277.35z"/>
  <polygon class="fil11" points="1658.18,8335.98 2177.52,8334.49 2177.53,7178.83 1658.12,7179.54 "/>
  <path class="fil12" d="M2750.47 7834.03l1222.92 0.15 -0.88 -139.4c-226.61,-13.53 -659.57,-2.32 -922.55,-2.26 -91.47,0.01 -246.08,30.63 -248,-71.76 -1.94,-103.79 144.33,-74.34 235.15,-74.33 258.05,0.06 722.33,12.18 935.85,-2.29l-2.75 -83.29 -920.26 -0.83c-85.98,0.03 -244.53,32.3 -247.9,-70.94 -3.5,-107.42 157.31,-75.8 235.06,-75.75 271.77,0.15 697.1,11.2 935.7,-1.85l-0.32 -130.71 -1222.48 -2.33 0.46 655.59z"/>
  <path class="fil11" d="M6317.41 4916.01c18.54,-24.42 3.22,-8.37 32.14,-31.63 2.94,-2.37 11.97,-9 15.09,-11.24 16.54,-11.82 5.64,-5.07 26.45,-17.39 28.55,-71.81 94.61,-90.06 100.02,-240.12 12.09,-334.5 -366.29,-460.05 -578.93,-296.98 -326.23,250.17 -24.46,803.62 405.23,597.36z"/>
  <path class="fil5" d="M1790.88 4543.12c-11.65,-89.57 7.25,-104.96 82.67,-128.45 97.11,-30.26 46.1,-48.78 76.16,-127.07 26.82,-69.86 87.24,-36.29 128.37,-78.3 32.72,-33.42 27.08,-94.02 88.48,-102.77 66.79,-9.49 86.32,49.05 149.56,-5.05 31.66,-27.11 47.52,-72.99 126.3,-59.18 145.47,25.5 20.75,222.47 176.62,204.95 175.31,-19.69 152.54,84.32 159.45,137.24 16.21,124.02 186.81,198.96 -229.42,198.93l-603.77 0.36c-92.32,0.44 -88.63,9.51 -154.43,-40.66zm875.87 -455.07c0,0 0,0 0,0z"/>
  <path class="fil11 str0" d="M1790.88 4543.12c65.8,50.17 62.12,41.1 154.43,40.66l603.77 -0.36c416.23,0.03 245.63,-74.91 229.42,-198.93 -6.92,-52.92 15.85,-156.93 -159.45,-137.24 -155.87,17.52 -31.16,-179.45 -176.62,-204.95 -78.79,-13.81 -94.64,32.07 -126.3,59.18 -63.24,54.1 -82.77,-4.44 -149.56,5.05 -61.4,8.75 -55.76,69.35 -88.48,102.77 -41.13,42.01 -101.55,8.44 -128.37,78.3 -30.06,78.29 20.95,96.81 -76.16,127.07 -75.42,23.49 -94.32,38.88 -82.67,128.45z"/>
  <path class="fil5" d="M6317.41 4916c-429.69,206.26 -731.47,-347.17 -405.23,-597.36 212.65,-163.07 591.02,-37.52 578.93,296.99 -5.41,150.07 -71.47,168.31 -100.03,240.12 -20.79,12.32 -9.9,5.56 -26.44,17.39 -3.12,2.24 -12.15,8.87 -15.1,11.25 -28.92,23.25 -13.59,7.2 -32.13,31.61zm105.08 89.87c166.7,-72.79 295.62,-420.01 152.33,-653 -57.94,-94.24 -125.05,-170.97 -243.75,-217.7 -585.8,-230.61 -972.87,559.91 -477.21,887.36 85.41,56.41 252.06,117.99 374.05,70.97 42.55,-5.25 79.86,-4.99 113.18,-23.68 0.87,-0.48 36.1,-25.73 37.98,-27.02 35.85,-24.85 18.54,-0.23 43.42,-36.93z"/>
  <polygon class="fil9" points="6558.69,6567.95 6558.65,6953.18 6559.29,7002.93 6671.63,7005.89 7018.41,7005.43 7113.15,7005.86 7114.55,6448.51 6558.71,6449.4 "/>
  <polygon class="fil9" points="5151.45,7005.97 5707.13,7005.22 5707.58,6451.09 5152.28,6448.82 "/>
  <polygon class="fil9" points="5856.36,7005.75 5939.61,7005.34 6312.05,7005.43 6411.34,7003.76 6411.36,6453.42 5856.18,6448.56 "/>
  <polygon class="fil11" points="6558.91,7707.16 7110.97,7708.56 7114.66,7153.54 6557.94,7153.77 "/>
  <polygon class="fil9" points="5151.31,7222.84 5154.3,7709.31 5704.82,7708.61 5708.03,7155.19 5151.91,7153.13 "/>
  <polygon class="fil9" points="5856.6,7709.93 6409.89,7708.14 6411.35,7158.85 5856.13,7152.93 "/>
  <path class="fil9" d="M4236.59 4625.23l581.03 -527.65c68.22,-73.33 159.49,-134.54 181.85,-183.89l-759.99 1.06 -2.89 710.47z"/>
  <path class="fil13" d="M8170.02 7939.81c1.37,-142.85 -47.2,-310.26 125.23,-271.39 32.93,67.74 23.24,180 21.86,274.01 228.15,-49.35 203.53,-446.26 -78.6,-440.67 -292.53,5.8 -270.62,415.96 -68.48,438.05z"/>
  <path class="fil13" d="M718.51 7839.23c0,-75.65 -1.99,-235.67 112,-170.65 57.98,33.09 34.44,196.61 33.85,275.15 238.63,-68.41 190.99,-445.16 -74.78,-442.09 -266.07,3.08 -302.73,371.87 -71.19,442.14l0.12 -104.56z"/>
  <path class="fil14" d="M7584.95 4216.77l3.05 -381.06 -220.96 0.41c-4.39,34.06 -8.11,105.21 -4.87,138.82 7.8,81.1 166.13,195.33 222.78,241.83z"/>
  <path class="fil3" d="M5004.48 7024.12c108.2,-40.33 100.89,-47.76 100.48,-250.71 -0.23,-115.32 0.46,-230.5 -1.05,-345.81l-98.3 -9.06 -1.13 605.57z"/>
  <path class="fil3" d="M3762.2 6656.64c58.18,2.58 116.23,-0.23 173.93,3.44 50.29,3.2 39.58,4.9 90.45,2.09 35.59,-1.97 43.76,-4.84 81.63,-1.04l1.32 -150.2c-52.69,7.11 -76.55,-2.05 -121.66,-1.82 -33.69,0.17 -85.93,5.28 -123.02,6.98l5.48 54.48c-36.85,24.76 -85.72,51.71 -108.11,86.07z"/>
  <path class="fil3" d="M6254.38 8481.89c74.84,4.59 82.37,6.32 158.85,-1.14l-5.86 -142.99 -162.64 -2.73c-19.9,67.81 -28.07,93.03 9.65,146.86z"/>
  <path class="fil3" d="M2398.16 8486.87c57.72,-3.59 94.82,0.06 157.63,-5.72l-2.01 -142.99 -161.79 -2.64c-18.48,67.89 -18.35,83.99 6.18,151.35z"/>
  <polygon class="fil3" points="4108.21,6661.14 4179.25,6658.37 4290.42,6580.59 4281.68,6514.09 4109.52,6510.93 "/>
  <polygon class="fil3" points="4179.25,6658.37 4386.18,6659.64 4383.81,6508.39 4281.68,6514.09 4290.42,6580.59 "/>
 </g>
</svg>
