<?xml version="1.0" encoding="UTF-8"?>
<!DOCTYPE svg PUBLIC "-//W3C//DTD SVG 1.1//EN" "http://www.w3.org/Graphics/SVG/1.1/DTD/svg11.dtd">
<!-- Creator: CorelDRAW 2021 (64-Bit) -->
<svg xmlns="http://www.w3.org/2000/svg" xml:space="preserve" width="127mm" height="127mm" version="1.1" style="shape-rendering:geometricPrecision; text-rendering:geometricPrecision; image-rendering:optimizeQuality; fill-rule:evenodd; clip-rule:evenodd"
viewBox="0 0 3274.54 3274.54"
 xmlns:xlink="http://www.w3.org/1999/xlink"
 xmlns:xodm="http://www.corel.com/coreldraw/odm/2003">
 <defs>
  <style type="text/css">
   <![CDATA[
    .fil0 {fill:none}
    .fil2 {fill:black}
    .fil5 {fill:#202020}
    .fil1 {fill:#A6E1FF}
    .fil3 {fill:#FF9F63}
    .fil4 {fill:#030303}
    .fil6 {fill:#060606}
   ]]>
  </style>
   <mask id="id0">
  <linearGradient id="id1" gradientUnits="userSpaceOnUse" x1="1692.65" y1="2777.9" x2="1692.66" y2="435.74">
   <stop offset="0" style="stop-opacity:1; stop-color:white"/>
   <stop offset="1" style="stop-opacity:0; stop-color:white"/>
  </linearGradient>
    <rect style="fill:url(#id1)" x="254.33" y="14.2" width="2765.88" height="2765.88"/>
   </mask>
 </defs>
 <g id="Layer_x0020_1">
  <metadata id="CorelCorpID_0Corel-Layer"/>
  <rect class="fil0" x="-0" y="0" width="3274.54" height="3274.54" rx="201.02" ry="215.31"/>
  <path class="fil1" style="mask:url(#id0)" d="M1637.27 15.29c763.18,0 1381.85,618.67 1381.85,1381.85 0,763.18 -618.67,1381.85 -1381.85,1381.85 -763.18,0 -1381.85,-618.67 -1381.85,-1381.85 0,-763.18 618.67,-1381.85 1381.85,-1381.85z"/>
  <rect class="fil2" x="0.65" y="3097.38" width="3273.86" height="30.86"/>
  <path class="fil3" d="M962.22 2360.57c-45.54,5.47 -32.39,-17.12 -29.84,-56.64 1.98,-30.44 -2.37,-70.42 6.76,-94.48l27.53 -0.27c5.55,25.13 2.83,129.13 -4.45,151.4zm-18.04 -623.92c36.39,1.68 28.42,9.37 27.79,79.48l-1.04 271.72c-0.27,17.79 0.75,35.57 -13.25,41.44 -32.5,13.61 -23.4,-54.95 -23.39,-76.28 0.04,-62.8 -2.88,-285.99 9.89,-316.35zm-494.51 1364.58c30.83,6.72 515.28,2.03 546.9,-3.85l88.83 -1606.86c-34.21,-33.59 -308.97,-247.4 -366.6,-282.09 -21.29,12.93 -108.83,113.74 -133.24,138.94l-142.49 133.91c-47.12,36.03 -30.51,37.61 -29.42,107.85l11.71 400.07c4.73,178.72 8.49,359.62 17.08,537.56 5.97,123.85 4.75,281.02 12.81,402.23l-7.47 168.39c0.38,0.97 1.11,2.66 1.89,3.85z"/>
  <path class="fil3" d="M1796.14 2663.35c-10.29,-28.39 0.67,-63.72 2.21,-93.05 4.51,-85.12 44.68,-81.06 36.23,-9.11 -8.67,73.87 5,111.58 -38.45,102.17zm41.32 -620.93c34.98,-0.46 33.9,-1.71 25.44,89.74 -3.14,33.94 -4.78,67.44 -7.46,101.51 -2.83,35.84 -2.82,190.06 -23.6,198.93 -38.43,16.4 -20.42,-59.08 -19.22,-83.77 2.74,-56.28 15.38,-280.78 24.84,-306.4zm-520.46 -280.57l-2.78 1317.61c32.45,12.77 223.03,11.27 273.36,13.11 90.62,3.32 170.62,20.8 264.87,20.05 16.61,-76.83 82.41,-1236.8 101.92,-1458.92 10.84,-123.37 6.27,-98.55 -76.13,-187.58l-211.93 -218.17 -305.52 233.16c-24.39,19.43 -43.01,28.76 -43.44,63.24 -0.88,72.26 -0.29,145.14 -0.35,217.49z"/>
  <path class="fil3" d="M2750.62 2284.35c36.68,-0.02 29.7,3.74 25.07,73.77 -1.5,22.62 4.9,72.4 -15.69,79.42 -34.43,11.75 -20.24,-45.25 -19.32,-68.5 1.31,-33.02 -1.37,-59.34 9.94,-84.69zm0.17 -77.7c-9.61,-28.87 2.28,-348.85 10.2,-392.1l26.98 0.74c9.45,27.16 0.17,167.87 -2.7,208.11 -7.61,106.24 19.48,183.67 -34.48,183.26zm-425.34 882.62c60.02,5.08 466.43,18.27 492.54,8.1 7.98,-70.81 12.87,-364.03 15.95,-456.92 5.96,-179.88 16.41,-360.19 24.32,-540.09l18.25 -402.85c5.15,-70.49 9.81,-63.73 -22.58,-111.71 -42.82,-63.43 -78.55,-106.95 -122.05,-159.37l-137.82 -142.81c-20.03,11.58 -53.3,45.42 -71.28,66.4 -21.91,25.55 -47.55,42.78 -72.12,66.09 -43.7,41.47 -87.36,98.43 -132.4,148.67 -38.52,42.96 -30.62,35.35 -28.87,108.26l15.1 404.81c1.52,65.58 12.47,959.14 20.97,1011.42z"/>
  <path class="fil4" d="M1930.14 2533.97c56.11,-4.85 310.22,-5.56 356.62,5.01l8.77 237c-47.4,4.44 -358.17,6.31 -384.71,-7.59l19.33 -234.42zm-875.04 4.58c5.45,-3.33 -0.66,-2.16 9.62,-4.08 1.7,-0.32 11.78,-0.68 13.99,-0.74 9.82,-0.28 20.05,-0.02 29.96,-0.17l172.79 -1.95c5.37,36.21 1.16,85.7 0.5,123.44 -0.37,21.4 -0.63,42.76 -0.87,64.16 -0.34,30.63 4.24,47.12 -7.99,53.1l-236.39 4.18c-0.84,-12.85 5.93,-221.45 18.39,-237.94zm-896.91 -4.91c17.32,-0.93 222.63,-4.4 240.73,3.85l10.89 7.05 5.51 231.01 -258.22 -3.95 1.09 -237.95zm2703.72 243.44c-1.52,-44.41 2.49,-88.41 4.28,-131.67 1.36,-33 -3.23,-112.39 19.04,-112.39 65.17,0 239.89,-6.62 279.72,7.11 7.09,66.99 5.16,136.5 0.69,203.66 -0.55,8.3 -2.21,22.48 -9.09,26.44 -55.95,10.4 -230.84,10.15 -294.64,6.85zm-927.61 -276.5c-4.66,-41.73 2.77,-97.55 4.93,-140.61 5.57,-110.52 2.85,-97.53 47.56,-98.17 74.04,-1.05 222.41,-8.58 290.03,0.94l7.73 238.42c-127.74,1.77 -221.88,4.37 -350.26,-0.59zm-877.63 4.16c-7.69,-50.97 6.4,-185.05 10.63,-243.36l213.57 0.31 -2.7 239.46 -221.51 3.59zm911.08 -525.75c24.57,-14.07 231.91,-10.58 276.59,-8.81 30.72,1.22 21.95,13.74 24.52,48.25l8.47 208.91 -328.98 -0.36 19.4 -248zm-881.55 -4.62l194.41 -2.51 0.01 255.39 -210.37 -0.04 15.94 -252.85zm-927.84 -3.14c47.56,-2.16 198.14,-7.75 230.37,7.38 12.4,29.56 11.88,203.32 11.98,248.92l-243.56 -1.35 1.2 -254.95zm2739.91 -0.38l271.97 0.71 -5.61 252.13 -280.38 3.75 14.02 -256.59zm-561 1115.39c-8.5,-52.28 -31.24,-942.79 -32.76,-1008.37l-15.1 -404.81c-1.75,-72.91 -9.65,-65.3 28.87,-108.26 45.04,-50.24 88.7,-107.2 132.4,-148.67 24.57,-23.31 50.21,-40.54 72.12,-66.09 17.99,-20.98 51.25,-54.82 71.28,-66.4l137.82 142.81c43.49,52.42 79.22,95.93 122.05,159.37 32.39,47.98 27.74,41.22 22.58,111.71l-18.25 402.85c-7.91,179.91 -18.36,360.21 -24.32,540.09 -3.08,92.9 -24.53,371.1 -32.51,441.91 -26.1,10.16 -404.16,8.94 -464.18,3.86zm-1020.25 -1324.38c0.05,-72.35 -0.53,-145.24 0.35,-217.49 0.42,-34.48 19.04,-43.8 43.44,-63.24l305.52 -233.16 211.93 218.17c82.39,89.03 86.96,64.2 76.13,187.58 -19.51,222.12 -80.09,1360.36 -96.7,1437.19 -94.24,0.75 -179.46,5 -270.08,1.67 -50.32,-1.84 -240.9,-0.34 -273.36,-13.11l2.78 -1317.61zm-854.41 1317.37c-0.78,-1.19 -1.51,-2.88 -1.9,-3.85l-5.45 -146.38c-8.05,-121.22 -6.83,-278.39 -12.81,-402.23 -8.59,-177.94 -12.35,-358.83 -17.08,-537.56l-11.71 -400.07c-1.09,-70.24 -17.7,-71.82 29.42,-107.85l142.49 -133.91c24.41,-25.2 111.95,-126.02 133.24,-138.94 57.63,34.69 332.38,248.5 366.6,282.09l-96.52 1592.81c-31.62,5.88 -495.45,2.61 -526.29,-4.11zm627.27 -1145.59c1.5,-107.06 31.95,-376.31 24.54,-448.38 -2.24,-21.75 -9.47,-27.1 -22.5,-37.15l-99.53 -78.28c-34.42,-25.36 -250.73,-191.36 -274.62,-195.08 -25.45,-3.95 -60.54,44.41 -95.93,80.42 -47.48,48.32 -89.89,103.62 -143.24,147.84 -23.1,19.15 -40.31,36.37 -61.32,57.31 -24.7,24.62 -36.03,28.61 -35.97,79.47 0.42,81.19 12.84,354.05 4.99,397.47 -289.35,2.07 -265.03,-23.95 -265.6,81.22l2.35 242.51 276.63 2.93c4.36,109.52 10.54,137.09 2.38,237.27l-280 0.02 2.53 303.33 290.56 6.16c4.18,68.91 -4.97,236.46 9.74,294.6 47.33,17.36 497.04,10.18 582.27,10.88 36.45,-126.36 -1.3,-294.64 42.75,-307.78 23.62,-7.05 215.43,2.46 228.23,2.93 2.2,63.45 -8.91,252.04 11.35,294.61 36.9,22.14 238.56,16.85 300.52,19.61 92.76,-8.11 210.16,2.97 294.47,-12.4 23.14,-82.56 14.68,-208.41 25.14,-304.32l387.22 0.37c2.35,51.95 0.54,268.67 12.84,292.76 4.18,6.72 4.24,10.39 27.16,14.94l93.49 8.22c65.16,2.72 381.08,3.89 395.28,-8.74 24.23,-46.21 20.9,-230.5 36.75,-312.04l185.74 1.57c112.19,0.49 154.34,13.33 153.24,-36.67l-3.69 -114.17c0.04,-51.16 -0.01,-102.34 -0.17,-153.45l-320.49 -1.12c-3.29,-71.03 1.42,-168.6 9.73,-239.21l310.7 -0.1 -3.32 -315.21 -289.61 -9.64c-10.36,-24.4 2.73,-202.89 4.76,-243.37 2.76,-55.01 9.94,-74.36 -16.45,-111.38 -51.22,-71.84 -236.47,-314.13 -298.7,-338.5 -30.2,15.36 -117.06,101.86 -140.71,126.28 -12.15,12.54 -23.61,18.57 -37.17,32.04l-89.03 103.6c-56.15,72.29 -78.76,40.47 -72.92,123.51 4.44,63.16 15.74,272.33 11.34,308.21 -47.48,2.26 -264.08,6.61 -293.85,-7.08 -6.08,-40.09 9.3,-201.59 13.79,-251.59 11.5,-128.29 18.35,-135.78 -49.58,-205.64 -23.31,-23.98 -44.84,-42.81 -67.24,-65.9 -23.45,-24.17 -42.4,-43.11 -66.74,-66.51l-65.95 -67.25c-76.53,-71.66 -72.08,-77.98 -126.61,-26.71l-143.87 112.63c-33.71,24.02 -64.45,48.91 -97.93,74.79 -53.52,41.36 -81.58,50.89 -81.56,91.51 0.05,87.81 7.44,372.15 -9.6,412.8l-186.57 -4.14z"/>
  <path class="fil5" d="M1910.81 2768.39c26.54,13.89 337.31,12.03 384.71,7.59l-8.77 -237c-46.4,-10.57 -300.5,-9.86 -356.62,-5.01l-19.33 234.42z"/>
  <path class="fil5" d="M1967.74 1978.99l-19.4 248 328.98 0.36 -8.47 -208.91c-2.57,-34.51 6.2,-47.03 -24.52,-48.25 -44.67,-1.77 -252.01,-5.26 -276.59,8.81z"/>
  <path class="fil5" d="M2861.9 2777.08c63.79,3.3 238.68,3.55 294.64,-6.85 6.88,-3.97 8.54,-18.14 9.09,-26.44 4.47,-67.16 6.4,-136.67 -0.69,-203.66 -39.83,-13.73 -214.55,-7.11 -279.72,-7.11 -22.26,0 -17.67,79.39 -19.04,112.39 -1.79,43.27 -5.8,87.26 -4.28,131.67z"/>
  <polygon class="fil5" points="2884.23,2227.43 3164.62,2223.68 3170.23,1971.55 2898.25,1970.84 "/>
  <path class="fil5" d="M157.14 2226.18l243.56 1.35c-0.11,-45.6 0.41,-219.36 -11.98,-248.92 -32.24,-15.13 -182.81,-9.54 -230.37,-7.38l-1.2 254.95z"/>
  <path class="fil5" d="M157.09 2771.59l258.22 3.95 -5.51 -231.01 -10.89 -7.05c-18.09,-8.25 -223.41,-4.78 -240.73,-3.85l-1.09 237.95z"/>
  <path class="fil5" d="M1283.63 2772.13l6.93 -248.46 -234.64 4.28c-13.02,17.23 -20.09,235.13 -19.21,248.55l246.93 -4.37z"/>
  <polygon class="fil5" points="1070.24,2227.21 1280.61,2227.24 1280.6,1971.86 1086.19,1974.36 "/>
  <path class="fil4" d="M944.18 1736.66c-12.76,30.37 -9.85,253.55 -9.89,316.35 -0.01,21.33 -9.11,89.89 23.39,76.28 14,-5.87 12.98,-23.65 13.25,-41.44l1.04 -271.72c0.63,-70.11 8.61,-77.79 -27.79,-79.48z"/>
  <path class="fil4" d="M1837.46 2042.42c-9.46,25.62 -22.1,250.12 -24.84,306.4 -1.2,24.69 -19.21,100.17 19.22,83.77 20.78,-8.86 20.77,-163.09 23.6,-198.93 2.69,-34.06 4.32,-67.57 7.46,-101.51 8.47,-91.45 9.54,-90.2 -25.44,-89.74z"/>
  <path class="fil6" d="M2750.79 2206.66c53.96,0.42 26.86,-77.02 34.48,-183.26 2.88,-40.24 12.16,-180.94 2.7,-208.11l-26.98 -0.74c-7.92,43.25 -19.81,363.24 -10.2,392.1z"/>
  <path class="fil6" d="M962.22 2360.57c7.28,-22.26 10.01,-126.27 4.45,-151.4l-27.53 0.27c-9.13,24.07 -4.79,64.04 -6.76,94.48 -2.56,39.52 -15.71,62.11 29.84,56.64z"/>
  <path class="fil4" d="M2750.62 2284.35c-11.31,25.35 -8.63,51.67 -9.94,84.69 -0.92,23.26 -15.11,80.25 19.32,68.5 20.59,-7.02 14.19,-56.8 15.69,-79.42 4.62,-70.03 11.61,-73.79 -25.07,-73.77z"/>
  <path class="fil4" d="M1796.14 2663.35c43.44,9.42 29.77,-28.29 38.45,-102.17 8.45,-71.95 -31.72,-76.01 -36.23,9.11 -1.55,29.33 -12.51,64.67 -2.21,93.05z"/>
 </g>
</svg>
