<?xml version="1.0" encoding="UTF-8"?>
<!DOCTYPE svg PUBLIC "-//W3C//DTD SVG 1.1//EN" "http://www.w3.org/Graphics/SVG/1.1/DTD/svg11.dtd">
<!-- Creator: CorelDRAW 2021 (64-Bit) -->
<svg xmlns="http://www.w3.org/2000/svg" xml:space="preserve" width="127mm" height="127mm" version="1.1" style="shape-rendering:geometricPrecision; text-rendering:geometricPrecision; image-rendering:optimizeQuality; fill-rule:evenodd; clip-rule:evenodd"
viewBox="0 0 1928.72 1928.72"
 xmlns:xlink="http://www.w3.org/1999/xlink"
 xmlns:xodm="http://www.corel.com/coreldraw/odm/2003">
 <defs>
  <style type="text/css">
   <![CDATA[
    .fil0 {fill:none}
    .fil2 {fill:black}
    .fil4 {fill:#6B0000}
    .fil5 {fill:#7ABC62}
    .fil1 {fill:#A6E1FF}
    .fil7 {fill:#EBD011}
    .fil3 {fill:black}
    .fil6 {fill:#F9F9F9}
   ]]>
  </style>
   <mask id="id0">
  <linearGradient id="id1" gradientUnits="userSpaceOnUse" x1="996.98" y1="1636.2" x2="996.99" y2="256.65">
   <stop offset="0" style="stop-opacity:1; stop-color:white"/>
   <stop offset="1" style="stop-opacity:0; stop-color:white"/>
  </linearGradient>
    <rect style="fill:url(#id1)" x="149.8" y="8.36" width="1629.12" height="1629.12"/>
   </mask>
 </defs>
 <g id="Layer_x0020_1">
  <metadata id="CorelCorpID_0Corel-Layer"/>
  <rect class="fil0" x="-0" y="0" width="1928.72" height="1928.72" rx="118.4" ry="126.82"/>
  <path class="fil1" style="mask:url(#id0)" d="M964.36 9c449.51,0 813.92,364.4 813.92,813.92 0,449.51 -364.4,813.92 -813.92,813.92 -449.51,0 -813.92,-364.4 -813.92,-813.92 0,-449.51 364.4,-813.92 813.92,-813.92z"/>
  <rect class="fil2" x="0.38" y="1824.37" width="1928.32" height="18.18"/>
  <path class="fil3" d="M1411.75 1658.8l68.93 3.59 0.82 163.64 -69.16 -0.08 -0.59 -167.15zm-150.91 -10.51l123.24 6.41 0.01 171.65 -122.9 -2.98 -0.36 -175.08zm-139.19 -0.36l-0.22 178.09 -125.68 -0.07 0.85 -169.94 125.05 -8.08zm-220.04 14.79l67 -3.93 0.8 167.21 -70.47 0.06 -0.43 -5.84 3.09 -157.5zm598.55 -383.32c-1.93,27.53 15.04,29.68 38.57,49.38l144.28 120.59c-119.7,0.3 -196.29,-17.87 -93.03,62.11l186.96 154.73c-118.14,-0.88 -120.28,0.09 -173.63,-42.46l-156.8 -128.32c-21.93,-17.96 -72.19,-54.11 -89.16,-74.99 38.14,-0.09 142.74,8.55 167.3,-7.33 0.68,-21.35 -4.39,-19.11 -20.54,-32.64 -38.95,-32.66 -183.49,-144.05 -194.73,-164.28l114.93 2.04c77.25,-6.82 -19.98,-55.52 -67.15,-104.26 28.91,-21.42 60.32,-53.55 89.55,-70.22 20.14,9.97 95.28,76.83 117.34,95.91l-74.81 4.04c-3.67,23.25 8.59,26.64 24.11,39.09 11.5,9.23 21.78,18.57 34.37,28.39l69.54 60.37c0.65,-1.08 2.37,2.74 3.41,4.06 -50.29,-2.08 -71.96,-3.83 -120.53,3.78zm-683.34 -138.29c12.29,-17.36 99.08,-86.15 116.32,-97.55 23.88,11.5 76.38,55.96 91.4,75.9 -26.27,15.2 -96.27,64.8 -95.53,95.45l142.4 0.92c-8.2,15.77 -38.71,37.06 -53.99,49.57 -20.14,16.48 -33.75,28.94 -55.66,46.88 -41.48,33.96 -103.1,72.05 -103.03,104.16 28.29,9.19 129.15,5.91 166.16,2.31l-184.08 154.92c-32.68,26.44 -83.59,82.45 -125.29,85.84l-111.12 5.48 123.05 -101.75c23.55,-18.97 111.06,-81.51 112.26,-106.22 -25.96,-18.58 -102.42,-7.59 -141.57,-7.59 16.27,-20.24 112.79,-95.51 146.23,-123.35 15.1,-12.58 36.29,-16.96 36.99,-50.44l-121.16 -0.23c14.09,-19.36 51.53,-46.39 72.28,-63.87 20.42,-17.19 59.53,-36.6 60.25,-64.71 -18.82,-11.73 -51.99,-6.32 -75.89,-5.73zm515.78 -45.62c-16.47,-10.62 -26.83,-17.42 -39.03,-34.01l81.14 -0.21c-8.26,13.58 -27.18,27.33 -42.11,34.22zm-326.89 -34.36l82.97 0.32 -42.56 36.38 -40.41 -36.7zm230.42 560.6l-1.77 203.87 -85.69 0.46c2.07,-40.66 8.93,-173.51 -3.77,-200.17 -4.83,-2.99 -2.39,-3.59 -12.31,-5.45 -20.45,-3.83 -279.15,23.97 -329.44,21.08l217.17 -179.33c19.88,-14.6 57.88,-37.16 57.79,-61.38 -0.04,-11.16 -34.16,-8.59 -42.18,-8.53l-124.16 -1.98 166.57 -138.31c10.04,-8.61 18.72,-14.07 28.89,-22.35 18.1,-14.74 18.7,-10.39 20.94,-31.45 -32.51,-22.64 -104.3,-3.73 -145.98,-9.1 15.58,-16.14 24.82,-20.4 39.89,-33.38 15.54,-13.38 26.94,-24.27 43,-36.59 33.31,-25.55 78.37,-54.01 77.22,-78.95 -20.76,-9.97 -62.55,-6.59 -91.41,-5.42l34.27 -32.57c12.58,-9.46 23.29,-18.44 35.12,-27.9 25.18,-20.15 43.8,-39.92 69.66,-56.18 11.2,5.46 2.37,0.17 11.36,6.39 6.01,4.17 2.29,2.07 9.17,7.54 7.56,6.02 11.92,8.9 19.51,15.1l101.47 86.41 -91.14 3.8c-4.19,29.85 39.41,47.58 72.11,78.32 19.85,18.65 73.59,55.92 85.17,75.38 -60.41,-0.94 -84.92,-4.88 -142.42,3.63 -2.39,24.12 2.88,22.01 18.93,33.5l84.61 69.2c26,22.71 94.66,74.65 110.81,94.62l-39.9 0.35c-62.12,0.28 -151.97,-12.69 -122.83,25.03l271.13 225.41c-71.02,-2.5 -295.88,-26.97 -341.8,-21.08zm-302.99 -611.7c-26.04,11.91 -67.98,52.09 -93,72.4 -40.93,33.23 -78.11,53.52 -76.35,79.83 18.93,7.54 48.7,5.82 73.88,4.38l-37.08 35.88c-11.86,8.65 -23.94,18.84 -35.07,27.92 -40.38,32.95 -62.71,40.06 -58.91,70.35l121.48 2.52 -172.39 142.09c-12.05,10.35 -11.98,6.96 -12.87,26.07 31.6,15.97 100.19,5.75 142.29,6.35l-187.42 155.64c-29.35,22.14 -51.99,35.41 -50.93,59.91 22.6,5.45 296.2,-12.39 323.51,-18.89l0.9 151.72c-237.89,-2.02 -476.2,0.95 -714.15,-0.14 -6.83,-0.03 -41.73,-0.75 -45.66,0.45 -14.83,4.57 -18.11,-3.21 -4.17,4.76 12.13,6.93 1519.56,0.28 1762.92,1.4 34.31,0.16 51.76,0.55 53.5,-3.8 -39.63,-13.31 -326.5,-2.7 -414.26,-2.82l-0.05 -151.71c52.97,7.72 281.12,26.22 324.81,20.27 0.6,-25.38 -17.69,-35.95 -51.22,-61.85l-187.61 -154.98c40.06,-0.42 105.99,9.93 137.74,-4.86 9.24,-21.39 6.73,-14.2 -8.08,-27.75l-163.92 -133.51c-7.97,-7.43 -2.25,-1.23 -8.33,-10.17l121.37 -1.75c3.52,-26.31 -5.22,-25.23 -24.94,-41.43l-100.21 -83.19 69.11 -11.31c-1.96,-28.89 -17.83,-32.57 -36.83,-48.61l-134.46 -105.15c-21.86,10.36 -35.69,22.46 -50.54,39.94 -9.18,-6.52 -2.43,-1.4 -9.71,-8.37l-93.87 -77.4c-122.2,-98.13 -85.63,-96.59 -157.25,-37.51 -17.16,14.15 -35.99,27.79 -50.72,40.69 -43.93,38.49 -69.59,48.39 -93.05,86 -14.67,-12.93 -38.19,-35.78 -58.45,-43.35z"/>
  <polygon class="fil4" points="1137.85,1826.37 1138.47,1833.6 1241.83,1833.53 1240.65,1626.56 1142.39,1605.12 "/>
  <path class="fil5" d="M1050.89 1034.75c28.86,-1.17 70.65,-4.55 91.41,5.42 1.15,24.95 -43.91,53.4 -77.22,78.95 -16.06,12.32 -27.47,23.21 -43,36.59 -15.07,12.99 -24.3,17.24 -39.89,33.38 41.68,5.36 113.47,-13.54 145.98,9.1 -2.24,21.06 -2.84,16.71 -20.94,31.45 -10.17,8.28 -18.85,13.74 -28.89,22.35l-166.57 138.31 124.16 1.98c8.02,-0.07 42.14,-2.63 42.18,8.53 0.09,24.22 -37.91,46.78 -57.79,61.38l-217.17 179.33c50.29,2.89 308.99,-24.91 329.44,-21.08 9.93,1.85 7.48,2.45 12.31,5.45 12.7,26.66 7.56,-39.31 5.49,1.35l85.69 -0.46 0.04 -5.06c45.91,-5.89 270.78,18.57 341.8,21.08l-271.13 -225.41c-29.14,-37.71 60.7,-24.75 122.83,-25.03l39.9 -0.35c-16.15,-19.97 -84.81,-71.92 -110.81,-94.62l-84.61 -69.2c-16.05,-11.5 -21.32,-9.39 -18.93,-33.5 57.5,-8.51 82.01,-4.57 142.42,-3.63 -11.58,-19.46 -65.32,-56.73 -85.17,-75.38 -32.7,-30.74 -76.3,-48.47 -72.11,-78.32l91.14 -3.8 -101.47 -86.41c-7.59,-6.2 -11.96,-9.09 -19.51,-15.1 -6.88,-5.47 -3.15,-3.38 -9.17,-7.54 -8.99,-6.21 -0.17,-0.93 -11.36,-6.39 -25.86,16.26 -44.48,36.03 -69.66,56.18 -11.83,9.46 -22.54,18.45 -35.12,27.9l-34.27 32.57z"/>
  <path class="fil5" d="M816.82 1141.11c23.9,-0.59 57.07,-6 75.89,5.73 -0.72,28.11 -39.83,47.51 -60.25,64.71 -20.75,17.48 -58.19,44.51 -72.28,63.87l121.16 0.23c-0.69,33.48 -21.89,37.87 -36.99,50.44 -33.44,27.84 -129.96,103.1 -146.23,123.35 39.15,0 115.61,-10.99 141.57,7.59 -1.19,24.7 -88.71,87.25 -112.26,106.22l-123.05 101.75 111.12 -5.48c41.7,-3.38 92.61,-59.4 125.29,-85.84l184.08 -154.92c-37.01,3.61 -137.86,6.89 -166.16,-2.31 -0.07,-32.11 61.55,-70.2 103.03,-104.16 21.91,-17.94 35.52,-30.41 55.66,-46.88 15.29,-12.51 45.8,-33.8 53.99,-49.57l-142.4 -0.92c-0.75,-30.65 69.25,-80.25 95.53,-95.45 -15.02,-19.94 -67.52,-64.4 -91.4,-75.9 -17.24,11.4 -104.03,80.19 -116.32,97.55z"/>
  <path class="fil5" d="M1357.18 1113.97c47.17,48.74 144.39,97.44 67.15,104.26l-114.93 -2.04c11.24,20.23 155.78,131.63 194.73,164.28 16.15,13.53 21.22,11.28 20.54,32.64 -24.56,15.89 -129.17,7.25 -167.3,7.33 16.97,20.88 67.23,57.03 89.16,74.99l156.8 128.32c53.35,42.54 55.49,41.57 173.63,42.46l-186.96 -154.73c-103.26,-79.98 -26.67,-61.81 93.03,-62.11l-144.28 -120.59c-23.52,-19.7 -40.5,-21.86 -38.57,-49.38 48.57,-7.61 70.24,-5.86 120.53,-3.78 -1.04,-1.33 -2.76,-5.14 -3.41,-4.06l-69.54 -60.37c-12.59,-9.82 -22.87,-19.16 -34.37,-28.39 -15.53,-12.45 -27.79,-15.85 -24.11,-39.09l74.81 -4.04c-22.06,-19.08 -97.2,-85.94 -117.34,-95.91 -29.24,16.67 -60.65,48.8 -89.55,70.22z"/>
  <path class="fil5" d="M171.24 1252.35c-88.56,11.62 -59.35,13.22 -67.84,80.52 -79.16,26.96 -56.47,30.38 -44.92,93.59 -16.04,18.31 -49.25,40.63 -19.89,78.4 25.25,32.49 51.21,9.78 78.5,2.61 24.49,23.85 29.28,41.68 74.21,27.62 -3.58,-43.98 -41.93,-34.12 -37.08,-71.49 23.48,-8.84 20.63,-2.02 36.05,12.49 6.11,-75.08 -13.99,-76.96 18.12,-86.11 14.25,9.37 5.15,-2.39 10.21,14.32 1.69,5.59 1.41,20.68 1.65,27.48 16.14,-9.91 22.62,-25.16 38.94,-16.62 20.5,33.24 -39.52,26.48 -39.52,74.08l1.1 49.94c42.28,4.22 29.45,-12.12 61.22,-3.84 23.87,6.23 41.96,9.53 57.89,-11.56 54.73,-72.45 27.13,-77.71 18.22,-109.12 62.33,-73.74 -0.28,-73.37 -20.35,-100.31 -7.36,-9.88 -4.96,-25.41 -29.04,-33.9 -28.13,-9.91 -28.61,5.55 -39.12,-17.21 -8.99,-19.45 -3.67,-30.53 -21.38,-42.09 -42.63,-27.82 -60.39,9.42 -76.98,31.19z"/>
  <path class="fil6" d="M1507.06 716.37c-26.89,-0.16 -46.04,-1.84 -63.52,16.32 -19.35,20.09 -16.77,52.12 -2,71.19 26.93,34.78 125.82,19.07 176.39,18.7 43.16,-0.3 148.66,10.64 176.72,-12.78 17.47,-14.58 31.98,-41.53 21.56,-72.02 -4.27,-12.49 -48.78,-46.72 -49.91,-47.15 -45.71,-0.7 -100.22,9.74 -119.22,-23.75 -36.24,-63.9 39.89,-87.03 43.18,-88.83 -50.52,-17.44 -96.3,-4.85 -110.69,39.79 -19.2,59.55 6.82,19.51 -38.72,46.48 -24.94,14.77 -18.17,31.44 -33.78,52.06z"/>
  <path class="fil3" d="M259.2 1415.16c-16.32,-8.54 -22.8,6.71 -38.94,16.62 -0.24,-6.79 0.04,-21.89 -1.65,-27.48 -5.06,-16.71 4.04,-4.95 -10.21,-14.32 -32.12,9.15 -12.01,11.03 -18.12,86.11 -15.41,-14.5 -12.57,-21.33 -36.05,-12.49 -4.85,37.37 33.5,27.51 37.08,71.49 -44.93,14.06 -49.72,-3.77 -74.21,-27.62 -27.3,7.17 -53.25,29.88 -78.5,-2.61 -29.36,-37.77 3.85,-60.09 19.89,-78.4 -11.55,-63.22 -34.24,-66.63 44.92,-93.59 8.49,-67.31 -20.72,-68.9 67.84,-80.52 16.59,-21.78 34.35,-59.01 76.98,-31.19 17.71,11.56 12.39,22.64 21.38,42.09 10.51,22.76 10.99,7.3 39.12,17.21 24.08,8.49 21.68,24.01 29.04,33.9 20.07,26.93 82.67,26.56 20.35,100.31 8.91,31.41 36.5,36.67 -18.22,109.12 -15.93,21.09 -34.02,17.79 -57.89,11.56 -31.77,-8.28 -18.94,8.06 -61.22,3.84l-1.1 -49.94c0,-47.6 60.02,-40.84 39.52,-74.08zm133.18 5.6c28.08,-37.36 24.05,-83.02 -10.91,-110.01 -47.72,-36.84 -14.4,-13.98 -35.35,-39.03 -9.9,-11.84 -29.62,-19.94 -51.23,-22.98 -16.57,-73.19 -96.36,-86.73 -138.97,-23.46 -53.29,2.35 -84.49,29.02 -80.84,84.86 -51.08,22.71 -64.23,50.59 -49.57,111.43 -56.12,49.69 -16.48,151.64 87.81,119.2 16.4,24.76 43.84,32.42 77.89,23.04l0.73 105.68c-26.99,-1.33 -53.68,-0.73 -80.69,-0.92 -33.21,-0.23 -47.29,-7.04 -44.01,24.72 35.35,4.97 121.49,9.06 148.73,-2.61 10.68,-32.16 3.92,-86.03 3.5,-123.94 25.75,2.36 21.95,-1.08 41.22,-3.08 25.42,-2.64 63.56,20.6 98.26,-20.68 46.71,-55.56 44.15,-76.23 33.42,-122.22z"/>
  <path class="fil3" d="M1712.97 608.13c11.01,-28.35 3.4,-17.56 24.11,-32.59 25.18,-18.27 7.7,-1.46 20.36,-31.13 11.93,-27.94 46.79,-32.7 65.88,-8.19 14.16,18.18 4.74,20.72 18.63,38.33 34.79,44.16 65.49,38.8 32.37,85.7 -34.49,4.21 -166.88,6.33 -197.11,-1.27 -11.65,-16.78 -10.36,-25.5 -4.84,-45.98l40.61 -4.87zm-205.91 108.23c15.61,-20.62 8.84,-37.29 33.78,-52.06 45.54,-26.97 19.52,13.07 38.72,-46.48 14.39,-44.63 60.18,-57.23 110.69,-39.79 -3.29,1.81 -79.42,24.94 -43.18,88.83 19,33.49 73.51,23.06 119.22,23.75 1.13,0.44 45.64,34.66 49.91,47.15 10.41,30.49 -4.09,57.45 -21.56,72.02 -28.06,23.41 -133.56,12.48 -176.72,12.78 -50.56,0.36 -149.45,16.08 -176.39,-18.7 -14.77,-19.07 -17.36,-51.1 2,-71.19 17.48,-18.16 36.63,-16.49 63.52,-16.32zm206.89 -159.24c-27.55,-5 -88.88,-46.89 -147.08,24.74 -10.75,13.24 -15.09,28.96 -19.46,49.35 -32.21,11.82 -45.38,24.39 -55.09,55.92 -34.52,1.65 -60.12,11.46 -74.25,31.52 -18.14,25.76 -22.4,56.85 -7.06,87.24 30.33,60.14 99.3,44.47 178.39,44.15 107.18,-0.43 244.4,30.88 256.89,-80.01 4.51,-39.98 -11.17,-56.55 -31.75,-77.03 48.65,-10.35 79.46,6.36 97.39,-39.57 18.78,-48.1 -18.15,-67.51 -24.18,-73 -6.63,-6.05 -12.04,-13.5 -18.81,-21.27 -21.55,-24.8 -20.15,-64.25 -74.08,-65.43 -59.16,-1.29 -51.52,42.2 -80.9,63.4z"/>
  <path class="fil6" d="M1712.97 608.13l-40.61 4.87c-5.52,20.48 -6.81,29.21 4.84,45.98 30.24,7.6 162.63,5.48 197.11,1.27 33.13,-46.9 2.43,-41.54 -32.37,-85.7 -13.89,-17.61 -4.47,-20.15 -18.63,-38.33 -19.09,-24.51 -53.95,-19.74 -65.88,8.19 -12.66,29.66 4.82,12.86 -20.36,31.13 -20.71,15.03 -13.1,4.24 -24.11,32.59z"/>
  <path class="fil7" d="M745.2 924.28c44.23,-89.91 -91.36,-147.2 -127.58,-64.34 -39.15,89.56 84.37,152.18 127.58,64.34z"/>
  <path class="fil3" d="M745.2 924.28c-43.21,87.84 -166.74,25.21 -127.58,-64.34 36.23,-82.86 171.81,-25.57 127.58,64.34zm-95.16 -125.88c-129.62,51.63 -52.42,234.01 67.13,189.23 42,-15.72 75.22,-72.36 57.46,-127.53 -14.34,-44.55 -65.76,-85.13 -124.59,-61.71z"/>
  <polygon class="fil4" points="1412.33,1825.95 1481.49,1826.03 1480.68,1662.4 1411.75,1658.8 "/>
  <polygon class="fil4" points="898.51,1820.22 898.94,1826.07 969.41,1826.01 968.6,1658.8 901.61,1662.73 "/>
  <path class="fil3" d="M482.31 1740.46c-61.2,0 -233.4,-3.81 -272.74,2.12l-1.38 21.41c30.18,9.09 236.16,3.78 296.95,3.9 29.41,0.05 76.24,8.8 63.66,-22.38 -6.42,-7.04 -29.5,-5.24 -40.77,-5.14 -15.24,0.14 -30.48,0.09 -45.72,0.09z"/>
  <path class="fil3" d="M768.53 803.12c22.28,0.92 23.22,-2.89 34.17,-14.94 3.99,-4.39 11.41,-11.61 13.2,-15.97 7.46,-18.06 2.72,-10.87 -1.67,-20.34 -24.99,-8.73 -50.04,25.53 -45.7,51.25z"/>
  <path class="fil3" d="M688.3 759.99c5.51,-9.68 1.42,9.93 5.45,-12.79 3.48,-19.59 2.96,-36.92 -6.01,-51.28 -22.8,2.33 -20.95,5.25 -20.64,34.38 0.26,25.34 -0.91,37.78 21.2,29.69z"/>
  <path class="fil3" d="M767.94 989.46c-7.89,9.42 31.14,58.98 46.43,44.3 15,-14.41 -4.93,-25.96 -13.16,-34.41 -1.83,-1.88 -13.97,-15 -14.47,-15.22 -23.93,-11.04 -17.21,3.45 -18.79,5.34z"/>
  <path class="fil3" d="M549.77 1034.31c19.49,5.43 47.96,-27.08 45.13,-51.24 -20.01,-2.8 -40.52,13.61 -47.87,30.11 -10.49,23.55 1.33,18.83 2.75,21.14z"/>
  <path class="fil3" d="M493 884.34c-10.29,32.08 41.35,25.94 58.23,18.03 7.37,-14.21 8.2,0.83 1.44,-19.79 -16.43,-5.61 -41.98,-7.14 -59.67,1.76z"/>
  <path class="fil3" d="M807.91 884.34l-1.83 19.16c18.05,5.12 43.29,5.97 60.12,-0.53l4.58 -18.47c-18.25,-9.13 -46.51,-8.7 -62.87,-0.16z"/>
  <path class="fil3" d="M691.28 1087.7l3.73 -26.39 -0.65 -11.49 -2.64 -24.97c-23.56,-5.01 -24.55,6.82 -24.82,30.63 -0.34,29.62 -1.16,35.27 24.39,32.22z"/>
  <path class="fil3" d="M593.69 801.69c4.69,-22.94 -20.33,-54.97 -45.95,-51.39 -6.6,20.04 1.6,23.12 11.47,34.03 10.84,11.98 12.31,21.07 34.48,17.36z"/>
 </g>
</svg>
