<?xml version="1.0" encoding="UTF-8"?>
<!DOCTYPE svg PUBLIC "-//W3C//DTD SVG 1.1//EN" "http://www.w3.org/Graphics/SVG/1.1/DTD/svg11.dtd">
<!-- Creator: CorelDRAW 2021 (64-Bit) -->
<svg xmlns="http://www.w3.org/2000/svg" xml:space="preserve" width="127mm" height="127mm" version="1.1" style="shape-rendering:geometricPrecision; text-rendering:geometricPrecision; image-rendering:optimizeQuality; fill-rule:evenodd; clip-rule:evenodd"
viewBox="0 0 910.79 910.79"
 xmlns:xlink="http://www.w3.org/1999/xlink"
 xmlns:xodm="http://www.corel.com/coreldraw/odm/2003">
 <defs>
  <style type="text/css">
   <![CDATA[
    .fil0 {fill:none}
    .fil2 {fill:black}
    .fil6 {fill:#030303}
    .fil9 {fill:#070707}
    .fil4 {fill:#131313}
    .fil8 {fill:#181818}
    .fil5 {fill:#6B0000}
    .fil1 {fill:#A6E1FF}
    .fil7 {fill:url(#id2)}
    .fil3 {fill:url(#id3)}
   ]]>
  </style>
   <mask id="id0">
  <linearGradient id="id1" gradientUnits="userSpaceOnUse" x1="470.8" y1="772.65" x2="470.8" y2="121.2">
   <stop offset="0" style="stop-opacity:1; stop-color:white"/>
   <stop offset="1" style="stop-opacity:0; stop-color:white"/>
  </linearGradient>
    <rect style="fill:url(#id1)" x="70.74" y="3.95" width="769.31" height="769.31"/>
   </mask>
  <linearGradient id="id2" gradientUnits="userSpaceOnUse" x1="602.46" y1="520.23" x2="645.06" y2="520.23">
   <stop offset="0" style="stop-opacity:1; stop-color:#383838"/>
   <stop offset="1" style="stop-opacity:1; stop-color:red"/>
  </linearGradient>
  <linearGradient id="id3" gradientUnits="userSpaceOnUse" x1="312.05" y1="403.97" x2="585.17" y2="403.97">
   <stop offset="0" style="stop-opacity:1; stop-color:#EBD011"/>
   <stop offset="1" style="stop-opacity:1; stop-color:#FF3636"/>
  </linearGradient>
 </defs>
 <g id="Layer_x0020_1">
  <metadata id="CorelCorpID_0Corel-Layer"/>
  <rect class="fil0" x="-0" y="0" width="910.79" height="910.79" rx="55.91" ry="59.89"/>
  <path class="fil1" style="mask:url(#id0)" d="M455.39 4.25c212.27,0 384.35,172.08 384.35,384.35 0,212.27 -172.08,384.35 -384.35,384.35 -212.27,0 -384.35,-172.08 -384.35,-384.35 0,-212.27 172.08,-384.35 384.35,-384.35z"/>
  <rect class="fil2" x="0.18" y="861.51" width="910.6" height="8.58"/>
  <path class="fil3" d="M333.33 439.87c25.06,-4.05 -9.26,48.51 36.23,100.02 44.12,49.96 113.02,16.79 96.07,37.19 -8.19,9.86 -75.63,5.16 -103.75,-27.72 -17.85,-20.88 -39.06,-70.97 -28.55,-109.49zm161.02 -15.46c7.04,-21.86 15.71,-34.15 18.35,-62.12 4.14,-43.96 -12.32,-89.88 -40.89,-119.79 -7.2,-7.53 -30.63,-32.43 -44.09,-34.23 2.1,60.24 -61.11,103.13 -94.79,169.43 -61.74,121.58 22.92,232.24 130.29,221.21 41.39,-4.25 60.85,-19.98 86.01,-43.59 47.64,-44.69 44.99,-139.95 9.27,-198.87 -6.21,8.33 -10.01,25.68 -26.03,39.68 -9.96,8.7 -22.25,22.64 -38.1,28.28z"/>
  <path class="fil4" d="M288.56 797.87l10.89 3.2c5.31,-10.53 22.3,-25.32 35.1,-31.42 10.16,-4.84 38.4,9.68 50.06,13.6 -11.84,14.1 -77.82,52.91 -105.6,56.42 -4.98,-9.4 -10.72,-14.4 -15.4,-28.42 -12.3,-36.88 2.41,-47.28 26.57,-57.74 9.22,-3.99 26.32,3.87 33.46,8.54 -3.53,3.3 -4.88,3.67 -9.43,6.73 -4.06,2.73 -6.19,4.78 -9.78,7.79 -5.69,4.78 -12.75,11.75 -15.87,21.3zm-7.11 -136.07c-8.06,60.85 -73.87,78.12 -64.12,11.67 3.3,-22.51 16.33,-42.66 30.65,-50.01 25.47,-13.09 36.49,15.5 33.47,38.34zm8.97 -31.98l342.73 124.89c11.8,4.15 17.02,4.62 22.8,14.16 10.95,18.05 2.34,41.84 -3.98,58.57 -24.09,-3.34 -80.95,-35.09 -92.4,-27.93 -1.52,11.81 14.61,12.47 38.81,21.6 12.66,4.78 33.18,13.49 45.54,16.14 -15.88,22.31 -27.68,18.54 -54.34,8.45 -20.29,-7.67 -40.38,-14.94 -60.54,-22.16 -22.2,-7.95 -9.05,-5.33 -22.07,-18.28 -10.46,-10.4 -8.16,-10.15 -22.92,-19.36 -10.73,-6.7 -43.64,-25.32 -57.94,-23.1 -1.77,14 5.5,9.25 34.67,23.53 12.26,6 31.18,16.6 35.58,24.91 -25.42,-6.87 -143.31,-52.24 -180.1,-65.07 -5.19,-1.81 -54.9,-19.04 -59.68,-22.81 9.45,-7.15 13.37,-11.59 20.99,-18.69 38.65,11.96 96.95,42.47 124.43,34.08 28.87,-8.81 33.45,-12.39 66.09,-1.84 13.26,4.28 51.22,21.37 61.18,18.51 1.4,-12.88 -12.58,-13.16 -23.77,-17.35 -9.97,-3.73 -19.35,-7.42 -29.6,-10.87 -23.46,-7.9 -44.2,-11.91 -68.67,-2.62 -27.11,10.3 -39.56,0.18 -64.23,-8.65 -9.2,-3.29 -54.52,-18.65 -59.19,-22.47l9.39 -26.77c10.44,3.02 20.68,7.14 30.45,10.63 5.17,1.85 10.27,3.84 15.38,5.73 11.84,4.36 12.39,5.39 15.94,1.48 6.28,-9.99 -16.93,-14.13 -26.34,-17.54 -11.43,-4.15 -23.11,-8.93 -34.73,-12.73l-3.47 -24.43zm349.84 -38.7c36.57,-13.87 74.87,78.57 39.68,91.45 -11.71,4.28 -23.3,-3.14 -29.27,-8.77 -29.56,-27.82 -34.11,-73.69 -10.4,-82.68zm-24.58 11.43l-2.43 14.91c-21.2,8.11 -60.69,28.55 -85.45,39.54 -9.67,4.29 -24.43,7.58 -20.82,18.02 8.22,3.71 19.97,-4.63 28.22,-8.74l78.65 -36.24 8.53 26.48c-7.75,6.54 -14.58,9.1 -26.12,12.62 -12.99,3.97 -21.5,1.09 -20.45,14.75 15.19,4.07 42.77,-11.74 53.97,-16.76 3.87,7.83 13.35,16.64 20.44,21.18l7.6 5.37c-12.44,3.27 -35.01,16.04 -48.44,22.01 -28.79,12.8 -20.08,10.85 -51.02,-0.61 -34.12,-12.64 -69.14,-25.8 -103.22,-38.18l160.54 -74.35zm-240.89 45.45c-2.09,-29.02 2.87,-37.83 -30.82,-35.95 -0.4,7.6 -1.18,17.01 -4.85,22.85 -49.61,-11.15 -90.85,-55.13 -124.23,8.19 -11.44,21.71 -13.95,55.31 -0.1,74.49 9.9,13.7 50.29,16.95 64.79,28.81 -35.93,10.53 -36.21,43.96 -25.65,72.67 7.8,21.22 33.21,55.41 64.24,45.14 9.66,-3.19 26.8,-12.28 37.08,-17.33 24.96,-12.27 53.27,-23.43 76.87,-35.72 16.17,-8.42 13.46,-5.29 41.48,4.68l122.53 44.52c16.84,6.4 28.72,7.93 43.47,-1.81 33.31,-22.02 50.85,-95.79 6.54,-111.63 -13.09,-4.68 -28.98,-11.46 -42.12,-14.61 1.47,-1.31 0.86,-0.9 3.39,-2.52l55.13 -25.93c23.16,-11.4 41.1,-14.1 42.84,-45.49 1.39,-25.19 -12.57,-50.65 -23.67,-63.05 -4.38,-4.9 -17.63,-14.24 -27.97,-16.29 -14.58,-2.89 -24.3,3.95 -35.13,8.76 -19.58,8.69 -39.27,18.11 -58.87,27.32l-120.49 55.53c-4.65,0.28 -58.24,-19.66 -64.44,-22.63z"/>
  <path class="fil5" d="M633.15 754.71l-342.73 -124.89 3.47 24.43c11.62,3.8 23.3,8.59 34.73,12.73 9.42,3.42 32.62,7.55 26.34,17.54 -3.55,3.91 -4.1,2.88 -15.94,-1.48 -5.11,-1.88 -10.21,-3.88 -15.38,-5.73 -9.77,-3.5 -20.01,-7.61 -30.45,-10.63l-9.39 26.77c4.67,3.82 49.99,19.18 59.19,22.47 24.67,8.83 37.12,18.95 64.23,8.65 24.47,-9.29 45.21,-5.28 68.67,2.62 10.25,3.45 19.63,7.14 29.6,10.87 11.19,4.19 25.17,4.47 23.77,17.35 -9.96,2.86 -47.92,-14.23 -61.18,-18.51 -32.64,-10.55 -37.22,-6.97 -66.09,1.84 -27.48,8.38 -85.78,-22.12 -124.43,-34.08 -7.61,7.1 -11.54,11.54 -20.99,18.69 4.78,3.78 54.5,21 59.68,22.81 36.79,12.83 154.68,58.19 180.1,65.07 -4.39,-8.31 -23.32,-18.91 -35.58,-24.91 -29.17,-14.29 -36.45,-9.53 -34.67,-23.53 14.3,-2.22 47.21,16.4 57.94,23.1 14.76,9.21 12.46,8.96 22.92,19.36 13.02,12.95 -0.13,10.33 22.07,18.28 20.16,7.22 40.25,14.49 60.54,22.16 26.66,10.09 38.46,13.86 54.34,-8.45 -12.37,-2.65 -32.88,-11.36 -45.54,-16.14 -24.21,-9.13 -40.33,-9.8 -38.81,-21.6 11.45,-7.15 68.31,24.6 92.4,27.93 6.32,-16.73 14.92,-40.52 3.98,-58.57 -5.78,-9.53 -11,-10.01 -22.8,-14.16z"/>
  <path class="fil6" d="M494.35 424.41c15.85,-5.64 28.14,-19.58 38.1,-28.28 16.02,-14 19.82,-31.35 26.03,-39.68 35.72,58.93 38.37,154.18 -9.27,198.87 -25.16,23.61 -44.62,39.34 -86.01,43.59 -107.37,11.03 -192.04,-99.64 -130.29,-221.21 33.67,-66.3 96.88,-109.19 94.79,-169.43 13.46,1.8 36.9,26.7 44.09,34.23 28.58,29.91 45.04,75.83 40.89,119.79 -2.64,27.97 -11.31,40.25 -18.35,62.12zm57.43 -94.03c-1.32,13.52 -5.16,26.47 -11.4,36.77 -5.61,9.25 -14.74,22.58 -21.69,26.11 10.87,-53.85 6.52,-89.41 -18.37,-131.85 -16.93,-28.87 -49.67,-60.21 -87.85,-73.5 4.58,26.93 6.9,35.71 -5.06,60.36 -7.85,16.19 -19.76,31.41 -28.87,43.19 -43.43,56.12 -95.61,124.31 -73.16,208.8 45.56,171.44 313.19,136.79 290.03,-66.86 -3.5,-30.79 -19.98,-87.65 -43.62,-103.01z"/>
  <path class="fil5" d="M455.15 676.9c34.09,12.38 69.1,25.54 103.22,38.18 30.94,11.46 22.23,13.42 51.02,0.61 13.43,-5.97 36,-18.74 48.44,-22.01l-7.6 -5.37c-7.09,-4.54 -16.57,-13.35 -20.44,-21.18 -11.2,5.01 -38.78,20.82 -53.97,16.76 -1.05,-13.66 7.46,-10.78 20.45,-14.75 11.54,-3.52 18.36,-6.07 26.12,-12.62l-8.53 -26.48 -78.65 36.24c-8.25,4.11 -20,12.45 -28.22,8.74 -3.61,-10.44 11.16,-13.73 20.82,-18.02 24.76,-10.99 64.25,-31.43 85.45,-39.54l2.43 -14.91 -160.54 74.35z"/>
  <path class="fil5" d="M288.56 797.87c3.12,-9.55 10.19,-16.52 15.87,-21.3 3.59,-3.02 5.72,-5.06 9.78,-7.79 4.55,-3.06 5.91,-3.43 9.43,-6.73 -7.15,-4.67 -24.24,-12.53 -33.46,-8.54 -24.16,10.46 -38.87,20.86 -26.57,57.74 4.68,14.02 10.43,19.02 15.4,28.42 27.78,-3.51 93.76,-42.32 105.6,-56.42 -11.66,-3.92 -39.91,-18.43 -50.06,-13.6 -12.8,6.09 -29.79,20.88 -35.1,31.42l-10.89 -3.2z"/>
  <path class="fil5" d="M281.45 661.8c3.02,-22.84 -7.99,-51.43 -33.47,-38.34 -14.32,7.36 -27.35,27.51 -30.65,50.01 -9.75,66.45 56.06,49.18 64.12,-11.67z"/>
  <path class="fil5" d="M640.26 591.12c-23.71,8.99 -19.15,54.86 10.4,82.68 5.98,5.62 17.57,13.05 29.27,8.77 35.19,-12.87 -3.11,-105.32 -39.68,-91.45z"/>
  <path class="fil6" d="M333.33 439.87c-10.51,38.52 10.71,88.61 28.55,109.49 28.11,32.88 95.56,37.57 103.75,27.72 16.94,-20.4 -51.96,12.77 -96.07,-37.19 -45.49,-51.51 -11.17,-104.07 -36.23,-100.02z"/>
  <path class="fil7" d="M614.72 500.62c-25.46,11.94 -7.31,51.43 18.55,38.71 9.85,-4.85 14.21,-17.08 10.45,-27.11 -3.39,-9.04 -16.36,-17.53 -29,-11.6z"/>
  <path class="fil8" d="M264.49 520.09c-19.85,10.42 -4.98,40.27 15.67,30.16 19.46,-9.52 4.73,-40.88 -15.67,-30.16z"/>
  <path class="fil9" d="M643.58 422.14c-19.73,8.07 -6.73,33.97 10.51,27.09 15.99,-6.37 7.57,-34.49 -10.51,-27.09z"/>
 </g>
</svg>
